<ttFont>
    <TTGlyph name=".notdef" xMin="136" yMin="0" xMax="1225" yMax="2730">
      <contour>
        <pt x="136" y="0" on="1"/>
        <pt x="136" y="2730" on="1"/>
        <pt x="1225" y="2730" on="1"/>
        <pt x="1225" y="0" on="1"/>
      </contour>
      <contour>
        <pt x="272" y="136" on="1"/>
        <pt x="1089" y="136" on="1"/>
        <pt x="1089" y="2594" on="1"/>
        <pt x="272" y="2594" on="1"/>
      </contour>
    </TTGlyph>
    <TTGlyph name="A" xMin="70" yMin="-25" xMax="2748" yMax="2826">
      <contour>
        <pt x="438" y="-12" on="1"/>
        <pt x="135" y="-25" on="1"/>
        <pt x="93" y="-25" on="0"/>
        <pt x="70" y="7" on="0"/>
        <pt x="70" y="102" on="0"/>
        <pt x="103" y="123" on="0"/>
        <pt x="156" y="123" on="1"/>
        <pt x="287" y="123" on="1"/>
        <pt x="319" y="161" on="0"/>
        <pt x="604" y="652" on="1"/>
        <pt x="1515" y="2217" on="0"/>
        <pt x="1712" y="2507" on="1"/>
        <pt x="1733" y="2538" on="0"/>
        <pt x="1772" y="2576" on="1"/>
        <pt x="1871" y="2676" on="0"/>
        <pt x="1949" y="2826" on="0"/>
        <pt x="1991" y="2826" on="1"/>
        <pt x="2047" y="2826" on="0"/>
        <pt x="2067" y="2677" on="0"/>
        <pt x="2187" y="1950" on="0"/>
        <pt x="2290" y="1336" on="0"/>
        <pt x="2352" y="976" on="1"/>
        <pt x="2488" y="196" on="0"/>
        <pt x="2523" y="123" on="1"/>
        <pt x="2691" y="123" on="1"/>
        <pt x="2726" y="123" on="0"/>
        <pt x="2748" y="95" on="0"/>
        <pt x="2748" y="9" on="0"/>
        <pt x="2726" y="-25" on="0"/>
        <pt x="2691" y="-25" on="1"/>
        <pt x="2322" y="-12" on="1"/>
        <pt x="1864" y="-25" on="1"/>
        <pt x="1822" y="-25" on="0"/>
        <pt x="1798" y="8" on="0"/>
        <pt x="1798" y="102" on="0"/>
        <pt x="1831" y="123" on="0"/>
        <pt x="1884" y="123" on="1"/>
        <pt x="2114" y="123" on="1"/>
        <pt x="2114" y="156" on="1"/>
        <pt x="2114" y="252" on="0"/>
        <pt x="2002" y="1043" on="0"/>
        <pt x="1993" y="1120" on="0"/>
        <pt x="1981" y="1139" on="0"/>
        <pt x="1954" y="1139" on="1"/>
        <pt x="1163" y="1139" on="1"/>
        <pt x="1126" y="1139" on="0"/>
        <pt x="1102" y="1124" on="0"/>
        <pt x="1076" y="1076" on="0"/>
        <pt x="920" y="784" on="0"/>
        <pt x="819" y="593" on="0"/>
        <pt x="748" y="458" on="1"/>
        <pt x="602" y="179" on="0"/>
        <pt x="586" y="123" on="1"/>
        <pt x="856" y="123" on="1"/>
        <pt x="891" y="123" on="0"/>
        <pt x="913" y="95" on="0"/>
        <pt x="913" y="9" on="0"/>
        <pt x="891" y="-25" on="0"/>
        <pt x="856" y="-25" on="1"/>
      </contour>
      <contour>
        <pt x="1525" y="1897" on="0"/>
        <pt x="1225" y="1368" on="0"/>
        <pt x="1176" y="1280" on="0"/>
        <pt x="1176" y="1262" on="0"/>
        <pt x="1237" y="1262" on="1"/>
        <pt x="1921" y="1262" on="1"/>
        <pt x="1962" y="1262" on="0"/>
        <pt x="1962" y="1270" on="1"/>
        <pt x="1962" y="1312" on="0"/>
        <pt x="1791" y="2347" on="0"/>
        <pt x="1780" y="2347" on="0"/>
      </contour>
    </TTGlyph>
    <TTGlyph name="AE" xMin="-53" yMin="-25" xMax="3895" yMax="2839">
      <contour>
        <pt x="315" y="-12" on="1"/>
        <pt x="16" y="-25" on="1"/>
        <pt x="-27" y="-25" on="0"/>
        <pt x="-53" y="8" on="0"/>
        <pt x="-53" y="102" on="0"/>
        <pt x="-20" y="123" on="0"/>
        <pt x="33" y="123" on="1"/>
        <pt x="164" y="123" on="1"/>
        <pt x="199" y="123" on="0"/>
        <pt x="1963" y="2405" on="0"/>
        <pt x="2118" y="2593" on="1"/>
        <pt x="1864" y="2593" on="1"/>
        <pt x="1806" y="2593" on="0"/>
        <pt x="1774" y="2633" on="0"/>
        <pt x="1774" y="2666" on="1"/>
        <pt x="1774" y="2736" on="0"/>
        <pt x="1835" y="2736" on="1"/>
        <pt x="2108" y="2730" on="1"/>
        <pt x="2380" y="2724" on="0"/>
        <pt x="2466" y="2724" on="1"/>
        <pt x="3322" y="2736" on="1"/>
        <pt x="3694" y="2736" on="0"/>
        <pt x="3699" y="2777" on="1"/>
        <pt x="3699" y="2839" on="0"/>
        <pt x="3764" y="2839" on="1"/>
        <pt x="3809" y="2839" on="0"/>
        <pt x="3846" y="2816" on="0"/>
        <pt x="3846" y="2761" on="0"/>
        <pt x="3814" y="2453" on="0"/>
        <pt x="3809" y="2261" on="1"/>
        <pt x="3809" y="2232" on="0"/>
        <pt x="3777" y="2216" on="0"/>
        <pt x="3689" y="2216" on="0"/>
        <pt x="3658" y="2237" on="0"/>
        <pt x="3658" y="2282" on="0"/>
        <pt x="3682" y="2576" on="1"/>
        <pt x="3504" y="2601" on="0"/>
        <pt x="2626" y="2601" on="1"/>
        <pt x="2587" y="2490" on="0"/>
        <pt x="2458" y="1491" on="0"/>
        <pt x="2458" y="1462" on="0"/>
        <pt x="2459" y="1460" on="1"/>
        <pt x="2462" y="1454" on="0"/>
        <pt x="2507" y="1454" on="1"/>
        <pt x="3178" y="1454" on="1"/>
        <pt x="3350" y="1454" on="0"/>
        <pt x="3359" y="1499" on="1"/>
        <pt x="3404" y="1724" on="1"/>
        <pt x="3408" y="1753" on="0"/>
        <pt x="3547" y="1753" on="0"/>
        <pt x="3547" y="1716" on="1"/>
        <pt x="3547" y="1692" on="0"/>
        <pt x="3518" y="1554" on="1"/>
        <pt x="3427" y="1117" on="0"/>
        <pt x="3415" y="975" on="0"/>
        <pt x="3403" y="961" on="0"/>
        <pt x="3392" y="958" on="1"/>
        <pt x="3377" y="954" on="0"/>
        <pt x="3351" y="954" on="1"/>
        <pt x="3334" y="954" on="1"/>
        <pt x="3269" y="954" on="0"/>
        <pt x="3269" y="987" on="1"/>
        <pt x="3318" y="1274" on="1"/>
        <pt x="3318" y="1305" on="0"/>
        <pt x="3210" y="1319" on="0"/>
        <pt x="3125" y="1319" on="1"/>
        <pt x="2507" y="1319" on="1"/>
        <pt x="2461" y="1319" on="0"/>
        <pt x="2443" y="1311" on="0"/>
        <pt x="2426" y="1226" on="0"/>
        <pt x="2291" y="282" on="0"/>
        <pt x="2277" y="160" on="1"/>
        <pt x="2277" y="135" on="0"/>
        <pt x="2294" y="135" on="1"/>
        <pt x="3600" y="164" on="1"/>
        <pt x="3619" y="180" on="0"/>
        <pt x="3725" y="507" on="0"/>
        <pt x="3751" y="575" on="0"/>
        <pt x="3779" y="598" on="0"/>
        <pt x="3841" y="598" on="0"/>
        <pt x="3895" y="567" on="0"/>
        <pt x="3895" y="518" on="0"/>
        <pt x="3850" y="385" on="0"/>
        <pt x="3755" y="126" on="0"/>
        <pt x="3714" y="-1" on="0"/>
        <pt x="3676" y="-25" on="0"/>
        <pt x="3641" y="-25" on="1"/>
        <pt x="2154" y="-12" on="1"/>
        <pt x="1733" y="-25" on="1"/>
        <pt x="1690" y="-25" on="0"/>
        <pt x="1663" y="8" on="0"/>
        <pt x="1663" y="102" on="0"/>
        <pt x="1696" y="123" on="0"/>
        <pt x="1749" y="123" on="1"/>
        <pt x="1913" y="123" on="1"/>
        <pt x="2085" y="1221" on="1"/>
        <pt x="1274" y="1221" on="1"/>
        <pt x="1231" y="1221" on="0"/>
        <pt x="1174" y="1142" on="0"/>
        <pt x="981" y="866" on="0"/>
        <pt x="820" y="634" on="0"/>
        <pt x="724" y="492" on="1"/>
        <pt x="517" y="190" on="0"/>
        <pt x="487" y="123" on="1"/>
        <pt x="754" y="123" on="1"/>
        <pt x="789" y="123" on="0"/>
        <pt x="811" y="95" on="0"/>
        <pt x="811" y="9" on="0"/>
        <pt x="789" y="-25" on="0"/>
        <pt x="754" y="-25" on="1"/>
      </contour>
      <contour>
        <pt x="1360" y="1393" on="1"/>
        <pt x="1325" y="1343" on="0"/>
        <pt x="1380" y="1343" on="1"/>
        <pt x="2101" y="1343" on="1"/>
        <pt x="2183" y="1925" on="1"/>
        <pt x="2185" y="1942" on="0"/>
        <pt x="2210" y="2120" on="1"/>
        <pt x="2265" y="2502" on="0"/>
        <pt x="2265" y="2556" on="1"/>
        <pt x="2265" y="2586" on="0"/>
        <pt x="2228" y="2540" on="1"/>
      </contour>
    </TTGlyph>
    <TTGlyph name="Aacute" xMin="70" yMin="-25" xMax="2748" yMax="3482">
      <component glyphName="acutecomb.cap" x="2871" y="1147" flags="0x1004"/>
      <component glyphName="A" x="0" y="0" flags="0x1004"/>
    </TTGlyph>
    <TTGlyph name="Abreve" xMin="70" yMin="-25" xMax="2748" yMax="3445">
      <component glyphName="uni0306.cap" x="2871" y="1147" flags="0x1004"/>
      <component glyphName="A" x="0" y="0" flags="0x1004"/>
    </TTGlyph>
    <TTGlyph name="Acircumflex" xMin="70" yMin="-25" xMax="2748" yMax="3449">
      <component glyphName="uni0302.cap" x="2871" y="1147" flags="0x1004"/>
      <component glyphName="A" x="0" y="0" flags="0x1004"/>
    </TTGlyph>
    <TTGlyph name="Adieresis" xMin="70" yMin="-25" xMax="2748" yMax="3416">
      <component glyphName="uni0308.cap" x="2871" y="1147" flags="0x1004"/>
      <component glyphName="A" x="0" y="0" flags="0x1004"/>
    </TTGlyph>
    <TTGlyph name="Agrave" xMin="70" yMin="-25" xMax="2748" yMax="3482">
      <component glyphName="gravecomb.cap" x="2871" y="1147" flags="0x1004"/>
      <component glyphName="A" x="0" y="0" flags="0x1004"/>
    </TTGlyph>
    <TTGlyph name="Amacron" xMin="70" yMin="-25" xMax="2748" yMax="3359">
      <component glyphName="uni0304.cap" x="2871" y="1147" flags="0x1004"/>
      <component glyphName="A" x="0" y="0" flags="0x1004"/>
    </TTGlyph>
    <TTGlyph name="Aogonek" xMin="70" yMin="-1167" xMax="2748" yMax="2826">
      <contour>
        <pt x="438" y="-12" on="1"/>
        <pt x="135" y="-25" on="1"/>
        <pt x="93" y="-25" on="0"/>
        <pt x="70" y="7" on="0"/>
        <pt x="70" y="102" on="0"/>
        <pt x="103" y="123" on="0"/>
        <pt x="156" y="123" on="1"/>
        <pt x="287" y="123" on="1"/>
        <pt x="319" y="161" on="0"/>
        <pt x="604" y="652" on="1"/>
        <pt x="1515" y="2217" on="0"/>
        <pt x="1712" y="2507" on="1"/>
        <pt x="1733" y="2538" on="0"/>
        <pt x="1772" y="2576" on="1"/>
        <pt x="1871" y="2676" on="0"/>
        <pt x="1949" y="2826" on="0"/>
        <pt x="1991" y="2826" on="1"/>
        <pt x="2047" y="2826" on="0"/>
        <pt x="2067" y="2677" on="0"/>
        <pt x="2187" y="1950" on="0"/>
        <pt x="2290" y="1336" on="0"/>
        <pt x="2352" y="976" on="1"/>
        <pt x="2488" y="196" on="0"/>
        <pt x="2523" y="123" on="1"/>
        <pt x="2691" y="123" on="1"/>
        <pt x="2726" y="123" on="0"/>
        <pt x="2748" y="95" on="0"/>
        <pt x="2748" y="9" on="0"/>
        <pt x="2726" y="-25" on="0"/>
        <pt x="2691" y="-25" on="1"/>
        <pt x="2372" y="-12" on="1"/>
        <pt x="1942" y="-405" on="0"/>
        <pt x="1942" y="-725" on="1"/>
        <pt x="1942" y="-819" on="0"/>
        <pt x="2058" y="-979" on="0"/>
        <pt x="2193" y="-979" on="0"/>
        <pt x="2330" y="-923" on="0"/>
        <pt x="2376" y="-889" on="1"/>
        <pt x="2496" y="-799" on="0"/>
        <pt x="2523" y="-799" on="0"/>
        <pt x="2556" y="-854" on="0"/>
        <pt x="2556" y="-873" on="0"/>
        <pt x="2495" y="-937" on="0"/>
        <pt x="2377" y="-1026" on="0"/>
        <pt x="2305" y="-1068" on="1"/>
        <pt x="2132" y="-1167" on="0"/>
        <pt x="1946" y="-1167" on="1"/>
        <pt x="1860" y="-1167" on="0"/>
        <pt x="1788" y="-1112" on="1"/>
        <pt x="1642" y="-1001" on="0"/>
        <pt x="1642" y="-811" on="1"/>
        <pt x="1642" y="-562" on="0"/>
        <pt x="2032" y="-184" on="1"/>
        <pt x="2084" y="-133" on="0"/>
        <pt x="2197" y="-26" on="0"/>
        <pt x="2202" y="-21" on="0"/>
        <pt x="2209" y="-15" on="0"/>
        <pt x="2212" y="-12" on="1"/>
        <pt x="1864" y="-25" on="1"/>
        <pt x="1822" y="-25" on="0"/>
        <pt x="1798" y="8" on="0"/>
        <pt x="1798" y="102" on="0"/>
        <pt x="1831" y="123" on="0"/>
        <pt x="1884" y="123" on="1"/>
        <pt x="2114" y="123" on="1"/>
        <pt x="2114" y="156" on="1"/>
        <pt x="2114" y="252" on="0"/>
        <pt x="2002" y="1043" on="0"/>
        <pt x="1993" y="1120" on="0"/>
        <pt x="1981" y="1139" on="0"/>
        <pt x="1954" y="1139" on="1"/>
        <pt x="1163" y="1139" on="1"/>
        <pt x="1126" y="1139" on="0"/>
        <pt x="1102" y="1124" on="0"/>
        <pt x="1076" y="1076" on="0"/>
        <pt x="920" y="784" on="0"/>
        <pt x="819" y="593" on="0"/>
        <pt x="748" y="458" on="1"/>
        <pt x="602" y="179" on="0"/>
        <pt x="586" y="123" on="1"/>
        <pt x="856" y="123" on="1"/>
        <pt x="891" y="123" on="0"/>
        <pt x="913" y="95" on="0"/>
        <pt x="913" y="9" on="0"/>
        <pt x="891" y="-25" on="0"/>
        <pt x="856" y="-25" on="1"/>
      </contour>
      <contour>
        <pt x="1525" y="1897" on="0"/>
        <pt x="1225" y="1368" on="0"/>
        <pt x="1176" y="1280" on="0"/>
        <pt x="1176" y="1262" on="0"/>
        <pt x="1237" y="1262" on="1"/>
        <pt x="1921" y="1262" on="1"/>
        <pt x="1962" y="1262" on="0"/>
        <pt x="1962" y="1270" on="1"/>
        <pt x="1962" y="1312" on="0"/>
        <pt x="1791" y="2347" on="0"/>
        <pt x="1780" y="2347" on="0"/>
      </contour>
    </TTGlyph>
    <TTGlyph name="Aring" xMin="70" yMin="-25" xMax="2748" yMax="3490">
      <component glyphName="uni030A.cap" x="2871" y="1147" flags="0x1004"/>
      <component glyphName="A" x="0" y="0" flags="0x1004"/>
    </TTGlyph>
    <TTGlyph name="Atilde" xMin="70" yMin="-25" xMax="2748" yMax="3396">
      <component glyphName="tildecomb.cap" x="2871" y="1147" flags="0x1004"/>
      <component glyphName="A" x="0" y="0" flags="0x1004"/>
    </TTGlyph>
    <TTGlyph name="B" xMin="70" yMin="-25" xMax="2167" yMax="2736">
      <contour>
        <pt x="561" y="-12" on="1"/>
        <pt x="139" y="-25" on="1"/>
        <pt x="96" y="-25" on="0"/>
        <pt x="70" y="8" on="0"/>
        <pt x="70" y="102" on="0"/>
        <pt x="103" y="123" on="0"/>
        <pt x="156" y="123" on="1"/>
        <pt x="319" y="123" on="1"/>
        <pt x="319" y="124" on="0"/>
        <pt x="358" y="381" on="0"/>
        <pt x="417" y="770" on="0"/>
        <pt x="489" y="1258" on="0"/>
        <pt x="559" y="1755" on="0"/>
        <pt x="588" y="1974" on="1"/>
        <pt x="655" y="2468" on="0"/>
        <pt x="655" y="2572" on="1"/>
        <pt x="655" y="2593" on="1"/>
        <pt x="377" y="2593" on="1"/>
        <pt x="337" y="2593" on="0"/>
        <pt x="311" y="2617" on="0"/>
        <pt x="311" y="2736" on="0"/>
        <pt x="360" y="2736" on="1"/>
        <pt x="573" y="2730" on="1"/>
        <pt x="786" y="2724" on="0"/>
        <pt x="872" y="2724" on="1"/>
        <pt x="1323" y="2736" on="1"/>
        <pt x="1947" y="2736" on="0"/>
        <pt x="2101" y="2364" on="1"/>
        <pt x="2146" y="2255" on="0"/>
        <pt x="2146" y="2011" on="0"/>
        <pt x="2080" y="1826" on="0"/>
        <pt x="1980" y="1692" on="0"/>
        <pt x="1834" y="1572" on="0"/>
        <pt x="1704" y="1496" on="0"/>
        <pt x="1625" y="1462" on="1"/>
        <pt x="1515" y="1416" on="0"/>
        <pt x="1401" y="1384" on="1"/>
        <pt x="1617" y="1355" on="0"/>
        <pt x="1846" y="1247" on="0"/>
        <pt x="1997" y="1135" on="0"/>
        <pt x="2048" y="1066" on="1"/>
        <pt x="2167" y="907" on="0"/>
        <pt x="2167" y="676" on="1"/>
        <pt x="2167" y="-25" on="0"/>
        <pt x="971" y="-25" on="1"/>
      </contour>
      <contour>
        <pt x="692" y="226" on="0"/>
        <pt x="692" y="162" on="0"/>
        <pt x="712" y="154" on="1"/>
        <pt x="756" y="135" on="0"/>
        <pt x="1185" y="135" on="0"/>
        <pt x="1475" y="207" on="0"/>
        <pt x="1582" y="280" on="1"/>
        <pt x="1806" y="430" on="0"/>
        <pt x="1806" y="741" on="1"/>
        <pt x="1806" y="1083" on="0"/>
        <pt x="1508" y="1226" on="1"/>
        <pt x="1329" y="1311" on="0"/>
        <pt x="1073" y="1311" on="1"/>
        <pt x="946" y="1311" on="1"/>
        <pt x="913" y="1311" on="0"/>
        <pt x="879" y="1308" on="0"/>
        <pt x="856" y="1307" on="0"/>
        <pt x="851" y="1300" on="1"/>
        <pt x="838" y="1282" on="0"/>
      </contour>
      <contour>
        <pt x="967" y="1421" on="1"/>
        <pt x="1176" y="1417" on="1"/>
        <pt x="1247" y="1417" on="0"/>
        <pt x="1344" y="1460" on="0"/>
        <pt x="1464" y="1521" on="0"/>
        <pt x="1575" y="1595" on="0"/>
        <pt x="1681" y="1698" on="0"/>
        <pt x="1718" y="1756" on="1"/>
        <pt x="1798" y="1884" on="0"/>
        <pt x="1798" y="2052" on="1"/>
        <pt x="1798" y="2299" on="0"/>
        <pt x="1470" y="2597" on="0"/>
        <pt x="1192" y="2597" on="1"/>
        <pt x="1126" y="2597" on="1"/>
        <pt x="1065" y="2597" on="0"/>
        <pt x="1044" y="2578" on="1"/>
        <pt x="1006" y="2544" on="0"/>
        <pt x="864" y="1491" on="1"/>
        <pt x="860" y="1471" on="0"/>
        <pt x="860" y="1421" on="0"/>
        <pt x="901" y="1421" on="1"/>
      </contour>
    </TTGlyph>
    <TTGlyph name="C" xMin="131" yMin="-70" xMax="2679" yMax="2761">
      <contour>
        <pt x="2363" y="1806" on="1"/>
        <pt x="2458" y="2204" on="1"/>
        <pt x="2424" y="2259" on="0"/>
        <pt x="2187" y="2433" on="0"/>
        <pt x="2090" y="2488" on="1"/>
        <pt x="1858" y="2621" on="0"/>
        <pt x="1473" y="2621" on="0"/>
        <pt x="1179" y="2497" on="0"/>
        <pt x="940" y="2285" on="0"/>
        <pt x="738" y="2001" on="0"/>
        <pt x="670" y="1842" on="1"/>
        <pt x="524" y="1503" on="0"/>
        <pt x="524" y="928" on="0"/>
        <pt x="679" y="514" on="0"/>
        <pt x="812" y="378" on="1"/>
        <pt x="1091" y="94" on="0"/>
        <pt x="1503" y="94" on="1"/>
        <pt x="1819" y="94" on="0"/>
        <pt x="2096" y="268" on="1"/>
        <pt x="2232" y="352" on="0"/>
        <pt x="2245" y="397" on="1"/>
        <pt x="2272" y="475" on="0"/>
        <pt x="2344" y="733" on="0"/>
        <pt x="2347" y="741" on="1"/>
        <pt x="2368" y="816" on="0"/>
        <pt x="2458" y="786" on="1"/>
        <pt x="2535" y="769" on="0"/>
        <pt x="2535" y="701" on="0"/>
        <pt x="2400" y="250" on="1"/>
        <pt x="2376" y="173" on="0"/>
        <pt x="2074" y="55" on="1"/>
        <pt x="1755" y="-70" on="0"/>
        <pt x="1475" y="-70" on="1"/>
        <pt x="812" y="-70" on="0"/>
        <pt x="450" y="302" on="1"/>
        <pt x="131" y="629" on="0"/>
        <pt x="131" y="1192" on="1"/>
        <pt x="131" y="1851" on="0"/>
        <pt x="582" y="2312" on="1"/>
        <pt x="861" y="2597" on="0"/>
        <pt x="1243" y="2706" on="1"/>
        <pt x="1433" y="2761" on="0"/>
        <pt x="1880" y="2761" on="0"/>
        <pt x="2345" y="2566" on="0"/>
        <pt x="2490" y="2417" on="1"/>
        <pt x="2493" y="2426" on="0"/>
        <pt x="2504" y="2471" on="0"/>
        <pt x="2514" y="2509" on="0"/>
        <pt x="2520" y="2529" on="1"/>
        <pt x="2533" y="2572" on="0"/>
        <pt x="2548" y="2572" on="1"/>
        <pt x="2585" y="2572" on="0"/>
        <pt x="2679" y="2542" on="0"/>
        <pt x="2679" y="2515" on="1"/>
        <pt x="2679" y="2497" on="0"/>
        <pt x="2646" y="2334" on="1"/>
        <pt x="2595" y="2077" on="1"/>
        <pt x="2576" y="1982" on="0"/>
        <pt x="2539" y="1800" on="0"/>
        <pt x="2533" y="1768" on="0"/>
        <pt x="2522" y="1754" on="0"/>
        <pt x="2513" y="1752" on="1"/>
        <pt x="2500" y="1748" on="0"/>
        <pt x="2482" y="1748" on="1"/>
        <pt x="2470" y="1749" on="1"/>
        <pt x="2430" y="1749" on="0"/>
        <pt x="2363" y="1784" on="0"/>
      </contour>
    </TTGlyph>
    <TTGlyph name="Cacute" xMin="131" yMin="-70" xMax="2679" yMax="3482">
      <component glyphName="acutecomb.cap" x="2490" y="1147" flags="0x1004"/>
      <component glyphName="C" x="0" y="0" flags="0x1004"/>
    </TTGlyph>
    <TTGlyph name="Ccaron" xMin="131" yMin="-70" xMax="2679" yMax="3449">
      <component glyphName="uni030C.cap" x="2490" y="1147" flags="0x1004"/>
      <component glyphName="C" x="0" y="0" flags="0x1004"/>
    </TTGlyph>
    <TTGlyph name="Ccedilla" xMin="131" yMin="-901" xMax="2679" yMax="2761">
      <contour>
        <pt x="1221" y="-422" on="1"/>
        <pt x="1409" y="-70" on="1"/>
        <pt x="774" y="-52" on="0"/>
        <pt x="430" y="320" on="1"/>
        <pt x="131" y="646" on="0"/>
        <pt x="131" y="1192" on="1"/>
        <pt x="131" y="1851" on="0"/>
        <pt x="582" y="2312" on="1"/>
        <pt x="861" y="2597" on="0"/>
        <pt x="1243" y="2706" on="1"/>
        <pt x="1433" y="2761" on="0"/>
        <pt x="1880" y="2761" on="0"/>
        <pt x="2345" y="2566" on="0"/>
        <pt x="2490" y="2417" on="1"/>
        <pt x="2493" y="2426" on="0"/>
        <pt x="2504" y="2471" on="0"/>
        <pt x="2514" y="2509" on="0"/>
        <pt x="2520" y="2529" on="1"/>
        <pt x="2533" y="2572" on="0"/>
        <pt x="2548" y="2572" on="1"/>
        <pt x="2585" y="2572" on="0"/>
        <pt x="2679" y="2542" on="0"/>
        <pt x="2679" y="2515" on="1"/>
        <pt x="2679" y="2493" on="0"/>
        <pt x="2541" y="1812" on="0"/>
        <pt x="2533" y="1768" on="0"/>
        <pt x="2522" y="1754" on="0"/>
        <pt x="2512" y="1752" on="1"/>
        <pt x="2499" y="1748" on="0"/>
        <pt x="2482" y="1748" on="1"/>
        <pt x="2470" y="1749" on="1"/>
        <pt x="2430" y="1749" on="0"/>
        <pt x="2363" y="1784" on="0"/>
        <pt x="2363" y="1806" on="1"/>
        <pt x="2458" y="2204" on="1"/>
        <pt x="2424" y="2259" on="0"/>
        <pt x="2187" y="2433" on="0"/>
        <pt x="2090" y="2488" on="1"/>
        <pt x="1858" y="2621" on="0"/>
        <pt x="1473" y="2621" on="0"/>
        <pt x="1179" y="2497" on="0"/>
        <pt x="940" y="2285" on="0"/>
        <pt x="738" y="2001" on="0"/>
        <pt x="670" y="1842" on="1"/>
        <pt x="524" y="1503" on="0"/>
        <pt x="524" y="928" on="0"/>
        <pt x="679" y="514" on="0"/>
        <pt x="812" y="378" on="1"/>
        <pt x="1091" y="94" on="0"/>
        <pt x="1503" y="94" on="1"/>
        <pt x="1819" y="94" on="0"/>
        <pt x="2096" y="268" on="1"/>
        <pt x="2232" y="352" on="0"/>
        <pt x="2245" y="397" on="1"/>
        <pt x="2279" y="495" on="0"/>
        <pt x="2347" y="741" on="1"/>
        <pt x="2372" y="815" on="0"/>
        <pt x="2458" y="786" on="1"/>
        <pt x="2535" y="769" on="0"/>
        <pt x="2535" y="701" on="0"/>
        <pt x="2400" y="250" on="1"/>
        <pt x="2376" y="177" on="0"/>
        <pt x="2093" y="62" on="1"/>
        <pt x="1799" y="-58" on="0"/>
        <pt x="1516" y="-70" on="1"/>
        <pt x="1501" y="-97" on="0"/>
        <pt x="1444" y="-199" on="0"/>
        <pt x="1409" y="-263" on="0"/>
        <pt x="1405" y="-270" on="1"/>
        <pt x="1445" y="-262" on="0"/>
        <pt x="1507" y="-262" on="1"/>
        <pt x="1653" y="-262" on="0"/>
        <pt x="1835" y="-425" on="0"/>
        <pt x="1835" y="-695" on="0"/>
        <pt x="1563" y="-901" on="0"/>
        <pt x="1364" y="-901" on="1"/>
        <pt x="1170" y="-901" on="0"/>
        <pt x="1067" y="-811" on="1"/>
        <pt x="1044" y="-791" on="0"/>
        <pt x="1044" y="-778" on="1"/>
        <pt x="1044" y="-725" on="0"/>
        <pt x="1090" y="-725" on="1"/>
        <pt x="1098" y="-725" on="0"/>
        <pt x="1130" y="-740" on="1"/>
        <pt x="1222" y="-782" on="0"/>
        <pt x="1319" y="-782" on="1"/>
        <pt x="1589" y="-782" on="0"/>
        <pt x="1589" y="-594" on="1"/>
        <pt x="1589" y="-477" on="0"/>
        <pt x="1496" y="-438" on="1"/>
        <pt x="1459" y="-422" on="0"/>
        <pt x="1365" y="-422" on="0"/>
        <pt x="1265" y="-446" on="0"/>
        <pt x="1255" y="-446" on="0"/>
        <pt x="1221" y="-428" on="0"/>
      </contour>
    </TTGlyph>
    <TTGlyph name="Ccircumflex" xMin="131" yMin="-70" xMax="2679" yMax="3449">
      <component glyphName="uni0302.cap" x="2490" y="1147" flags="0x1004"/>
      <component glyphName="C" x="0" y="0" flags="0x1004"/>
    </TTGlyph>
    <TTGlyph name="Cdotaccent" xMin="131" yMin="-70" xMax="2679" yMax="3436">
      <component glyphName="uni0307.cap" x="2490" y="1147" flags="0x1004"/>
      <component glyphName="C" x="0" y="0" flags="0x1004"/>
    </TTGlyph>
    <TTGlyph name="D" xMin="66" yMin="-29" xMax="2888" yMax="2728">
      <contour>
        <pt x="520" y="-12" on="1"/>
        <pt x="123" y="-29" on="1"/>
        <pt x="86" y="-29" on="0"/>
        <pt x="66" y="0" on="0"/>
        <pt x="66" y="89" on="0"/>
        <pt x="102" y="115" on="0"/>
        <pt x="147" y="115" on="1"/>
        <pt x="315" y="115" on="1"/>
        <pt x="344" y="211" on="0"/>
        <pt x="625" y="2180" on="0"/>
        <pt x="672" y="2560" on="1"/>
        <pt x="672" y="2573" on="0"/>
        <pt x="664" y="2593" on="1"/>
        <pt x="381" y="2585" on="1"/>
        <pt x="347" y="2585" on="0"/>
        <pt x="315" y="2607" on="0"/>
        <pt x="315" y="2688" on="0"/>
        <pt x="339" y="2724" on="0"/>
        <pt x="381" y="2724" on="1"/>
        <pt x="381" y="2724" on="0"/>
        <pt x="868" y="2720" on="1"/>
        <pt x="1409" y="2728" on="1"/>
        <pt x="2232" y="2728" on="0"/>
        <pt x="2613" y="2270" on="1"/>
        <pt x="2888" y="1938" on="0"/>
        <pt x="2888" y="1372" on="1"/>
        <pt x="2888" y="580" on="0"/>
        <pt x="2269" y="200" on="1"/>
        <pt x="1897" y="-29" on="0"/>
        <pt x="1397" y="-29" on="1"/>
      </contour>
      <contour>
        <pt x="746" y="504" on="0"/>
        <pt x="713" y="226" on="0"/>
        <pt x="713" y="137" on="0"/>
        <pt x="749" y="115" on="0"/>
        <pt x="1192" y="115" on="0"/>
        <pt x="1579" y="185" on="0"/>
        <pt x="1864" y="302" on="0"/>
        <pt x="2100" y="470" on="0"/>
        <pt x="2259" y="651" on="0"/>
        <pt x="2380" y="865" on="0"/>
        <pt x="2448" y="1059" on="0"/>
        <pt x="2469" y="1163" on="1"/>
        <pt x="2503" y="1331" on="0"/>
        <pt x="2503" y="1688" on="0"/>
        <pt x="2414" y="2017" on="0"/>
        <pt x="2224" y="2291" on="0"/>
        <pt x="2083" y="2387" on="1"/>
        <pt x="1786" y="2589" on="0"/>
        <pt x="1294" y="2589" on="1"/>
        <pt x="1051" y="2589" on="0"/>
        <pt x="1049" y="2572" on="1"/>
        <pt x="1045" y="2556" on="0"/>
        <pt x="944" y="1874" on="0"/>
        <pt x="868" y="1365" on="0"/>
        <pt x="804" y="922" on="0"/>
      </contour>
    </TTGlyph>
    <TTGlyph name="Dcaron" xMin="66" yMin="-29" xMax="2888" yMax="3449">
      <component glyphName="uni030C.cap" x="2277" y="1147" flags="0x1004"/>
      <component glyphName="D" x="0" y="0" flags="0x1004"/>
    </TTGlyph>
    <TTGlyph name="Dcroat" xMin="66" yMin="-29" xMax="2888" yMax="2728">
      <component glyphName="Eth" x="0" y="0" flags="0x1004"/>
    </TTGlyph>
    <TTGlyph name="E" xMin="70" yMin="-25" xMax="2302" yMax="2839">
      <contour>
        <pt x="561" y="-12" on="1"/>
        <pt x="139" y="-25" on="1"/>
        <pt x="96" y="-25" on="0"/>
        <pt x="70" y="8" on="0"/>
        <pt x="70" y="102" on="0"/>
        <pt x="103" y="123" on="0"/>
        <pt x="156" y="123" on="1"/>
        <pt x="319" y="123" on="1"/>
        <pt x="320" y="131" on="0"/>
        <pt x="385" y="542" on="0"/>
        <pt x="453" y="983" on="0"/>
        <pt x="543" y="1588" on="0"/>
        <pt x="577" y="1832" on="1"/>
        <pt x="659" y="2422" on="0"/>
        <pt x="659" y="2564" on="1"/>
        <pt x="655" y="2593" on="1"/>
        <pt x="418" y="2593" on="1"/>
        <pt x="357" y="2593" on="0"/>
        <pt x="344" y="2640" on="0"/>
        <pt x="344" y="2666" on="1"/>
        <pt x="344" y="2736" on="0"/>
        <pt x="397" y="2736" on="1"/>
        <pt x="592" y="2730" on="1"/>
        <pt x="786" y="2724" on="0"/>
        <pt x="872" y="2724" on="1"/>
        <pt x="872" y="2724" on="0"/>
        <pt x="1729" y="2736" on="1"/>
        <pt x="2100" y="2736" on="0"/>
        <pt x="2105" y="2777" on="1"/>
        <pt x="2105" y="2839" on="0"/>
        <pt x="2171" y="2839" on="1"/>
        <pt x="2216" y="2839" on="0"/>
        <pt x="2253" y="2816" on="0"/>
        <pt x="2253" y="2761" on="0"/>
        <pt x="2221" y="2453" on="0"/>
        <pt x="2216" y="2261" on="1"/>
        <pt x="2216" y="2232" on="0"/>
        <pt x="2184" y="2216" on="0"/>
        <pt x="2096" y="2216" on="0"/>
        <pt x="2064" y="2237" on="0"/>
        <pt x="2064" y="2270" on="0"/>
        <pt x="2089" y="2576" on="1"/>
        <pt x="1911" y="2601" on="0"/>
        <pt x="1032" y="2601" on="1"/>
        <pt x="993" y="2490" on="0"/>
        <pt x="864" y="1491" on="0"/>
        <pt x="864" y="1462" on="0"/>
        <pt x="865" y="1460" on="1"/>
        <pt x="868" y="1454" on="0"/>
        <pt x="913" y="1454" on="1"/>
        <pt x="1585" y="1454" on="1"/>
        <pt x="1757" y="1454" on="0"/>
        <pt x="1765" y="1499" on="1"/>
        <pt x="1810" y="1724" on="1"/>
        <pt x="1814" y="1753" on="0"/>
        <pt x="1954" y="1753" on="0"/>
        <pt x="1954" y="1716" on="1"/>
        <pt x="1954" y="1689" on="0"/>
        <pt x="1924" y="1553" on="1"/>
        <pt x="1834" y="1131" on="0"/>
        <pt x="1821" y="972" on="0"/>
        <pt x="1810" y="964" on="1"/>
        <pt x="1795" y="954" on="0"/>
        <pt x="1757" y="954" on="1"/>
        <pt x="1741" y="954" on="1"/>
        <pt x="1675" y="954" on="0"/>
        <pt x="1675" y="987" on="1"/>
        <pt x="1724" y="1274" on="1"/>
        <pt x="1724" y="1305" on="0"/>
        <pt x="1617" y="1319" on="0"/>
        <pt x="1532" y="1319" on="1"/>
        <pt x="913" y="1319" on="1"/>
        <pt x="867" y="1319" on="0"/>
        <pt x="850" y="1311" on="0"/>
        <pt x="833" y="1226" on="0"/>
        <pt x="698" y="282" on="0"/>
        <pt x="684" y="160" on="1"/>
        <pt x="684" y="135" on="0"/>
        <pt x="700" y="135" on="1"/>
        <pt x="2007" y="164" on="1"/>
        <pt x="2024" y="179" on="0"/>
        <pt x="2131" y="507" on="0"/>
        <pt x="2157" y="575" on="0"/>
        <pt x="2186" y="598" on="0"/>
        <pt x="2248" y="598" on="0"/>
        <pt x="2302" y="567" on="0"/>
        <pt x="2302" y="518" on="0"/>
        <pt x="2257" y="385" on="0"/>
        <pt x="2162" y="126" on="0"/>
        <pt x="2121" y="-1" on="0"/>
        <pt x="2083" y="-25" on="0"/>
        <pt x="2048" y="-25" on="1"/>
      </contour>
    </TTGlyph>
    <TTGlyph name="Eacute" xMin="70" yMin="-25" xMax="2302" yMax="3482">
      <component glyphName="acutecomb.cap" x="2261" y="1147" flags="0x1004"/>
      <component glyphName="E" x="0" y="0" flags="0x1004"/>
    </TTGlyph>
    <TTGlyph name="Ebreve" xMin="70" yMin="-25" xMax="2302" yMax="3445">
      <component glyphName="uni0306.cap" x="2261" y="1147" flags="0x1004"/>
      <component glyphName="E" x="0" y="0" flags="0x1004"/>
    </TTGlyph>
    <TTGlyph name="Ecaron" xMin="70" yMin="-25" xMax="2302" yMax="3449">
      <component glyphName="uni030C.cap" x="2261" y="1147" flags="0x1004"/>
      <component glyphName="E" x="0" y="0" flags="0x1004"/>
    </TTGlyph>
    <TTGlyph name="Ecircumflex" xMin="70" yMin="-25" xMax="2302" yMax="3449">
      <component glyphName="uni0302.cap" x="2261" y="1147" flags="0x1004"/>
      <component glyphName="E" x="0" y="0" flags="0x1004"/>
    </TTGlyph>
    <TTGlyph name="Edieresis" xMin="70" yMin="-25" xMax="2302" yMax="3416">
      <component glyphName="uni0308.cap" x="2261" y="1147" flags="0x1004"/>
      <component glyphName="E" x="0" y="0" flags="0x1004"/>
    </TTGlyph>
    <TTGlyph name="Edotaccent" xMin="70" yMin="-25" xMax="2302" yMax="3436">
      <component glyphName="uni0307.cap" x="2261" y="1147" flags="0x1004"/>
      <component glyphName="E" x="0" y="0" flags="0x1004"/>
    </TTGlyph>
    <TTGlyph name="Egrave" xMin="70" yMin="-25" xMax="2302" yMax="3482">
      <component glyphName="gravecomb.cap" x="2261" y="1147" flags="0x1004"/>
      <component glyphName="E" x="0" y="0" flags="0x1004"/>
    </TTGlyph>
    <TTGlyph name="Emacron" xMin="70" yMin="-25" xMax="2302" yMax="3359">
      <component glyphName="uni0304.cap" x="2261" y="1147" flags="0x1004"/>
      <component glyphName="E" x="0" y="0" flags="0x1004"/>
    </TTGlyph>
    <TTGlyph name="Eng" xMin="70" yMin="-1057" xMax="3305" yMax="2753">
      <contour>
        <pt x="496" y="-12" on="1"/>
        <pt x="139" y="-25" on="1"/>
        <pt x="96" y="-25" on="0"/>
        <pt x="70" y="8" on="0"/>
        <pt x="70" y="102" on="0"/>
        <pt x="103" y="123" on="0"/>
        <pt x="156" y="123" on="1"/>
        <pt x="348" y="123" on="1"/>
        <pt x="438" y="677" on="0"/>
        <pt x="758" y="2447" on="0"/>
        <pt x="758" y="2519" on="0"/>
        <pt x="755" y="2528" on="0"/>
        <pt x="752" y="2534" on="0"/>
        <pt x="741" y="2552" on="0"/>
        <pt x="732" y="2572" on="1"/>
        <pt x="715" y="2605" on="0"/>
        <pt x="651" y="2605" on="1"/>
        <pt x="406" y="2605" on="1"/>
        <pt x="372" y="2605" on="0"/>
        <pt x="356" y="2630" on="0"/>
        <pt x="356" y="2707" on="0"/>
        <pt x="358" y="2721" on="1"/>
        <pt x="363" y="2753" on="0"/>
        <pt x="406" y="2753" on="1"/>
        <pt x="872" y="2740" on="1"/>
        <pt x="1057" y="2753" on="1"/>
        <pt x="1115" y="2753" on="0"/>
        <pt x="1151" y="2695" on="1"/>
        <pt x="2494" y="651" on="1"/>
        <pt x="2526" y="606" on="0"/>
        <pt x="2548" y="606" on="1"/>
        <pt x="2572" y="667" on="0"/>
        <pt x="2642" y="1104" on="1"/>
        <pt x="2834" y="2303" on="0"/>
        <pt x="2834" y="2568" on="1"/>
        <pt x="2834" y="2605" on="1"/>
        <pt x="2527" y="2605" on="1"/>
        <pt x="2492" y="2605" on="0"/>
        <pt x="2470" y="2633" on="0"/>
        <pt x="2470" y="2719" on="0"/>
        <pt x="2492" y="2753" on="0"/>
        <pt x="2527" y="2753" on="1"/>
        <pt x="2892" y="2740" on="1"/>
        <pt x="3236" y="2753" on="1"/>
        <pt x="3278" y="2753" on="0"/>
        <pt x="3305" y="2719" on="0"/>
        <pt x="3305" y="2625" on="0"/>
        <pt x="3272" y="2605" on="0"/>
        <pt x="3219" y="2605" on="1"/>
        <pt x="3056" y="2605" on="1"/>
        <pt x="2979" y="2357" on="0"/>
        <pt x="2704" y="520" on="1"/>
        <pt x="2654" y="192" on="0"/>
        <pt x="2552" y="-274" on="1"/>
        <pt x="2456" y="-706" on="0"/>
        <pt x="2195" y="-897" on="1"/>
        <pt x="1977" y="-1057" on="0"/>
        <pt x="1728" y="-1057" on="0"/>
        <pt x="1593" y="-964" on="0"/>
        <pt x="1593" y="-837" on="0"/>
        <pt x="1682" y="-745" on="0"/>
        <pt x="1801" y="-745" on="0"/>
        <pt x="1887" y="-777" on="0"/>
        <pt x="1912" y="-796" on="1"/>
        <pt x="1978" y="-848" on="0"/>
        <pt x="2072" y="-848" on="0"/>
        <pt x="2100" y="-835" on="0"/>
        <pt x="2126" y="-805" on="0"/>
        <pt x="2146" y="-773" on="0"/>
        <pt x="2168" y="-716" on="0"/>
        <pt x="2183" y="-671" on="0"/>
        <pt x="2204" y="-593" on="0"/>
        <pt x="2218" y="-538" on="0"/>
        <pt x="2241" y="-444" on="0"/>
        <pt x="2278" y="-300" on="0"/>
        <pt x="2367" y="127" on="0"/>
        <pt x="2367" y="156" on="0"/>
        <pt x="2365" y="175" on="0"/>
        <pt x="2362" y="190" on="0"/>
        <pt x="2354" y="210" on="0"/>
        <pt x="2350" y="222" on="0"/>
        <pt x="2338" y="244" on="0"/>
        <pt x="2333" y="253" on="0"/>
        <pt x="2318" y="277" on="0"/>
        <pt x="2314" y="285" on="0"/>
        <pt x="2294" y="315" on="1"/>
        <pt x="934" y="2306" on="1"/>
        <pt x="899" y="2353" on="0"/>
        <pt x="878" y="2362" on="0"/>
        <pt x="870" y="2332" on="0"/>
        <pt x="868" y="2316" on="0"/>
        <pt x="821" y="2003" on="0"/>
        <pt x="760" y="1592" on="0"/>
        <pt x="685" y="1066" on="0"/>
        <pt x="654" y="839" on="1"/>
        <pt x="582" y="299" on="0"/>
        <pt x="582" y="172" on="1"/>
        <pt x="586" y="123" on="1"/>
        <pt x="930" y="123" on="1"/>
        <pt x="965" y="123" on="0"/>
        <pt x="987" y="95" on="0"/>
        <pt x="987" y="9" on="0"/>
        <pt x="965" y="-25" on="0"/>
        <pt x="930" y="-25" on="1"/>
      </contour>
    </TTGlyph>
    <TTGlyph name="Eogonek" xMin="70" yMin="-1167" xMax="2302" yMax="2839">
      <contour>
        <pt x="561" y="-12" on="1"/>
        <pt x="139" y="-25" on="1"/>
        <pt x="96" y="-25" on="0"/>
        <pt x="70" y="8" on="0"/>
        <pt x="70" y="102" on="0"/>
        <pt x="103" y="123" on="0"/>
        <pt x="156" y="123" on="1"/>
        <pt x="319" y="123" on="1"/>
        <pt x="320" y="131" on="0"/>
        <pt x="385" y="542" on="0"/>
        <pt x="453" y="983" on="0"/>
        <pt x="543" y="1588" on="0"/>
        <pt x="577" y="1832" on="1"/>
        <pt x="659" y="2422" on="0"/>
        <pt x="659" y="2564" on="1"/>
        <pt x="655" y="2593" on="1"/>
        <pt x="418" y="2593" on="1"/>
        <pt x="357" y="2593" on="0"/>
        <pt x="344" y="2640" on="0"/>
        <pt x="344" y="2666" on="1"/>
        <pt x="344" y="2736" on="0"/>
        <pt x="397" y="2736" on="1"/>
        <pt x="592" y="2730" on="1"/>
        <pt x="786" y="2724" on="0"/>
        <pt x="872" y="2724" on="1"/>
        <pt x="872" y="2724" on="0"/>
        <pt x="1729" y="2736" on="1"/>
        <pt x="2100" y="2736" on="0"/>
        <pt x="2105" y="2777" on="1"/>
        <pt x="2105" y="2839" on="0"/>
        <pt x="2171" y="2839" on="1"/>
        <pt x="2216" y="2839" on="0"/>
        <pt x="2253" y="2816" on="0"/>
        <pt x="2253" y="2761" on="0"/>
        <pt x="2221" y="2453" on="0"/>
        <pt x="2216" y="2261" on="1"/>
        <pt x="2216" y="2232" on="0"/>
        <pt x="2184" y="2216" on="0"/>
        <pt x="2096" y="2216" on="0"/>
        <pt x="2064" y="2237" on="0"/>
        <pt x="2064" y="2270" on="0"/>
        <pt x="2089" y="2576" on="1"/>
        <pt x="1911" y="2601" on="0"/>
        <pt x="1032" y="2601" on="1"/>
        <pt x="993" y="2490" on="0"/>
        <pt x="864" y="1491" on="0"/>
        <pt x="864" y="1462" on="0"/>
        <pt x="865" y="1460" on="1"/>
        <pt x="868" y="1454" on="0"/>
        <pt x="913" y="1454" on="1"/>
        <pt x="1585" y="1454" on="1"/>
        <pt x="1757" y="1454" on="0"/>
        <pt x="1765" y="1499" on="1"/>
        <pt x="1810" y="1724" on="1"/>
        <pt x="1814" y="1753" on="0"/>
        <pt x="1954" y="1753" on="0"/>
        <pt x="1954" y="1716" on="1"/>
        <pt x="1954" y="1689" on="0"/>
        <pt x="1924" y="1553" on="1"/>
        <pt x="1834" y="1131" on="0"/>
        <pt x="1821" y="972" on="0"/>
        <pt x="1810" y="964" on="1"/>
        <pt x="1795" y="954" on="0"/>
        <pt x="1757" y="954" on="1"/>
        <pt x="1741" y="954" on="1"/>
        <pt x="1675" y="954" on="0"/>
        <pt x="1675" y="987" on="1"/>
        <pt x="1724" y="1274" on="1"/>
        <pt x="1724" y="1305" on="0"/>
        <pt x="1617" y="1319" on="0"/>
        <pt x="1532" y="1319" on="1"/>
        <pt x="913" y="1319" on="1"/>
        <pt x="867" y="1319" on="0"/>
        <pt x="850" y="1311" on="0"/>
        <pt x="833" y="1226" on="0"/>
        <pt x="698" y="282" on="0"/>
        <pt x="684" y="160" on="1"/>
        <pt x="684" y="135" on="0"/>
        <pt x="700" y="135" on="1"/>
        <pt x="2007" y="164" on="1"/>
        <pt x="2024" y="179" on="0"/>
        <pt x="2131" y="507" on="0"/>
        <pt x="2157" y="575" on="0"/>
        <pt x="2186" y="598" on="0"/>
        <pt x="2248" y="598" on="0"/>
        <pt x="2302" y="567" on="0"/>
        <pt x="2302" y="518" on="0"/>
        <pt x="2257" y="385" on="0"/>
        <pt x="2162" y="126" on="0"/>
        <pt x="2121" y="-1" on="0"/>
        <pt x="2083" y="-25" on="0"/>
        <pt x="2048" y="-25" on="1"/>
        <pt x="1798" y="-25" on="1"/>
        <pt x="1393" y="-462" on="0"/>
        <pt x="1393" y="-979" on="0"/>
        <pt x="1573" y="-979" on="1"/>
        <pt x="1698" y="-979" on="0"/>
        <pt x="1939" y="-799" on="0"/>
        <pt x="1966" y="-799" on="0"/>
        <pt x="1999" y="-854" on="0"/>
        <pt x="1999" y="-873" on="0"/>
        <pt x="1938" y="-937" on="0"/>
        <pt x="1820" y="-1026" on="0"/>
        <pt x="1748" y="-1068" on="1"/>
        <pt x="1575" y="-1167" on="0"/>
        <pt x="1258" y="-1167" on="0"/>
        <pt x="1094" y="-989" on="0"/>
        <pt x="1094" y="-840" on="1"/>
        <pt x="1094" y="-546" on="0"/>
        <pt x="1659" y="-20" on="1"/>
        <pt x="831" y="-12" on="0"/>
      </contour>
    </TTGlyph>
    <TTGlyph name="Eth" xMin="66" yMin="-29" xMax="2888" yMax="2728">
      <contour>
        <pt x="520" y="-12" on="1"/>
        <pt x="123" y="-29" on="1"/>
        <pt x="86" y="-29" on="0"/>
        <pt x="66" y="0" on="0"/>
        <pt x="66" y="89" on="0"/>
        <pt x="102" y="115" on="0"/>
        <pt x="147" y="115" on="1"/>
        <pt x="315" y="115" on="1"/>
        <pt x="350" y="219" on="0"/>
        <pt x="500" y="1266" on="1"/>
        <pt x="503" y="1293" on="0"/>
        <pt x="493" y="1303" on="0"/>
        <pt x="467" y="1303" on="1"/>
        <pt x="201" y="1303" on="1"/>
        <pt x="180" y="1303" on="0"/>
        <pt x="180" y="1356" on="1"/>
        <pt x="180" y="1380" on="1"/>
        <pt x="180" y="1425" on="0"/>
        <pt x="201" y="1425" on="1"/>
        <pt x="479" y="1425" on="1"/>
        <pt x="510" y="1425" on="0"/>
        <pt x="521" y="1434" on="0"/>
        <pt x="527" y="1487" on="0"/>
        <pt x="566" y="1766" on="1"/>
        <pt x="672" y="2536" on="0"/>
        <pt x="672" y="2589" on="1"/>
        <pt x="672" y="2593" on="1"/>
        <pt x="381" y="2585" on="1"/>
        <pt x="347" y="2585" on="0"/>
        <pt x="315" y="2607" on="0"/>
        <pt x="315" y="2688" on="0"/>
        <pt x="339" y="2724" on="0"/>
        <pt x="381" y="2724" on="1"/>
        <pt x="868" y="2720" on="1"/>
        <pt x="1409" y="2728" on="1"/>
        <pt x="2232" y="2728" on="0"/>
        <pt x="2613" y="2270" on="1"/>
        <pt x="2888" y="1938" on="0"/>
        <pt x="2888" y="1372" on="1"/>
        <pt x="2888" y="580" on="0"/>
        <pt x="2269" y="200" on="1"/>
        <pt x="1897" y="-29" on="0"/>
        <pt x="1397" y="-29" on="1"/>
      </contour>
      <contour>
        <pt x="871" y="1303" on="0"/>
        <pt x="855" y="1287" on="0"/>
        <pt x="713" y="308" on="0"/>
        <pt x="713" y="137" on="0"/>
        <pt x="749" y="115" on="0"/>
        <pt x="1192" y="115" on="0"/>
        <pt x="1579" y="185" on="0"/>
        <pt x="1864" y="302" on="0"/>
        <pt x="2100" y="470" on="0"/>
        <pt x="2259" y="651" on="0"/>
        <pt x="2380" y="865" on="0"/>
        <pt x="2448" y="1059" on="0"/>
        <pt x="2469" y="1163" on="1"/>
        <pt x="2503" y="1331" on="0"/>
        <pt x="2503" y="1688" on="0"/>
        <pt x="2414" y="2017" on="0"/>
        <pt x="2224" y="2291" on="0"/>
        <pt x="2083" y="2387" on="1"/>
        <pt x="1786" y="2589" on="0"/>
        <pt x="1294" y="2589" on="1"/>
        <pt x="1055" y="2589" on="0"/>
        <pt x="1045" y="2565" on="0"/>
        <pt x="964" y="2020" on="0"/>
        <pt x="882" y="1468" on="0"/>
        <pt x="878" y="1439" on="0"/>
        <pt x="888" y="1425" on="0"/>
        <pt x="909" y="1425" on="1"/>
        <pt x="1712" y="1425" on="1"/>
        <pt x="1729" y="1425" on="0"/>
        <pt x="1729" y="1303" on="0"/>
        <pt x="1712" y="1303" on="1"/>
        <pt x="893" y="1303" on="1"/>
      </contour>
    </TTGlyph>
    <TTGlyph name="Euro" xMin="106" yMin="-66" xMax="2335" yMax="2150">
      <contour>
        <pt x="2249" y="193" on="1"/>
        <pt x="1925" y="-66" on="0"/>
        <pt x="1540" y="-66" on="1"/>
        <pt x="1152" y="-66" on="0"/>
        <pt x="845" y="172" on="1"/>
        <pt x="559" y="395" on="0"/>
        <pt x="463" y="766" on="1"/>
        <pt x="119" y="766" on="1"/>
        <pt x="188" y="946" on="1"/>
        <pt x="434" y="946" on="1"/>
        <pt x="426" y="986" on="0"/>
        <pt x="426" y="1111" on="0"/>
        <pt x="434" y="1143" on="1"/>
        <pt x="106" y="1143" on="1"/>
        <pt x="176" y="1319" on="1"/>
        <pt x="463" y="1319" on="1"/>
        <pt x="559" y="1691" on="0"/>
        <pt x="852" y="1914" on="1"/>
        <pt x="1162" y="2150" on="0"/>
        <pt x="1516" y="2150" on="1"/>
        <pt x="1765" y="2150" on="0"/>
        <pt x="2148" y="1998" on="0"/>
        <pt x="2335" y="1823" on="1"/>
        <pt x="2298" y="1725" on="0"/>
        <pt x="2249" y="1638" on="1"/>
        <pt x="2064" y="1881" on="0"/>
        <pt x="1752" y="1954" on="1"/>
        <pt x="1646" y="1978" on="0"/>
        <pt x="1429" y="1978" on="0"/>
        <pt x="1238" y="1946" on="0"/>
        <pt x="1024" y="1856" on="0"/>
        <pt x="936" y="1785" on="1"/>
        <pt x="737" y="1623" on="0"/>
        <pt x="647" y="1319" on="1"/>
        <pt x="2114" y="1319" on="1"/>
        <pt x="2044" y="1143" on="1"/>
        <pt x="623" y="1143" on="1"/>
        <pt x="614" y="1098" on="0"/>
        <pt x="614" y="1044" on="1"/>
        <pt x="623" y="946" on="1"/>
        <pt x="1962" y="946" on="1"/>
        <pt x="1884" y="766" on="1"/>
        <pt x="651" y="766" on="1"/>
        <pt x="836" y="291" on="0"/>
        <pt x="1276" y="151" on="1"/>
        <pt x="1402" y="111" on="0"/>
        <pt x="1643" y="111" on="0"/>
        <pt x="1858" y="160" on="0"/>
        <pt x="2000" y="223" on="0"/>
        <pt x="2072" y="273" on="1"/>
        <pt x="2164" y="337" on="0"/>
        <pt x="2249" y="422" on="1"/>
      </contour>
    </TTGlyph>
    <TTGlyph name="F" xMin="70" yMin="-25" xMax="2146" yMax="2839">
      <contour>
        <pt x="561" y="-12" on="1"/>
        <pt x="131" y="-25" on="1"/>
        <pt x="90" y="-25" on="0"/>
        <pt x="70" y="6" on="0"/>
        <pt x="70" y="103" on="0"/>
        <pt x="96" y="123" on="0"/>
        <pt x="147" y="123" on="1"/>
        <pt x="319" y="123" on="1"/>
        <pt x="320" y="131" on="0"/>
        <pt x="385" y="542" on="0"/>
        <pt x="453" y="983" on="0"/>
        <pt x="543" y="1588" on="0"/>
        <pt x="577" y="1832" on="1"/>
        <pt x="659" y="2422" on="0"/>
        <pt x="659" y="2564" on="1"/>
        <pt x="655" y="2593" on="1"/>
        <pt x="434" y="2593" on="1"/>
        <pt x="376" y="2593" on="0"/>
        <pt x="344" y="2633" on="0"/>
        <pt x="344" y="2666" on="1"/>
        <pt x="344" y="2736" on="0"/>
        <pt x="406" y="2736" on="1"/>
        <pt x="596" y="2730" on="1"/>
        <pt x="786" y="2724" on="0"/>
        <pt x="872" y="2724" on="1"/>
        <pt x="1729" y="2736" on="1"/>
        <pt x="1953" y="2736" on="0"/>
        <pt x="1997" y="2751" on="0"/>
        <pt x="1998" y="2770" on="0"/>
        <pt x="1999" y="2775" on="0"/>
        <pt x="2002" y="2796" on="1"/>
        <pt x="2008" y="2839" on="0"/>
        <pt x="2117" y="2839" on="0"/>
        <pt x="2146" y="2822" on="0"/>
        <pt x="2146" y="2772" on="0"/>
        <pt x="2138" y="2703" on="1"/>
        <pt x="2116" y="2500" on="0"/>
        <pt x="2109" y="2237" on="0"/>
        <pt x="2080" y="2216" on="0"/>
        <pt x="2005" y="2216" on="0"/>
        <pt x="1975" y="2223" on="0"/>
        <pt x="1969" y="2236" on="1"/>
        <pt x="1962" y="2250" on="0"/>
        <pt x="1962" y="2331" on="0"/>
        <pt x="1982" y="2576" on="1"/>
        <pt x="1826" y="2601" on="0"/>
        <pt x="1032" y="2601" on="1"/>
        <pt x="1011" y="2531" on="0"/>
        <pt x="864" y="1491" on="0"/>
        <pt x="864" y="1458" on="0"/>
        <pt x="874" y="1454" on="0"/>
        <pt x="913" y="1454" on="1"/>
        <pt x="1552" y="1454" on="1"/>
        <pt x="1723" y="1454" on="0"/>
        <pt x="1733" y="1499" on="1"/>
        <pt x="1765" y="1675" on="1"/>
        <pt x="1768" y="1712" on="0"/>
        <pt x="1909" y="1712" on="0"/>
        <pt x="1909" y="1675" on="1"/>
        <pt x="1909" y="1649" on="0"/>
        <pt x="1861" y="1410" on="0"/>
        <pt x="1840" y="1298" on="0"/>
        <pt x="1820" y="1165" on="0"/>
        <pt x="1804" y="1043" on="0"/>
        <pt x="1802" y="1032" on="1"/>
        <pt x="1797" y="995" on="0"/>
        <pt x="1719" y="995" on="0"/>
        <pt x="1698" y="997" on="0"/>
        <pt x="1683" y="1000" on="1"/>
        <pt x="1653" y="1006" on="0"/>
        <pt x="1658" y="1054" on="0"/>
        <pt x="1677" y="1176" on="0"/>
        <pt x="1692" y="1269" on="0"/>
        <pt x="1692" y="1290" on="0"/>
        <pt x="1681" y="1299" on="1"/>
        <pt x="1657" y="1319" on="0"/>
        <pt x="1499" y="1319" on="1"/>
        <pt x="913" y="1319" on="1"/>
        <pt x="867" y="1319" on="0"/>
        <pt x="850" y="1311" on="0"/>
        <pt x="833" y="1228" on="0"/>
        <pt x="698" y="270" on="0"/>
        <pt x="684" y="147" on="1"/>
        <pt x="678" y="123" on="0"/>
        <pt x="705" y="123" on="1"/>
        <pt x="979" y="123" on="1"/>
        <pt x="1013" y="123" on="0"/>
        <pt x="1028" y="98" on="0"/>
        <pt x="1028" y="34" on="0"/>
        <pt x="1027" y="15" on="0"/>
        <pt x="1023" y="-10" on="0"/>
        <pt x="1018" y="-14" on="1"/>
        <pt x="1005" y="-25" on="0"/>
        <pt x="979" y="-25" on="1"/>
      </contour>
    </TTGlyph>
    <TTGlyph name="G" xMin="131" yMin="-119" xMax="2843" yMax="2777">
      <contour>
        <pt x="2482" y="1909" on="1"/>
        <pt x="2538" y="2192" on="0"/>
        <pt x="2552" y="2331" on="1"/>
        <pt x="2516" y="2377" on="0"/>
        <pt x="2310" y="2470" on="1"/>
        <pt x="1913" y="2650" on="0"/>
        <pt x="1540" y="2650" on="0"/>
        <pt x="1232" y="2522" on="0"/>
        <pt x="982" y="2303" on="0"/>
        <pt x="770" y="2005" on="0"/>
        <pt x="698" y="1838" on="1"/>
        <pt x="545" y="1485" on="0"/>
        <pt x="545" y="882" on="0"/>
        <pt x="695" y="468" on="0"/>
        <pt x="824" y="332" on="1"/>
        <pt x="1093" y="45" on="0"/>
        <pt x="1483" y="45" on="1"/>
        <pt x="1865" y="45" on="0"/>
        <pt x="2083" y="223" on="1"/>
        <pt x="2132" y="263" on="0"/>
        <pt x="2138" y="291" on="1"/>
        <pt x="2199" y="528" on="0"/>
        <pt x="2212" y="844" on="1"/>
        <pt x="2212" y="870" on="1"/>
        <pt x="2212" y="889" on="0"/>
        <pt x="2187" y="889" on="1"/>
        <pt x="1831" y="889" on="1"/>
        <pt x="1794" y="889" on="0"/>
        <pt x="1794" y="1036" on="0"/>
        <pt x="1835" y="1036" on="1"/>
        <pt x="2376" y="1024" on="1"/>
        <pt x="2806" y="1036" on="1"/>
        <pt x="2843" y="1036" on="0"/>
        <pt x="2843" y="989" on="1"/>
        <pt x="2843" y="946" on="1"/>
        <pt x="2843" y="889" on="0"/>
        <pt x="2806" y="889" on="1"/>
        <pt x="2572" y="889" on="1"/>
        <pt x="2556" y="838" on="0"/>
        <pt x="2503" y="336" on="0"/>
        <pt x="2497" y="276" on="0"/>
        <pt x="2353" y="174" on="0"/>
        <pt x="2100" y="57" on="0"/>
        <pt x="1948" y="4" on="1"/>
        <pt x="1595" y="-119" on="0"/>
        <pt x="1262" y="-119" on="1"/>
        <pt x="827" y="-119" on="0"/>
        <pt x="496" y="166" on="1"/>
        <pt x="131" y="480" on="0"/>
        <pt x="131" y="1090" on="1"/>
        <pt x="131" y="1537" on="0"/>
        <pt x="348" y="1932" on="1"/>
        <pt x="556" y="2311" on="0"/>
        <pt x="909" y="2542" on="1"/>
        <pt x="1269" y="2777" on="0"/>
        <pt x="2162" y="2777" on="0"/>
        <pt x="2568" y="2531" on="1"/>
        <pt x="2574" y="2549" on="0"/>
        <pt x="2582" y="2614" on="0"/>
        <pt x="2585" y="2633" on="1"/>
        <pt x="2593" y="2683" on="0"/>
        <pt x="2642" y="2683" on="1"/>
        <pt x="2749" y="2683" on="0"/>
        <pt x="2740" y="2634" on="1"/>
        <pt x="2690" y="2305" on="0"/>
        <pt x="2643" y="1896" on="0"/>
        <pt x="2638" y="1883" on="1"/>
        <pt x="2626" y="1847" on="0"/>
        <pt x="2482" y="1847" on="0"/>
      </contour>
    </TTGlyph>
    <TTGlyph name="Gbreve" xMin="131" yMin="-119" xMax="2843" yMax="3445">
      <component glyphName="uni0306.cap" x="2548" y="1147" flags="0x1004"/>
      <component glyphName="G" x="0" y="0" flags="0x1004"/>
    </TTGlyph>
    <TTGlyph name="Gcircumflex" xMin="131" yMin="-119" xMax="2843" yMax="3449">
      <component glyphName="uni0302.cap" x="2548" y="1147" flags="0x1004"/>
      <component glyphName="G" x="0" y="0" flags="0x1004"/>
    </TTGlyph>
    <TTGlyph name="Gcommaaccent" xMin="131" yMin="-926" xMax="2843" yMax="2777">
      <component glyphName="uni0326" x="2023" y="0" flags="0x1004"/>
      <component glyphName="G" x="0" y="0" flags="0x1004"/>
    </TTGlyph>
    <TTGlyph name="Gdotaccent" xMin="131" yMin="-119" xMax="2843" yMax="3436">
      <component glyphName="uni0307.cap" x="2548" y="1147" flags="0x1004"/>
      <component glyphName="G" x="0" y="0" flags="0x1004"/>
    </TTGlyph>
    <TTGlyph name="H" xMin="70" yMin="-25" xMax="3187" yMax="2753">
      <contour>
        <pt x="557" y="-12" on="1"/>
        <pt x="131" y="-25" on="1"/>
        <pt x="91" y="-25" on="0"/>
        <pt x="70" y="9" on="0"/>
        <pt x="70" y="95" on="0"/>
        <pt x="97" y="123" on="0"/>
        <pt x="147" y="123" on="1"/>
        <pt x="365" y="123" on="1"/>
        <pt x="405" y="223" on="0"/>
        <pt x="725" y="2429" on="0"/>
        <pt x="725" y="2605" on="0"/>
        <pt x="700" y="2605" on="1"/>
        <pt x="434" y="2605" on="1"/>
        <pt x="408" y="2605" on="0"/>
        <pt x="389" y="2635" on="0"/>
        <pt x="389" y="2728" on="0"/>
        <pt x="419" y="2753" on="0"/>
        <pt x="463" y="2753" on="1"/>
        <pt x="913" y="2740" on="1"/>
        <pt x="1327" y="2753" on="1"/>
        <pt x="1370" y="2753" on="0"/>
        <pt x="1397" y="2719" on="0"/>
        <pt x="1397" y="2625" on="0"/>
        <pt x="1364" y="2605" on="0"/>
        <pt x="1311" y="2605" on="1"/>
        <pt x="1110" y="2605" on="1"/>
        <pt x="1076" y="2533" on="0"/>
        <pt x="919" y="1480" on="0"/>
        <pt x="930" y="1446" on="0"/>
        <pt x="963" y="1446" on="1"/>
        <pt x="2347" y="1446" on="1"/>
        <pt x="2387" y="1446" on="0"/>
        <pt x="2392" y="1483" on="1"/>
        <pt x="2515" y="2373" on="0"/>
        <pt x="2515" y="2590" on="0"/>
        <pt x="2506" y="2605" on="0"/>
        <pt x="2490" y="2605" on="1"/>
        <pt x="2232" y="2605" on="1"/>
        <pt x="2179" y="2605" on="0"/>
        <pt x="2179" y="2727" on="0"/>
        <pt x="2215" y="2753" on="0"/>
        <pt x="2261" y="2753" on="1"/>
        <pt x="2707" y="2740" on="1"/>
        <pt x="3117" y="2753" on="1"/>
        <pt x="3160" y="2753" on="0"/>
        <pt x="3187" y="2719" on="0"/>
        <pt x="3187" y="2625" on="0"/>
        <pt x="3154" y="2605" on="0"/>
        <pt x="3101" y="2605" on="1"/>
        <pt x="2900" y="2605" on="1"/>
        <pt x="2838" y="2486" on="0"/>
        <pt x="2632" y="768" on="1"/>
        <pt x="2564" y="196" on="0"/>
        <pt x="2564" y="123" on="0"/>
        <pt x="2585" y="123" on="1"/>
        <pt x="2818" y="123" on="1"/>
        <pt x="2853" y="123" on="0"/>
        <pt x="2875" y="95" on="0"/>
        <pt x="2875" y="9" on="0"/>
        <pt x="2853" y="-25" on="0"/>
        <pt x="2818" y="-25" on="1"/>
        <pt x="2351" y="-12" on="1"/>
        <pt x="1962" y="-25" on="1"/>
        <pt x="1919" y="-25" on="0"/>
        <pt x="1892" y="8" on="0"/>
        <pt x="1892" y="102" on="0"/>
        <pt x="1925" y="123" on="0"/>
        <pt x="1978" y="123" on="1"/>
        <pt x="2187" y="123" on="1"/>
        <pt x="2197" y="154" on="0"/>
        <pt x="2218" y="284" on="0"/>
        <pt x="2234" y="382" on="0"/>
        <pt x="2256" y="533" on="0"/>
        <pt x="2275" y="659" on="0"/>
        <pt x="2302" y="854" on="0"/>
        <pt x="2322" y="993" on="0"/>
        <pt x="2353" y="1216" on="0"/>
        <pt x="2366" y="1300" on="0"/>
        <pt x="2365" y="1308" on="1"/>
        <pt x="2363" y="1323" on="0"/>
        <pt x="2331" y="1323" on="1"/>
        <pt x="946" y="1323" on="1"/>
        <pt x="911" y="1323" on="0"/>
        <pt x="895" y="1309" on="0"/>
        <pt x="889" y="1270" on="1"/>
        <pt x="758" y="312" on="0"/>
        <pt x="758" y="123" on="0"/>
        <pt x="778" y="123" on="1"/>
        <pt x="1020" y="123" on="1"/>
        <pt x="1055" y="123" on="0"/>
        <pt x="1077" y="95" on="0"/>
        <pt x="1077" y="9" on="0"/>
        <pt x="1055" y="-25" on="0"/>
        <pt x="1020" y="-25" on="1"/>
      </contour>
    </TTGlyph>
    <TTGlyph name="Hbar" xMin="70" yMin="-25" xMax="3187" yMax="2753">
      <contour>
        <pt x="557" y="-12" on="1"/>
        <pt x="131" y="-25" on="1"/>
        <pt x="91" y="-25" on="0"/>
        <pt x="70" y="9" on="0"/>
        <pt x="70" y="95" on="0"/>
        <pt x="97" y="123" on="0"/>
        <pt x="147" y="123" on="1"/>
        <pt x="365" y="123" on="1"/>
        <pt x="394" y="193" on="0"/>
        <pt x="579" y="1378" on="0"/>
        <pt x="652" y="1938" on="0"/>
        <pt x="656" y="1963" on="0"/>
        <pt x="656" y="1967" on="1"/>
        <pt x="656" y="1987" on="0"/>
        <pt x="623" y="1987" on="1"/>
        <pt x="332" y="1987" on="1"/>
        <pt x="311" y="1987" on="0"/>
        <pt x="311" y="2109" on="0"/>
        <pt x="332" y="2109" on="1"/>
        <pt x="631" y="2109" on="1"/>
        <pt x="666" y="2109" on="0"/>
        <pt x="677" y="2121" on="0"/>
        <pt x="725" y="2478" on="0"/>
        <pt x="725" y="2605" on="0"/>
        <pt x="700" y="2605" on="1"/>
        <pt x="434" y="2605" on="1"/>
        <pt x="408" y="2605" on="0"/>
        <pt x="389" y="2635" on="0"/>
        <pt x="389" y="2728" on="0"/>
        <pt x="419" y="2753" on="0"/>
        <pt x="463" y="2753" on="1"/>
        <pt x="913" y="2740" on="1"/>
        <pt x="1327" y="2753" on="1"/>
        <pt x="1370" y="2753" on="0"/>
        <pt x="1397" y="2719" on="0"/>
        <pt x="1397" y="2625" on="0"/>
        <pt x="1364" y="2605" on="0"/>
        <pt x="1311" y="2605" on="1"/>
        <pt x="1110" y="2605" on="1"/>
        <pt x="1093" y="2571" on="0"/>
        <pt x="1014" y="2123" on="0"/>
        <pt x="1026" y="2109" on="0"/>
        <pt x="1057" y="2109" on="1"/>
        <pt x="2421" y="2109" on="1"/>
        <pt x="2462" y="2109" on="0"/>
        <pt x="2475" y="2124" on="0"/>
        <pt x="2515" y="2527" on="0"/>
        <pt x="2515" y="2590" on="0"/>
        <pt x="2506" y="2605" on="0"/>
        <pt x="2490" y="2605" on="1"/>
        <pt x="2232" y="2605" on="1"/>
        <pt x="2179" y="2605" on="0"/>
        <pt x="2179" y="2727" on="0"/>
        <pt x="2215" y="2753" on="0"/>
        <pt x="2261" y="2753" on="1"/>
        <pt x="2707" y="2740" on="1"/>
        <pt x="3117" y="2753" on="1"/>
        <pt x="3160" y="2753" on="0"/>
        <pt x="3187" y="2719" on="0"/>
        <pt x="3187" y="2625" on="0"/>
        <pt x="3154" y="2605" on="0"/>
        <pt x="3101" y="2605" on="1"/>
        <pt x="2900" y="2605" on="1"/>
        <pt x="2873" y="2561" on="0"/>
        <pt x="2812" y="2129" on="0"/>
        <pt x="2825" y="2109" on="0"/>
        <pt x="2855" y="2109" on="1"/>
        <pt x="3088" y="2109" on="1"/>
        <pt x="3109" y="2109" on="0"/>
        <pt x="3109" y="1987" on="0"/>
        <pt x="3088" y="1987" on="1"/>
        <pt x="2830" y="1987" on="1"/>
        <pt x="2803" y="1987" on="0"/>
        <pt x="2788" y="1971" on="0"/>
        <pt x="2740" y="1615" on="0"/>
        <pt x="2686" y="1184" on="1"/>
        <pt x="2564" y="212" on="0"/>
        <pt x="2564" y="123" on="0"/>
        <pt x="2585" y="123" on="1"/>
        <pt x="2818" y="123" on="1"/>
        <pt x="2853" y="123" on="0"/>
        <pt x="2875" y="95" on="0"/>
        <pt x="2875" y="9" on="0"/>
        <pt x="2853" y="-25" on="0"/>
        <pt x="2818" y="-25" on="1"/>
        <pt x="2351" y="-12" on="1"/>
        <pt x="1962" y="-25" on="1"/>
        <pt x="1919" y="-25" on="0"/>
        <pt x="1892" y="8" on="0"/>
        <pt x="1892" y="102" on="0"/>
        <pt x="1925" y="123" on="0"/>
        <pt x="1978" y="123" on="1"/>
        <pt x="2187" y="123" on="1"/>
        <pt x="2197" y="154" on="0"/>
        <pt x="2218" y="284" on="0"/>
        <pt x="2234" y="382" on="0"/>
        <pt x="2256" y="533" on="0"/>
        <pt x="2275" y="659" on="0"/>
        <pt x="2302" y="854" on="0"/>
        <pt x="2322" y="993" on="0"/>
        <pt x="2353" y="1216" on="0"/>
        <pt x="2366" y="1300" on="0"/>
        <pt x="2365" y="1308" on="1"/>
        <pt x="2363" y="1323" on="0"/>
        <pt x="2331" y="1323" on="1"/>
        <pt x="946" y="1323" on="1"/>
        <pt x="911" y="1323" on="0"/>
        <pt x="895" y="1309" on="0"/>
        <pt x="889" y="1270" on="1"/>
        <pt x="758" y="312" on="0"/>
        <pt x="758" y="123" on="0"/>
        <pt x="778" y="123" on="1"/>
        <pt x="1020" y="123" on="1"/>
        <pt x="1055" y="123" on="0"/>
        <pt x="1077" y="95" on="0"/>
        <pt x="1077" y="9" on="0"/>
        <pt x="1055" y="-25" on="0"/>
        <pt x="1020" y="-25" on="1"/>
      </contour>
      <contour>
        <pt x="926" y="1511" on="1"/>
        <pt x="919" y="1480" on="0"/>
        <pt x="930" y="1446" on="0"/>
        <pt x="963" y="1446" on="1"/>
        <pt x="2347" y="1446" on="1"/>
        <pt x="2387" y="1446" on="0"/>
        <pt x="2392" y="1483" on="1"/>
        <pt x="2446" y="1913" on="0"/>
        <pt x="2454" y="1964" on="0"/>
        <pt x="2447" y="1987" on="0"/>
        <pt x="2425" y="1987" on="1"/>
        <pt x="1040" y="1987" on="1"/>
        <pt x="1004" y="1987" on="0"/>
        <pt x="994" y="1978" on="0"/>
        <pt x="991" y="1946" on="1"/>
      </contour>
    </TTGlyph>
    <TTGlyph name="Hcircumflex" xMin="70" yMin="-25" xMax="3187" yMax="3449">
      <component glyphName="uni0302.cap" x="2679" y="1147" flags="0x1004"/>
      <component glyphName="H" x="0" y="0" flags="0x1004"/>
    </TTGlyph>
    <TTGlyph name="I" xMin="70" yMin="-25" xMax="1475" yMax="2753">
      <contour>
        <pt x="602" y="-12" on="1"/>
        <pt x="139" y="-25" on="1"/>
        <pt x="96" y="-25" on="0"/>
        <pt x="70" y="8" on="0"/>
        <pt x="70" y="102" on="0"/>
        <pt x="103" y="123" on="0"/>
        <pt x="156" y="123" on="1"/>
        <pt x="393" y="123" on="1"/>
        <pt x="430" y="235" on="0"/>
        <pt x="754" y="2406" on="0"/>
        <pt x="754" y="2605" on="0"/>
        <pt x="729" y="2605" on="1"/>
        <pt x="455" y="2605" on="1"/>
        <pt x="397" y="2605" on="0"/>
        <pt x="397" y="2727" on="0"/>
        <pt x="433" y="2753" on="0"/>
        <pt x="479" y="2753" on="1"/>
        <pt x="479" y="2753" on="0"/>
        <pt x="958" y="2740" on="1"/>
        <pt x="1405" y="2753" on="1"/>
        <pt x="1448" y="2753" on="0"/>
        <pt x="1475" y="2719" on="0"/>
        <pt x="1475" y="2625" on="0"/>
        <pt x="1442" y="2605" on="0"/>
        <pt x="1389" y="2605" on="1"/>
        <pt x="1159" y="2605" on="1"/>
        <pt x="1115" y="2510" on="0"/>
        <pt x="807" y="347" on="0"/>
        <pt x="807" y="164" on="1"/>
        <pt x="807" y="123" on="0"/>
        <pt x="827" y="123" on="1"/>
        <pt x="1098" y="123" on="1"/>
        <pt x="1133" y="123" on="0"/>
        <pt x="1155" y="95" on="0"/>
        <pt x="1155" y="9" on="0"/>
        <pt x="1133" y="-25" on="0"/>
        <pt x="1098" y="-25" on="1"/>
      </contour>
    </TTGlyph>
    <TTGlyph name="IJ" xMin="70" yMin="-881" xMax="2703" yMax="2753">
      <component glyphName="J" x="1278" y="0" flags="0x1004"/>
      <component glyphName="I" x="0" y="0" flags="0x1004"/>
    </TTGlyph>
    <TTGlyph name="Iacute" xMin="70" yMin="-25" xMax="1503" yMax="3482">
      <component glyphName="acutecomb.cap" x="1843" y="1147" flags="0x1004"/>
      <component glyphName="I" x="0" y="0" flags="0x1004"/>
    </TTGlyph>
    <TTGlyph name="Ibreve" xMin="70" yMin="-25" xMax="1475" yMax="3445">
      <component glyphName="uni0306.cap" x="1843" y="1147" flags="0x1004"/>
      <component glyphName="I" x="0" y="0" flags="0x1004"/>
    </TTGlyph>
    <TTGlyph name="Icircumflex" xMin="70" yMin="-25" xMax="1475" yMax="3449">
      <component glyphName="uni0302.cap" x="1843" y="1147" flags="0x1004"/>
      <component glyphName="I" x="0" y="0" flags="0x1004"/>
    </TTGlyph>
    <TTGlyph name="Idieresis" xMin="70" yMin="-25" xMax="1503" yMax="3416">
      <component glyphName="uni0308.cap" x="1843" y="1147" flags="0x1004"/>
      <component glyphName="I" x="0" y="0" flags="0x1004"/>
    </TTGlyph>
    <TTGlyph name="Idotaccent" xMin="70" yMin="-25" xMax="1475" yMax="3436">
      <component glyphName="uni0307.cap" x="1843" y="1147" flags="0x1004"/>
      <component glyphName="I" x="0" y="0" flags="0x1004"/>
    </TTGlyph>
    <TTGlyph name="Igrave" xMin="70" yMin="-25" xMax="1475" yMax="3482">
      <component glyphName="gravecomb.cap" x="1843" y="1147" flags="0x1004"/>
      <component glyphName="I" x="0" y="0" flags="0x1004"/>
    </TTGlyph>
    <TTGlyph name="Imacron" xMin="70" yMin="-25" xMax="1475" yMax="3359">
      <component glyphName="uni0304.cap" x="1843" y="1147" flags="0x1004"/>
      <component glyphName="I" x="0" y="0" flags="0x1004"/>
    </TTGlyph>
    <TTGlyph name="Iogonek" xMin="29" yMin="-1167" xMax="1475" yMax="2753">
      <contour>
        <pt x="328" y="-741" on="1"/>
        <pt x="328" y="-979" on="0"/>
        <pt x="508" y="-979" on="1"/>
        <pt x="633" y="-979" on="0"/>
        <pt x="874" y="-799" on="0"/>
        <pt x="901" y="-799" on="0"/>
        <pt x="934" y="-854" on="0"/>
        <pt x="934" y="-873" on="0"/>
        <pt x="873" y="-937" on="0"/>
        <pt x="755" y="-1026" on="0"/>
        <pt x="683" y="-1068" on="1"/>
        <pt x="510" y="-1167" on="0"/>
        <pt x="193" y="-1167" on="0"/>
        <pt x="29" y="-989" on="0"/>
        <pt x="29" y="-840" on="1"/>
        <pt x="29" y="-569" on="0"/>
        <pt x="520" y="-12" on="1"/>
        <pt x="139" y="-25" on="1"/>
        <pt x="96" y="-25" on="0"/>
        <pt x="70" y="8" on="0"/>
        <pt x="70" y="102" on="0"/>
        <pt x="103" y="123" on="0"/>
        <pt x="156" y="123" on="1"/>
        <pt x="393" y="123" on="1"/>
        <pt x="430" y="235" on="0"/>
        <pt x="754" y="2406" on="0"/>
        <pt x="754" y="2605" on="0"/>
        <pt x="729" y="2605" on="1"/>
        <pt x="455" y="2605" on="1"/>
        <pt x="397" y="2605" on="0"/>
        <pt x="397" y="2727" on="0"/>
        <pt x="433" y="2753" on="0"/>
        <pt x="479" y="2753" on="1"/>
        <pt x="958" y="2740" on="1"/>
        <pt x="1405" y="2753" on="1"/>
        <pt x="1448" y="2753" on="0"/>
        <pt x="1475" y="2719" on="0"/>
        <pt x="1475" y="2625" on="0"/>
        <pt x="1442" y="2605" on="0"/>
        <pt x="1389" y="2605" on="1"/>
        <pt x="1159" y="2605" on="1"/>
        <pt x="1115" y="2510" on="0"/>
        <pt x="807" y="347" on="0"/>
        <pt x="807" y="164" on="1"/>
        <pt x="807" y="123" on="0"/>
        <pt x="827" y="123" on="1"/>
        <pt x="1098" y="123" on="1"/>
        <pt x="1133" y="123" on="0"/>
        <pt x="1155" y="95" on="0"/>
        <pt x="1155" y="9" on="0"/>
        <pt x="1133" y="-25" on="0"/>
        <pt x="1090" y="-25" on="0"/>
        <pt x="651" y="-12" on="1"/>
        <pt x="403" y="-329" on="0"/>
        <pt x="350" y="-548" on="1"/>
        <pt x="328" y="-642" on="0"/>
      </contour>
    </TTGlyph>
    <TTGlyph name="Itilde" xMin="70" yMin="-25" xMax="1475" yMax="3396">
      <component glyphName="tildecomb.cap" x="1843" y="1147" flags="0x1004"/>
      <component glyphName="I" x="0" y="0" flags="0x1004"/>
    </TTGlyph>
    <TTGlyph name="J" xMin="-250" yMin="-881" xMax="1425" yMax="2753">
      <contour>
        <pt x="950" y="2740" on="1"/>
        <pt x="1356" y="2753" on="1"/>
        <pt x="1398" y="2753" on="0"/>
        <pt x="1425" y="2719" on="0"/>
        <pt x="1425" y="2625" on="0"/>
        <pt x="1392" y="2605" on="0"/>
        <pt x="1339" y="2605" on="1"/>
        <pt x="1139" y="2605" on="1"/>
        <pt x="1100" y="2523" on="0"/>
        <pt x="1010" y="1827" on="1"/>
        <pt x="860" y="670" on="0"/>
        <pt x="840" y="504" on="0"/>
        <pt x="821" y="362" on="0"/>
        <pt x="807" y="271" on="0"/>
        <pt x="779" y="101" on="0"/>
        <pt x="750" y="-10" on="0"/>
        <pt x="706" y="-168" on="0"/>
        <pt x="651" y="-291" on="0"/>
        <pt x="616" y="-360" on="1"/>
        <pt x="511" y="-569" on="0"/>
        <pt x="280" y="-762" on="1"/>
        <pt x="137" y="-881" on="0"/>
        <pt x="-20" y="-881" on="1"/>
        <pt x="-137" y="-881" on="0"/>
        <pt x="-250" y="-805" on="0"/>
        <pt x="-250" y="-716" on="0"/>
        <pt x="-170" y="-608" on="0"/>
        <pt x="-118" y="-574" on="1"/>
        <pt x="-3" y="-496" on="0"/>
        <pt x="74" y="-496" on="0"/>
        <pt x="210" y="-582" on="0"/>
        <pt x="250" y="-582" on="1"/>
        <pt x="348" y="-582" on="0"/>
        <pt x="392" y="-359" on="1"/>
        <pt x="409" y="-272" on="0"/>
        <pt x="432" y="-39" on="0"/>
        <pt x="478" y="415" on="0"/>
        <pt x="640" y="1678" on="0"/>
        <pt x="754" y="2521" on="0"/>
        <pt x="754" y="2571" on="0"/>
        <pt x="753" y="2581" on="1"/>
        <pt x="751" y="2605" on="0"/>
        <pt x="725" y="2605" on="1"/>
        <pt x="438" y="2605" on="1"/>
        <pt x="394" y="2605" on="0"/>
        <pt x="352" y="2631" on="0"/>
        <pt x="352" y="2727" on="0"/>
        <pt x="392" y="2753" on="0"/>
        <pt x="438" y="2753" on="1"/>
      </contour>
    </TTGlyph>
    <TTGlyph name="Jcircumflex" xMin="-250" yMin="-881" xMax="1425" yMax="3449">
      <component glyphName="uni0302.cap" x="1790" y="1147" flags="0x1004"/>
      <component glyphName="J" x="0" y="0" flags="0x1004"/>
    </TTGlyph>
    <TTGlyph name="K" xMin="70" yMin="-25" xMax="2617" yMax="2753">
      <contour>
        <pt x="475" y="-12" on="1"/>
        <pt x="131" y="-25" on="1"/>
        <pt x="91" y="-25" on="0"/>
        <pt x="70" y="9" on="0"/>
        <pt x="70" y="94" on="0"/>
        <pt x="104" y="123" on="0"/>
        <pt x="156" y="123" on="1"/>
        <pt x="283" y="123" on="1"/>
        <pt x="323" y="224" on="0"/>
        <pt x="664" y="2432" on="0"/>
        <pt x="664" y="2605" on="0"/>
        <pt x="639" y="2605" on="1"/>
        <pt x="406" y="2605" on="1"/>
        <pt x="344" y="2605" on="0"/>
        <pt x="344" y="2679" on="1"/>
        <pt x="344" y="2727" on="0"/>
        <pt x="387" y="2753" on="0"/>
        <pt x="434" y="2753" on="1"/>
        <pt x="852" y="2740" on="1"/>
        <pt x="852" y="2740" on="0"/>
        <pt x="1233" y="2753" on="1"/>
        <pt x="1274" y="2753" on="0"/>
        <pt x="1294" y="2721" on="0"/>
        <pt x="1294" y="2624" on="0"/>
        <pt x="1268" y="2605" on="0"/>
        <pt x="1217" y="2605" on="1"/>
        <pt x="1065" y="2605" on="1"/>
        <pt x="1011" y="2557" on="0"/>
        <pt x="885" y="1770" on="1"/>
        <pt x="843" y="1508" on="0"/>
        <pt x="834" y="1397" on="0"/>
        <pt x="881" y="1397" on="1"/>
        <pt x="1081" y="1397" on="1"/>
        <pt x="1111" y="1397" on="0"/>
        <pt x="1807" y="2287" on="0"/>
        <pt x="2023" y="2590" on="0"/>
        <pt x="2023" y="2605" on="0"/>
        <pt x="1978" y="2605" on="1"/>
        <pt x="1884" y="2605" on="1"/>
        <pt x="1840" y="2605" on="0"/>
        <pt x="1802" y="2631" on="0"/>
        <pt x="1802" y="2727" on="0"/>
        <pt x="1836" y="2753" on="0"/>
        <pt x="1876" y="2753" on="1"/>
        <pt x="2175" y="2740" on="1"/>
        <pt x="2503" y="2753" on="1"/>
        <pt x="2545" y="2753" on="0"/>
        <pt x="2572" y="2719" on="0"/>
        <pt x="2572" y="2625" on="0"/>
        <pt x="2539" y="2605" on="0"/>
        <pt x="2486" y="2605" on="1"/>
        <pt x="2257" y="2605" on="1"/>
        <pt x="1948" y="2191" on="0"/>
        <pt x="1364" y="1540" on="1"/>
        <pt x="1303" y="1471" on="0"/>
        <pt x="1303" y="1458" on="0"/>
        <pt x="1430" y="1341" on="0"/>
        <pt x="1694" y="1026" on="0"/>
        <pt x="1891" y="762" on="0"/>
        <pt x="2229" y="296" on="0"/>
        <pt x="2280" y="227" on="1"/>
        <pt x="2357" y="123" on="0"/>
        <pt x="2445" y="123" on="1"/>
        <pt x="2568" y="123" on="1"/>
        <pt x="2602" y="123" on="0"/>
        <pt x="2617" y="98" on="0"/>
        <pt x="2617" y="34" on="0"/>
        <pt x="2616" y="15" on="0"/>
        <pt x="2612" y="-10" on="0"/>
        <pt x="2606" y="-14" on="1"/>
        <pt x="2594" y="-25" on="0"/>
        <pt x="2568" y="-25" on="1"/>
        <pt x="2093" y="-12" on="1"/>
        <pt x="1765" y="-25" on="1"/>
        <pt x="1724" y="-25" on="0"/>
        <pt x="1704" y="6" on="0"/>
        <pt x="1704" y="102" on="0"/>
        <pt x="1737" y="123" on="0"/>
        <pt x="1790" y="123" on="1"/>
        <pt x="1823" y="123" on="1"/>
        <pt x="1892" y="123" on="0"/>
        <pt x="1892" y="154" on="0"/>
        <pt x="1847" y="213" on="1"/>
        <pt x="1075" y="1298" on="0"/>
        <pt x="1049" y="1298" on="1"/>
        <pt x="848" y="1298" on="1"/>
        <pt x="816" y="1298" on="0"/>
        <pt x="811" y="1270" on="1"/>
        <pt x="792" y="1132" on="0"/>
        <pt x="750" y="854" on="1"/>
        <pt x="659" y="243" on="0"/>
        <pt x="659" y="156" on="1"/>
        <pt x="664" y="123" on="1"/>
        <pt x="938" y="123" on="1"/>
        <pt x="973" y="123" on="0"/>
        <pt x="995" y="95" on="0"/>
        <pt x="995" y="9" on="0"/>
        <pt x="973" y="-25" on="0"/>
        <pt x="938" y="-25" on="1"/>
      </contour>
    </TTGlyph>
    <TTGlyph name="Kcommaaccent" xMin="70" yMin="-926" xMax="2617" yMax="2753">
      <component glyphName="uni0326" x="2081" y="0" flags="0x1004"/>
      <component glyphName="K" x="0" y="0" flags="0x1004"/>
    </TTGlyph>
    <TTGlyph name="L" xMin="70" yMin="-25" xMax="2331" yMax="2753">
      <contour>
        <pt x="545" y="-12" on="1"/>
        <pt x="135" y="-25" on="1"/>
        <pt x="93" y="-25" on="0"/>
        <pt x="70" y="7" on="0"/>
        <pt x="70" y="100" on="0"/>
        <pt x="102" y="123" on="0"/>
        <pt x="152" y="123" on="1"/>
        <pt x="356" y="123" on="1"/>
        <pt x="382" y="274" on="0"/>
        <pt x="668" y="2480" on="0"/>
        <pt x="668" y="2564" on="1"/>
        <pt x="668" y="2605" on="1"/>
        <pt x="426" y="2605" on="1"/>
        <pt x="383" y="2605" on="0"/>
        <pt x="356" y="2633" on="0"/>
        <pt x="356" y="2728" on="0"/>
        <pt x="384" y="2753" on="0"/>
        <pt x="434" y="2753" on="1"/>
        <pt x="852" y="2740" on="1"/>
        <pt x="852" y="2740" on="0"/>
        <pt x="1303" y="2753" on="1"/>
        <pt x="1355" y="2753" on="0"/>
        <pt x="1384" y="2725" on="0"/>
        <pt x="1384" y="2638" on="0"/>
        <pt x="1349" y="2605" on="0"/>
        <pt x="1298" y="2605" on="1"/>
        <pt x="1057" y="2605" on="1"/>
        <pt x="1032" y="2430" on="0"/>
        <pt x="741" y="250" on="0"/>
        <pt x="741" y="175" on="0"/>
        <pt x="771" y="139" on="0"/>
        <pt x="1018" y="139" on="0"/>
        <pt x="1300" y="144" on="1"/>
        <pt x="2029" y="159" on="0"/>
        <pt x="2051" y="184" on="0"/>
        <pt x="2073" y="250" on="1"/>
        <pt x="2179" y="573" on="1"/>
        <pt x="2193" y="615" on="0"/>
        <pt x="2232" y="610" on="1"/>
        <pt x="2331" y="599" on="0"/>
        <pt x="2331" y="553" on="1"/>
        <pt x="2331" y="547" on="0"/>
        <pt x="2310" y="480" on="1"/>
        <pt x="2229" y="225" on="0"/>
        <pt x="2166" y="-3" on="0"/>
        <pt x="2134" y="-25" on="0"/>
        <pt x="2101" y="-25" on="1"/>
      </contour>
    </TTGlyph>
    <TTGlyph name="L.CAT" xMin="70" yMin="-25" xMax="2331" yMax="2753">
      <component glyphName="L" x="0" y="0" flags="0x1004"/>
    </TTGlyph>
    <TTGlyph name="Lacute" xMin="70" yMin="-25" xMax="2331" yMax="3482">
      <component glyphName="acutecomb.cap" x="1733" y="1147" flags="0x1004"/>
      <component glyphName="L" x="0" y="0" flags="0x1004"/>
    </TTGlyph>
    <TTGlyph name="Lcaron" xMin="70" yMin="-25" xMax="2331" yMax="2753">
      <component glyphName="uni0315" x="1556" y="0" flags="0x1004"/>
      <component glyphName="L" x="0" y="0" flags="0x1004"/>
    </TTGlyph>
    <TTGlyph name="Lcommaaccent" xMin="70" yMin="-926" xMax="2331" yMax="2753">
      <component glyphName="uni0326" x="2028" y="0" flags="0x1004"/>
      <component glyphName="L" x="0" y="0" flags="0x1004"/>
    </TTGlyph>
    <TTGlyph name="Ldot" xMin="70" yMin="-25" xMax="2331" yMax="2753">
      <component glyphName="Ldot.ref1" x="0" y="0" flags="0x1004"/>
      <component glyphName="L" x="0" y="0" flags="0x1004"/>
    </TTGlyph>
    <TTGlyph name="Ldot.ref1" xMin="1741" yMin="1184" xMax="2114" yMax="1593">
      <contour>
        <pt x="1782" y="1252" on="0"/>
        <pt x="1741" y="1345" on="0"/>
        <pt x="1741" y="1479" on="0"/>
        <pt x="1837" y="1593" on="0"/>
        <pt x="1981" y="1593" on="0"/>
        <pt x="2027" y="1559" on="1"/>
        <pt x="2114" y="1495" on="0"/>
        <pt x="2114" y="1299" on="0"/>
        <pt x="2012" y="1184" on="0"/>
        <pt x="1873" y="1184" on="0"/>
      </contour>
    </TTGlyph>
    <TTGlyph name="Lslash" xMin="70" yMin="-25" xMax="2331" yMax="2753">
      <contour>
        <pt x="545" y="-12" on="1"/>
        <pt x="135" y="-25" on="1"/>
        <pt x="93" y="-25" on="0"/>
        <pt x="70" y="7" on="0"/>
        <pt x="70" y="100" on="0"/>
        <pt x="102" y="123" on="0"/>
        <pt x="152" y="123" on="1"/>
        <pt x="352" y="123" on="1"/>
        <pt x="359" y="123" on="0"/>
        <pt x="458" y="881" on="0"/>
        <pt x="447" y="889" on="0"/>
        <pt x="387" y="861" on="0"/>
        <pt x="319" y="828" on="1"/>
        <pt x="171" y="758" on="0"/>
        <pt x="147" y="758" on="0"/>
        <pt x="147" y="882" on="0"/>
        <pt x="160" y="889" on="1"/>
        <pt x="434" y="1016" on="1"/>
        <pt x="460" y="1029" on="0"/>
        <pt x="469" y="1038" on="0"/>
        <pt x="474" y="1042" on="0"/>
        <pt x="478" y="1051" on="0"/>
        <pt x="480" y="1055" on="0"/>
        <pt x="483" y="1069" on="0"/>
        <pt x="484" y="1074" on="0"/>
        <pt x="486" y="1093" on="0"/>
        <pt x="668" y="2468" on="0"/>
        <pt x="668" y="2564" on="1"/>
        <pt x="668" y="2605" on="1"/>
        <pt x="426" y="2605" on="1"/>
        <pt x="383" y="2605" on="0"/>
        <pt x="356" y="2633" on="0"/>
        <pt x="356" y="2728" on="0"/>
        <pt x="384" y="2753" on="0"/>
        <pt x="434" y="2753" on="1"/>
        <pt x="852" y="2740" on="1"/>
        <pt x="1303" y="2753" on="1"/>
        <pt x="1355" y="2753" on="0"/>
        <pt x="1384" y="2725" on="0"/>
        <pt x="1384" y="2638" on="0"/>
        <pt x="1349" y="2605" on="0"/>
        <pt x="1298" y="2605" on="1"/>
        <pt x="1057" y="2605" on="1"/>
        <pt x="1056" y="2605" on="0"/>
        <pt x="875" y="1233" on="0"/>
        <pt x="885" y="1225" on="0"/>
        <pt x="1036" y="1294" on="0"/>
        <pt x="1338" y="1436" on="1"/>
        <pt x="2023" y="1757" on="0"/>
        <pt x="2044" y="1757" on="0"/>
        <pt x="2044" y="1728" on="1"/>
        <pt x="2044" y="1631" on="0"/>
        <pt x="2003" y="1610" on="1"/>
        <pt x="893" y="1094" on="1"/>
        <pt x="853" y="1072" on="0"/>
        <pt x="844" y="1020" on="1"/>
        <pt x="741" y="243" on="0"/>
        <pt x="741" y="209" on="1"/>
        <pt x="741" y="139" on="0"/>
        <pt x="815" y="139" on="1"/>
        <pt x="1231" y="139" on="0"/>
        <pt x="1967" y="162" on="0"/>
        <pt x="2036" y="167" on="0"/>
        <pt x="2051" y="184" on="0"/>
        <pt x="2073" y="250" on="1"/>
        <pt x="2179" y="573" on="1"/>
        <pt x="2193" y="615" on="0"/>
        <pt x="2232" y="610" on="1"/>
        <pt x="2331" y="599" on="0"/>
        <pt x="2331" y="553" on="1"/>
        <pt x="2331" y="547" on="0"/>
        <pt x="2310" y="480" on="1"/>
        <pt x="2229" y="225" on="0"/>
        <pt x="2166" y="-3" on="0"/>
        <pt x="2134" y="-25" on="0"/>
        <pt x="2101" y="-25" on="1"/>
      </contour>
    </TTGlyph>
    <TTGlyph name="M" xMin="70" yMin="-25" xMax="3547" yMax="2753">
      <contour>
        <pt x="434" y="-12" on="1"/>
        <pt x="139" y="-25" on="1"/>
        <pt x="96" y="-25" on="0"/>
        <pt x="70" y="8" on="0"/>
        <pt x="70" y="102" on="0"/>
        <pt x="103" y="123" on="0"/>
        <pt x="156" y="123" on="1"/>
        <pt x="344" y="123" on="1"/>
        <pt x="390" y="336" on="0"/>
        <pt x="533" y="976" on="1"/>
        <pt x="885" y="2551" on="0"/>
        <pt x="885" y="2585" on="1"/>
        <pt x="885" y="2605" on="0"/>
        <pt x="795" y="2605" on="1"/>
        <pt x="606" y="2605" on="1"/>
        <pt x="571" y="2605" on="0"/>
        <pt x="549" y="2633" on="0"/>
        <pt x="549" y="2719" on="0"/>
        <pt x="571" y="2753" on="0"/>
        <pt x="606" y="2753" on="1"/>
        <pt x="1036" y="2740" on="1"/>
        <pt x="1229" y="2753" on="1"/>
        <pt x="1292" y="2753" on="0"/>
        <pt x="1320" y="2709" on="0"/>
        <pt x="1323" y="2691" on="1"/>
        <pt x="1737" y="606" on="1"/>
        <pt x="1754" y="532" on="0"/>
        <pt x="1786" y="532" on="0"/>
        <pt x="1837" y="644" on="0"/>
        <pt x="2077" y="1144" on="0"/>
        <pt x="2139" y="1272" on="0"/>
        <pt x="2342" y="1691" on="0"/>
        <pt x="2445" y="1895" on="0"/>
        <pt x="2532" y="2068" on="1"/>
        <pt x="2848" y="2694" on="0"/>
        <pt x="2891" y="2726" on="1"/>
        <pt x="2911" y="2740" on="0"/>
        <pt x="2949" y="2740" on="1"/>
        <pt x="3129" y="2740" on="1"/>
        <pt x="3478" y="2753" on="1"/>
        <pt x="3520" y="2753" on="0"/>
        <pt x="3547" y="2719" on="0"/>
        <pt x="3547" y="2625" on="0"/>
        <pt x="3514" y="2605" on="0"/>
        <pt x="3461" y="2605" on="1"/>
        <pt x="3285" y="2605" on="1"/>
        <pt x="3242" y="2241" on="0"/>
        <pt x="3028" y="287" on="0"/>
        <pt x="3023" y="123" on="1"/>
        <pt x="3326" y="123" on="1"/>
        <pt x="3363" y="123" on="0"/>
        <pt x="3391" y="96" on="0"/>
        <pt x="3391" y="9" on="0"/>
        <pt x="3369" y="-25" on="0"/>
        <pt x="3334" y="-25" on="1"/>
        <pt x="2834" y="-12" on="1"/>
        <pt x="2441" y="-25" on="1"/>
        <pt x="2398" y="-25" on="0"/>
        <pt x="2372" y="8" on="0"/>
        <pt x="2372" y="102" on="0"/>
        <pt x="2405" y="123" on="0"/>
        <pt x="2458" y="123" on="1"/>
        <pt x="2613" y="123" on="1"/>
        <pt x="2668" y="194" on="0"/>
        <pt x="2753" y="938" on="1"/>
        <pt x="2875" y="1991" on="0"/>
        <pt x="2925" y="2482" on="1"/>
        <pt x="2881" y="2398" on="0"/>
        <pt x="2497" y="1669" on="0"/>
        <pt x="2427" y="1532" on="1"/>
        <pt x="2166" y="1024" on="0"/>
        <pt x="1891" y="439" on="0"/>
        <pt x="1820" y="337" on="0"/>
        <pt x="1790" y="306" on="1"/>
        <pt x="1680" y="194" on="0"/>
        <pt x="1632" y="132" on="1"/>
        <pt x="1568" y="49" on="0"/>
        <pt x="1539" y="49" on="1"/>
        <pt x="1473" y="49" on="0"/>
        <pt x="1458" y="147" on="1"/>
        <pt x="1380" y="645" on="0"/>
        <pt x="1023" y="2436" on="0"/>
        <pt x="1016" y="2474" on="1"/>
        <pt x="889" y="1993" on="0"/>
        <pt x="798" y="1550" on="1"/>
        <pt x="556" y="362" on="0"/>
        <pt x="541" y="123" on="1"/>
        <pt x="795" y="123" on="1"/>
        <pt x="830" y="123" on="0"/>
        <pt x="852" y="95" on="0"/>
        <pt x="852" y="9" on="0"/>
        <pt x="830" y="-25" on="0"/>
        <pt x="795" y="-25" on="1"/>
      </contour>
    </TTGlyph>
    <TTGlyph name="N" xMin="70" yMin="-98" xMax="3305" yMax="2753">
      <contour>
        <pt x="496" y="-12" on="1"/>
        <pt x="139" y="-25" on="1"/>
        <pt x="96" y="-25" on="0"/>
        <pt x="70" y="8" on="0"/>
        <pt x="70" y="102" on="0"/>
        <pt x="103" y="123" on="0"/>
        <pt x="156" y="123" on="1"/>
        <pt x="348" y="123" on="1"/>
        <pt x="438" y="677" on="0"/>
        <pt x="758" y="2447" on="0"/>
        <pt x="758" y="2519" on="0"/>
        <pt x="755" y="2528" on="0"/>
        <pt x="752" y="2534" on="0"/>
        <pt x="741" y="2552" on="0"/>
        <pt x="732" y="2572" on="1"/>
        <pt x="715" y="2605" on="0"/>
        <pt x="651" y="2605" on="1"/>
        <pt x="406" y="2605" on="1"/>
        <pt x="372" y="2605" on="0"/>
        <pt x="356" y="2630" on="0"/>
        <pt x="356" y="2707" on="0"/>
        <pt x="358" y="2721" on="1"/>
        <pt x="363" y="2753" on="0"/>
        <pt x="406" y="2753" on="1"/>
        <pt x="872" y="2740" on="1"/>
        <pt x="1057" y="2753" on="1"/>
        <pt x="1115" y="2753" on="0"/>
        <pt x="1151" y="2695" on="1"/>
        <pt x="2494" y="651" on="1"/>
        <pt x="2526" y="606" on="0"/>
        <pt x="2548" y="606" on="1"/>
        <pt x="2572" y="667" on="0"/>
        <pt x="2642" y="1104" on="1"/>
        <pt x="2834" y="2303" on="0"/>
        <pt x="2834" y="2568" on="1"/>
        <pt x="2834" y="2605" on="1"/>
        <pt x="2527" y="2605" on="1"/>
        <pt x="2492" y="2605" on="0"/>
        <pt x="2470" y="2633" on="0"/>
        <pt x="2470" y="2719" on="0"/>
        <pt x="2492" y="2753" on="0"/>
        <pt x="2527" y="2753" on="1"/>
        <pt x="2892" y="2740" on="1"/>
        <pt x="3236" y="2753" on="1"/>
        <pt x="3278" y="2753" on="0"/>
        <pt x="3305" y="2719" on="0"/>
        <pt x="3305" y="2625" on="0"/>
        <pt x="3272" y="2605" on="0"/>
        <pt x="3219" y="2605" on="1"/>
        <pt x="3056" y="2605" on="1"/>
        <pt x="3011" y="2460" on="0"/>
        <pt x="2732" y="705" on="1"/>
        <pt x="2692" y="452" on="0"/>
        <pt x="2659" y="-53" on="0"/>
        <pt x="2630" y="-98" on="0"/>
        <pt x="2574" y="-98" on="0"/>
        <pt x="2546" y="-83" on="0"/>
        <pt x="2517" y="-49" on="0"/>
        <pt x="2499" y="-24" on="0"/>
        <pt x="2484" y="2" on="1"/>
        <pt x="2310" y="292" on="0"/>
        <pt x="1982" y="774" on="1"/>
        <pt x="934" y="2306" on="1"/>
        <pt x="899" y="2353" on="0"/>
        <pt x="878" y="2362" on="0"/>
        <pt x="870" y="2332" on="0"/>
        <pt x="868" y="2314" on="0"/>
        <pt x="821" y="2014" on="0"/>
        <pt x="759" y="1614" on="0"/>
        <pt x="685" y="1099" on="0"/>
        <pt x="654" y="872" on="1"/>
        <pt x="582" y="331" on="0"/>
        <pt x="582" y="172" on="1"/>
        <pt x="586" y="123" on="1"/>
        <pt x="930" y="123" on="1"/>
        <pt x="965" y="123" on="0"/>
        <pt x="987" y="95" on="0"/>
        <pt x="987" y="9" on="0"/>
        <pt x="965" y="-25" on="0"/>
        <pt x="930" y="-25" on="1"/>
      </contour>
    </TTGlyph>
    <TTGlyph name="Nacute" xMin="70" yMin="-98" xMax="3305" yMax="3482">
      <component glyphName="acutecomb.cap" x="2761" y="1147" flags="0x1004"/>
      <component glyphName="N" x="0" y="0" flags="0x1004"/>
    </TTGlyph>
    <TTGlyph name="Ncaron" xMin="70" yMin="-98" xMax="3305" yMax="3449">
      <component glyphName="uni030C.cap" x="2761" y="1147" flags="0x1004"/>
      <component glyphName="N" x="0" y="0" flags="0x1004"/>
    </TTGlyph>
    <TTGlyph name="Ncommaaccent" xMin="70" yMin="-926" xMax="3305" yMax="2753">
      <component glyphName="uni0326" x="2372" y="0" flags="0x1004"/>
      <component glyphName="N" x="0" y="0" flags="0x1004"/>
    </TTGlyph>
    <TTGlyph name="Ntilde" xMin="70" yMin="-98" xMax="3305" yMax="3396">
      <component glyphName="tildecomb.cap" x="2761" y="1147" flags="0x1004"/>
      <component glyphName="N" x="0" y="0" flags="0x1004"/>
    </TTGlyph>
    <TTGlyph name="O" xMin="131" yMin="-102" xMax="2875" yMax="2769">
      <contour>
        <pt x="262" y="468" on="0"/>
        <pt x="131" y="889" on="0"/>
        <pt x="131" y="1388" on="0"/>
        <pt x="254" y="1831" on="0"/>
        <pt x="471" y="2183" on="0"/>
        <pt x="765" y="2472" on="0"/>
        <pt x="936" y="2568" on="1"/>
        <pt x="1290" y="2769" on="0"/>
        <pt x="2036" y="2769" on="0"/>
        <pt x="2586" y="2430" on="0"/>
        <pt x="2875" y="1823" on="0"/>
        <pt x="2875" y="1425" on="1"/>
        <pt x="2875" y="800" on="0"/>
        <pt x="2436" y="352" on="1"/>
        <pt x="2153" y="63" on="0"/>
        <pt x="1770" y="-46" on="1"/>
        <pt x="1574" y="-102" on="0"/>
        <pt x="1166" y="-102" on="0"/>
        <pt x="806" y="-14" on="0"/>
        <pt x="490" y="181" on="0"/>
      </contour>
      <contour>
        <pt x="576" y="1529" on="1"/>
        <pt x="532" y="1348" on="0"/>
        <pt x="532" y="1048" on="0"/>
        <pt x="565" y="811" on="0"/>
        <pt x="635" y="581" on="0"/>
        <pt x="739" y="380" on="0"/>
        <pt x="888" y="210" on="0"/>
        <pt x="978" y="149" on="1"/>
        <pt x="1170" y="20" on="0"/>
        <pt x="1438" y="20" on="1"/>
        <pt x="1879" y="20" on="0"/>
        <pt x="2196" y="528" on="1"/>
        <pt x="2372" y="812" on="0"/>
        <pt x="2444" y="1189" on="1"/>
        <pt x="2478" y="1364" on="0"/>
        <pt x="2478" y="1628" on="0"/>
        <pt x="2451" y="1837" on="0"/>
        <pt x="2390" y="2054" on="0"/>
        <pt x="2302" y="2252" on="0"/>
        <pt x="2170" y="2427" on="0"/>
        <pt x="2090" y="2491" on="1"/>
        <pt x="1918" y="2630" on="0"/>
        <pt x="1679" y="2630" on="1"/>
        <pt x="1245" y="2630" on="0"/>
        <pt x="886" y="2170" on="1"/>
        <pt x="664" y="1885" on="0"/>
      </contour>
    </TTGlyph>
    <TTGlyph name="OE" xMin="131" yMin="-59" xMax="3977" yMax="2839">
      <contour>
        <pt x="3723" y="-25" on="1"/>
        <pt x="2236" y="-12" on="1"/>
        <pt x="2152" y="-12" on="0"/>
        <pt x="2020" y="-30" on="1"/>
        <pt x="1412" y="-110" on="0"/>
        <pt x="1126" y="-59" on="1"/>
        <pt x="535" y="46" on="0"/>
        <pt x="273" y="539" on="1"/>
        <pt x="131" y="806" on="0"/>
        <pt x="131" y="1176" on="1"/>
        <pt x="131" y="1859" on="0"/>
        <pt x="607" y="2325" on="1"/>
        <pt x="901" y="2613" on="0"/>
        <pt x="1306" y="2722" on="1"/>
        <pt x="1507" y="2777" on="0"/>
        <pt x="1865" y="2777" on="0"/>
        <pt x="2430" y="2724" on="0"/>
        <pt x="2548" y="2724" on="1"/>
        <pt x="3404" y="2736" on="1"/>
        <pt x="3776" y="2736" on="0"/>
        <pt x="3781" y="2777" on="1"/>
        <pt x="3781" y="2839" on="0"/>
        <pt x="3846" y="2839" on="1"/>
        <pt x="3891" y="2839" on="0"/>
        <pt x="3928" y="2816" on="0"/>
        <pt x="3928" y="2761" on="0"/>
        <pt x="3896" y="2453" on="0"/>
        <pt x="3891" y="2261" on="1"/>
        <pt x="3891" y="2232" on="0"/>
        <pt x="3859" y="2216" on="0"/>
        <pt x="3771" y="2216" on="0"/>
        <pt x="3740" y="2237" on="0"/>
        <pt x="3740" y="2282" on="0"/>
        <pt x="3764" y="2576" on="1"/>
        <pt x="3586" y="2601" on="0"/>
        <pt x="2707" y="2601" on="1"/>
        <pt x="2668" y="2490" on="0"/>
        <pt x="2540" y="1491" on="0"/>
        <pt x="2540" y="1462" on="0"/>
        <pt x="2541" y="1460" on="1"/>
        <pt x="2544" y="1454" on="0"/>
        <pt x="2589" y="1454" on="1"/>
        <pt x="3260" y="1454" on="1"/>
        <pt x="3432" y="1454" on="0"/>
        <pt x="3441" y="1499" on="1"/>
        <pt x="3486" y="1724" on="1"/>
        <pt x="3490" y="1753" on="0"/>
        <pt x="3629" y="1753" on="0"/>
        <pt x="3629" y="1716" on="1"/>
        <pt x="3629" y="1689" on="0"/>
        <pt x="3600" y="1553" on="1"/>
        <pt x="3509" y="1131" on="0"/>
        <pt x="3496" y="972" on="0"/>
        <pt x="3484" y="964" on="1"/>
        <pt x="3470" y="954" on="0"/>
        <pt x="3432" y="954" on="1"/>
        <pt x="3416" y="954" on="1"/>
        <pt x="3351" y="954" on="0"/>
        <pt x="3351" y="987" on="1"/>
        <pt x="3400" y="1274" on="1"/>
        <pt x="3400" y="1305" on="0"/>
        <pt x="3292" y="1319" on="0"/>
        <pt x="3207" y="1319" on="1"/>
        <pt x="2589" y="1319" on="1"/>
        <pt x="2543" y="1319" on="0"/>
        <pt x="2525" y="1311" on="0"/>
        <pt x="2508" y="1226" on="0"/>
        <pt x="2373" y="282" on="0"/>
        <pt x="2359" y="160" on="1"/>
        <pt x="2359" y="135" on="0"/>
        <pt x="2376" y="135" on="1"/>
        <pt x="3682" y="164" on="1"/>
        <pt x="3701" y="180" on="0"/>
        <pt x="3807" y="507" on="0"/>
        <pt x="3833" y="575" on="0"/>
        <pt x="3861" y="598" on="0"/>
        <pt x="3923" y="598" on="0"/>
        <pt x="3977" y="567" on="0"/>
        <pt x="3977" y="518" on="0"/>
        <pt x="3932" y="385" on="0"/>
        <pt x="3837" y="126" on="0"/>
        <pt x="3796" y="-1" on="0"/>
        <pt x="3758" y="-25" on="0"/>
      </contour>
      <contour>
        <pt x="648" y="1877" on="0"/>
        <pt x="532" y="1440" on="0"/>
        <pt x="532" y="1030" on="0"/>
        <pt x="613" y="695" on="0"/>
        <pt x="774" y="400" on="0"/>
        <pt x="884" y="286" on="1"/>
        <pt x="1122" y="41" on="0"/>
        <pt x="1458" y="41" on="1"/>
        <pt x="1763" y="41" on="0"/>
        <pt x="1841" y="64" on="1"/>
        <pt x="1943" y="93" on="0"/>
        <pt x="1995" y="119" on="1"/>
        <pt x="1997" y="132" on="0"/>
        <pt x="2086" y="703" on="0"/>
        <pt x="2134" y="1020" on="1"/>
        <pt x="2272" y="1916" on="0"/>
        <pt x="2330" y="2457" on="0"/>
        <pt x="2339" y="2539" on="0"/>
        <pt x="2339" y="2552" on="1"/>
        <pt x="2306" y="2575" on="0"/>
        <pt x="1964" y="2646" on="0"/>
        <pt x="1603" y="2646" on="0"/>
        <pt x="1188" y="2500" on="0"/>
        <pt x="875" y="2236" on="0"/>
      </contour>
    </TTGlyph>
    <TTGlyph name="Oacute" xMin="131" yMin="-102" xMax="2875" yMax="3482">
      <component glyphName="acutecomb.cap" x="2617" y="1147" flags="0x1004"/>
      <component glyphName="O" x="0" y="0" flags="0x1004"/>
    </TTGlyph>
    <TTGlyph name="Obreve" xMin="131" yMin="-102" xMax="2875" yMax="3445">
      <component glyphName="uni0306.cap" x="2617" y="1147" flags="0x1004"/>
      <component glyphName="O" x="0" y="0" flags="0x1004"/>
    </TTGlyph>
    <TTGlyph name="Ocircumflex" xMin="131" yMin="-102" xMax="2875" yMax="3449">
      <component glyphName="uni0302.cap" x="2617" y="1147" flags="0x1004"/>
      <component glyphName="O" x="0" y="0" flags="0x1004"/>
    </TTGlyph>
    <TTGlyph name="Odieresis" xMin="131" yMin="-102" xMax="2875" yMax="3416">
      <component glyphName="uni0308.cap" x="2617" y="1147" flags="0x1004"/>
      <component glyphName="O" x="0" y="0" flags="0x1004"/>
    </TTGlyph>
    <TTGlyph name="Ograve" xMin="131" yMin="-102" xMax="2875" yMax="3482">
      <component glyphName="gravecomb.cap" x="2617" y="1147" flags="0x1004"/>
      <component glyphName="O" x="0" y="0" flags="0x1004"/>
    </TTGlyph>
    <TTGlyph name="Ohungarumlaut" xMin="131" yMin="-102" xMax="2875" yMax="3482">
      <component glyphName="uni030B.cap" x="2617" y="1147" flags="0x1004"/>
      <component glyphName="O" x="0" y="0" flags="0x1004"/>
    </TTGlyph>
    <TTGlyph name="Omacron" xMin="131" yMin="-102" xMax="2875" yMax="3359">
      <component glyphName="uni0304.cap" x="2617" y="1147" flags="0x1004"/>
      <component glyphName="O" x="0" y="0" flags="0x1004"/>
    </TTGlyph>
    <TTGlyph name="Oslash" xMin="131" yMin="-238" xMax="2875" yMax="2974">
      <contour>
        <pt x="618" y="2328" on="1"/>
        <pt x="904" y="2609" on="0"/>
        <pt x="1293" y="2717" on="1"/>
        <pt x="1480" y="2769" on="0"/>
        <pt x="1931" y="2769" on="0"/>
        <pt x="2175" y="2671" on="1"/>
        <pt x="2201" y="2662" on="0"/>
        <pt x="2212" y="2683" on="1"/>
        <pt x="2376" y="2966" on="1"/>
        <pt x="2384" y="2974" on="0"/>
        <pt x="2417" y="2974" on="0"/>
        <pt x="2440" y="2960" on="1"/>
        <pt x="2496" y="2923" on="0"/>
        <pt x="2482" y="2900" on="1"/>
        <pt x="2322" y="2634" on="1"/>
        <pt x="2309" y="2607" on="0"/>
        <pt x="2327" y="2589" on="1"/>
        <pt x="2590" y="2419" on="0"/>
        <pt x="2875" y="1818" on="0"/>
        <pt x="2875" y="1425" on="1"/>
        <pt x="2875" y="800" on="0"/>
        <pt x="2436" y="352" on="1"/>
        <pt x="2153" y="63" on="0"/>
        <pt x="1770" y="-46" on="1"/>
        <pt x="1574" y="-102" on="0"/>
        <pt x="1089" y="-102" on="0"/>
        <pt x="848" y="-16" on="1"/>
        <pt x="824" y="-5" on="0"/>
        <pt x="802" y="-5" on="0"/>
        <pt x="791" y="-25" on="1"/>
        <pt x="672" y="-225" on="1"/>
        <pt x="659" y="-238" on="0"/>
        <pt x="625" y="-238" on="0"/>
        <pt x="552" y="-187" on="0"/>
        <pt x="561" y="-172" on="1"/>
        <pt x="668" y="12" on="1"/>
        <pt x="686" y="47" on="0"/>
        <pt x="674" y="68" on="0"/>
        <pt x="655" y="78" on="1"/>
        <pt x="131" y="406" on="0"/>
        <pt x="131" y="1849" on="0"/>
      </contour>
      <contour>
        <pt x="621" y="1710" on="0"/>
        <pt x="532" y="1348" on="0"/>
        <pt x="532" y="924" on="0"/>
        <pt x="666" y="475" on="0"/>
        <pt x="799" y="315" on="1"/>
        <pt x="828" y="280" on="0"/>
        <pt x="855" y="333" on="0"/>
        <pt x="2065" y="2430" on="0"/>
        <pt x="2089" y="2468" on="0"/>
        <pt x="2089" y="2498" on="0"/>
        <pt x="2060" y="2515" on="1"/>
        <pt x="1901" y="2630" on="0"/>
        <pt x="1536" y="2630" on="0"/>
        <pt x="1246" y="2513" on="0"/>
        <pt x="996" y="2311" on="0"/>
        <pt x="777" y="2030" on="0"/>
      </contour>
      <contour>
        <pt x="942" y="176" on="1"/>
        <pt x="1151" y="20" on="0"/>
        <pt x="1438" y="20" on="1"/>
        <pt x="1879" y="20" on="0"/>
        <pt x="2196" y="528" on="1"/>
        <pt x="2372" y="812" on="0"/>
        <pt x="2444" y="1189" on="1"/>
        <pt x="2478" y="1364" on="0"/>
        <pt x="2478" y="1752" on="0"/>
        <pt x="2340" y="2218" on="0"/>
        <pt x="2204" y="2380" on="1"/>
        <pt x="2186" y="2398" on="0"/>
        <pt x="2171" y="2367" on="1"/>
        <pt x="942" y="242" on="1"/>
        <pt x="939" y="236" on="0"/>
        <pt x="930" y="219" on="0"/>
        <pt x="927" y="212" on="0"/>
        <pt x="924" y="200" on="0"/>
        <pt x="926" y="196" on="1"/>
        <pt x="930" y="186" on="0"/>
      </contour>
    </TTGlyph>
    <TTGlyph name="Otilde" xMin="131" yMin="-102" xMax="2875" yMax="3396">
      <component glyphName="tildecomb.cap" x="2617" y="1147" flags="0x1004"/>
      <component glyphName="O" x="0" y="0" flags="0x1004"/>
    </TTGlyph>
    <TTGlyph name="P" xMin="70" yMin="-25" xMax="2204" yMax="2744">
      <contour>
        <pt x="561" y="-12" on="1"/>
        <pt x="139" y="-25" on="1"/>
        <pt x="96" y="-25" on="0"/>
        <pt x="70" y="8" on="0"/>
        <pt x="70" y="102" on="0"/>
        <pt x="103" y="123" on="0"/>
        <pt x="156" y="123" on="1"/>
        <pt x="319" y="123" on="1"/>
        <pt x="659" y="2462" on="0"/>
        <pt x="659" y="2564" on="1"/>
        <pt x="655" y="2593" on="1"/>
        <pt x="426" y="2593" on="1"/>
        <pt x="361" y="2593" on="0"/>
        <pt x="344" y="2641" on="0"/>
        <pt x="344" y="2666" on="1"/>
        <pt x="344" y="2736" on="0"/>
        <pt x="397" y="2736" on="1"/>
        <pt x="582" y="2730" on="1"/>
        <pt x="766" y="2724" on="0"/>
        <pt x="852" y="2724" on="1"/>
        <pt x="852" y="2724" on="0"/>
        <pt x="1331" y="2744" on="1"/>
        <pt x="1748" y="2744" on="0"/>
        <pt x="1979" y="2542" on="1"/>
        <pt x="2204" y="2344" on="0"/>
        <pt x="2204" y="2032" on="1"/>
        <pt x="2204" y="1658" on="0"/>
        <pt x="1955" y="1450" on="1"/>
        <pt x="1687" y="1225" on="0"/>
        <pt x="1192" y="1225" on="1"/>
        <pt x="881" y="1233" on="1"/>
        <pt x="844" y="1233" on="0"/>
        <pt x="822" y="1223" on="0"/>
        <pt x="815" y="1192" on="1"/>
        <pt x="784" y="1052" on="0"/>
        <pt x="684" y="147" on="1"/>
        <pt x="678" y="123" on="0"/>
        <pt x="705" y="123" on="1"/>
        <pt x="979" y="123" on="1"/>
        <pt x="1013" y="123" on="0"/>
        <pt x="1028" y="98" on="0"/>
        <pt x="1028" y="34" on="0"/>
        <pt x="1027" y="15" on="0"/>
        <pt x="1023" y="-10" on="0"/>
        <pt x="1018" y="-14" on="1"/>
        <pt x="1005" y="-25" on="0"/>
        <pt x="979" y="-25" on="1"/>
      </contour>
      <contour>
        <pt x="840" y="1348" on="0"/>
        <pt x="884" y="1335" on="0"/>
        <pt x="1092" y="1335" on="0"/>
        <pt x="1348" y="1380" on="0"/>
        <pt x="1585" y="1483" on="0"/>
        <pt x="1672" y="1560" on="1"/>
        <pt x="1864" y="1727" on="0"/>
        <pt x="1864" y="2306" on="0"/>
        <pt x="1522" y="2621" on="0"/>
        <pt x="1192" y="2621" on="1"/>
        <pt x="1050" y="2621" on="0"/>
        <pt x="1020" y="2609" on="1"/>
        <pt x="934" y="2069" on="0"/>
        <pt x="840" y="1376" on="0"/>
      </contour>
    </TTGlyph>
    <TTGlyph name="Q" xMin="53" yMin="-823" xMax="2994" yMax="2777">
      <contour>
        <pt x="2970" y="-586" on="1"/>
        <pt x="2994" y="-586" on="0"/>
        <pt x="2994" y="-643" on="1"/>
        <pt x="2994" y="-657" on="0"/>
        <pt x="2874" y="-700" on="1"/>
        <pt x="2533" y="-823" on="0"/>
        <pt x="2074" y="-823" on="0"/>
        <pt x="1575" y="-750" on="0"/>
        <pt x="1165" y="-645" on="0"/>
        <pt x="816" y="-540" on="0"/>
        <pt x="580" y="-467" on="0"/>
        <pt x="560" y="-467" on="1"/>
        <pt x="498" y="-467" on="0"/>
        <pt x="266" y="-557" on="0"/>
        <pt x="137" y="-557" on="0"/>
        <pt x="53" y="-494" on="0"/>
        <pt x="53" y="-438" on="1"/>
        <pt x="53" y="-258" on="0"/>
        <pt x="479" y="-258" on="1"/>
        <pt x="770" y="-279" on="1"/>
        <pt x="818" y="-279" on="0"/>
        <pt x="998" y="-201" on="0"/>
        <pt x="1310" y="-41" on="0"/>
        <pt x="1311" y="-39" on="1"/>
        <pt x="1311" y="-33" on="0"/>
        <pt x="1199" y="-18" on="0"/>
        <pt x="1054" y="11" on="0"/>
        <pt x="810" y="94" on="0"/>
        <pt x="610" y="206" on="0"/>
        <pt x="386" y="406" on="0"/>
        <pt x="309" y="530" on="1"/>
        <pt x="131" y="818" on="0"/>
        <pt x="131" y="1249" on="1"/>
        <pt x="131" y="1726" on="0"/>
        <pt x="451" y="2161" on="1"/>
        <pt x="649" y="2430" on="0"/>
        <pt x="1267" y="2777" on="0"/>
        <pt x="1630" y="2777" on="1"/>
        <pt x="2157" y="2777" on="0"/>
        <pt x="2488" y="2417" on="1"/>
        <pt x="2806" y="2071" on="0"/>
        <pt x="2806" y="1536" on="1"/>
        <pt x="2806" y="883" on="0"/>
        <pt x="2382" y="436" on="1"/>
        <pt x="2100" y="138" on="0"/>
        <pt x="1690" y="17" on="1"/>
        <pt x="1565" y="-20" on="0"/>
        <pt x="1285" y="-157" on="0"/>
        <pt x="1024" y="-294" on="0"/>
        <pt x="1024" y="-304" on="1"/>
        <pt x="1023" y="-316" on="0"/>
        <pt x="1343" y="-401" on="1"/>
        <pt x="2210" y="-631" on="0"/>
        <pt x="2560" y="-631" on="1"/>
        <pt x="2777" y="-631" on="0"/>
        <pt x="2965" y="-586" on="0"/>
      </contour>
      <contour>
        <pt x="508" y="1174" on="1"/>
        <pt x="508" y="962" on="0"/>
        <pt x="622" y="588" on="0"/>
        <pt x="814" y="335" on="0"/>
        <pt x="943" y="248" on="1"/>
        <pt x="1189" y="82" on="0"/>
        <pt x="1507" y="82" on="1"/>
        <pt x="1583" y="82" on="0"/>
        <pt x="1804" y="243" on="0"/>
        <pt x="1961" y="404" on="0"/>
        <pt x="2116" y="600" on="0"/>
        <pt x="2255" y="854" on="0"/>
        <pt x="2308" y="992" on="1"/>
        <pt x="2425" y="1293" on="0"/>
        <pt x="2425" y="1868" on="0"/>
        <pt x="2303" y="2243" on="0"/>
        <pt x="2192" y="2370" on="1"/>
        <pt x="1961" y="2634" on="0"/>
        <pt x="1577" y="2634" on="1"/>
        <pt x="1355" y="2634" on="0"/>
        <pt x="1104" y="2443" on="1"/>
        <pt x="860" y="2258" on="0"/>
        <pt x="687" y="1929" on="1"/>
        <pt x="508" y="1588" on="0"/>
      </contour>
    </TTGlyph>
    <TTGlyph name="R" xMin="70" yMin="-25" xMax="2449" yMax="2753">
      <contour>
        <pt x="561" y="-12" on="1"/>
        <pt x="139" y="-25" on="1"/>
        <pt x="95" y="-25" on="0"/>
        <pt x="70" y="2" on="0"/>
        <pt x="70" y="94" on="0"/>
        <pt x="104" y="123" on="0"/>
        <pt x="156" y="123" on="1"/>
        <pt x="311" y="123" on="1"/>
        <pt x="387" y="569" on="0"/>
        <pt x="500" y="1367" on="1"/>
        <pt x="651" y="2425" on="0"/>
        <pt x="651" y="2593" on="1"/>
        <pt x="385" y="2593" on="1"/>
        <pt x="324" y="2593" on="0"/>
        <pt x="311" y="2640" on="0"/>
        <pt x="311" y="2666" on="1"/>
        <pt x="311" y="2736" on="0"/>
        <pt x="377" y="2736" on="1"/>
        <pt x="377" y="2736" on="0"/>
        <pt x="831" y="2724" on="1"/>
        <pt x="1413" y="2753" on="1"/>
        <pt x="1647" y="2753" on="0"/>
        <pt x="2030" y="2584" on="0"/>
        <pt x="2253" y="2273" on="0"/>
        <pt x="2253" y="2077" on="1"/>
        <pt x="2253" y="1522" on="0"/>
        <pt x="1498" y="1332" on="1"/>
        <pt x="1485" y="1328" on="0"/>
        <pt x="1479" y="1327" on="1"/>
        <pt x="1490" y="1323" on="0"/>
        <pt x="1532" y="1309" on="1"/>
        <pt x="1641" y="1273" on="0"/>
        <pt x="1720" y="1241" on="1"/>
        <pt x="2191" y="1053" on="0"/>
        <pt x="2191" y="557" on="1"/>
        <pt x="2179" y="156" on="1"/>
        <pt x="2179" y="145" on="0"/>
        <pt x="2183" y="123" on="1"/>
        <pt x="2367" y="123" on="1"/>
        <pt x="2417" y="123" on="0"/>
        <pt x="2449" y="94" on="0"/>
        <pt x="2449" y="-25" on="0"/>
        <pt x="2417" y="-25" on="1"/>
        <pt x="1806" y="-12" on="1"/>
        <pt x="1761" y="-12" on="0"/>
        <pt x="1782" y="53" on="1"/>
        <pt x="1847" y="433" on="0"/>
        <pt x="1847" y="696" on="1"/>
        <pt x="1847" y="887" on="0"/>
        <pt x="1542" y="1196" on="0"/>
        <pt x="1303" y="1245" on="1"/>
        <pt x="1201" y="1266" on="0"/>
        <pt x="1016" y="1266" on="1"/>
        <pt x="897" y="1266" on="1"/>
        <pt x="816" y="1266" on="0"/>
        <pt x="803" y="1180" on="1"/>
        <pt x="697" y="440" on="0"/>
        <pt x="684" y="147" on="1"/>
        <pt x="684" y="123" on="0"/>
        <pt x="705" y="123" on="1"/>
        <pt x="922" y="123" on="1"/>
        <pt x="959" y="123" on="0"/>
        <pt x="987" y="96" on="0"/>
        <pt x="987" y="9" on="0"/>
        <pt x="965" y="-25" on="0"/>
        <pt x="930" y="-25" on="1"/>
      </contour>
      <contour>
        <pt x="938" y="1389" on="1"/>
        <pt x="1225" y="1376" on="1"/>
        <pt x="1391" y="1376" on="0"/>
        <pt x="1568" y="1504" on="1"/>
        <pt x="1880" y="1731" on="0"/>
        <pt x="1880" y="2040" on="1"/>
        <pt x="1880" y="2621" on="0"/>
        <pt x="1192" y="2621" on="1"/>
        <pt x="1036" y="2621" on="0"/>
        <pt x="999" y="2609" on="1"/>
        <pt x="852" y="1483" on="1"/>
        <pt x="848" y="1458" on="0"/>
        <pt x="848" y="1405" on="0"/>
        <pt x="875" y="1389" on="0"/>
        <pt x="909" y="1389" on="1"/>
      </contour>
    </TTGlyph>
    <TTGlyph name="Racute" xMin="70" yMin="-25" xMax="2449" yMax="3482">
      <component glyphName="acutecomb.cap" x="2208" y="1147" flags="0x1004"/>
      <component glyphName="R" x="0" y="0" flags="0x1004"/>
    </TTGlyph>
    <TTGlyph name="Rcaron" xMin="70" yMin="-25" xMax="2449" yMax="3449">
      <component glyphName="uni030C.cap" x="2208" y="1147" flags="0x1004"/>
      <component glyphName="R" x="0" y="0" flags="0x1004"/>
    </TTGlyph>
    <TTGlyph name="Rcommaaccent" xMin="70" yMin="-926" xMax="2449" yMax="2753">
      <component glyphName="uni0326" x="2060" y="0" flags="0x1004"/>
      <component glyphName="R" x="0" y="0" flags="0x1004"/>
    </TTGlyph>
    <TTGlyph name="S" xMin="152" yMin="-40" xMax="1937" yMax="2753">
      <contour>
        <pt x="570" y="2546" on="0"/>
        <pt x="959" y="2753" on="0"/>
        <pt x="1471" y="2753" on="0"/>
        <pt x="1765" y="2527" on="1"/>
        <pt x="1770" y="2544" on="0"/>
        <pt x="1788" y="2638" on="0"/>
        <pt x="1794" y="2661" on="0"/>
        <pt x="1797" y="2669" on="0"/>
        <pt x="1807" y="2683" on="0"/>
        <pt x="1812" y="2687" on="1"/>
        <pt x="1826" y="2697" on="0"/>
        <pt x="1854" y="2694" on="0"/>
        <pt x="1890" y="2691" on="0"/>
        <pt x="1902" y="2688" on="1"/>
        <pt x="1937" y="2681" on="0"/>
        <pt x="1937" y="2626" on="0"/>
        <pt x="1806" y="1958" on="1"/>
        <pt x="1797" y="1909" on="0"/>
        <pt x="1753" y="1909" on="1"/>
        <pt x="1659" y="1909" on="0"/>
        <pt x="1659" y="1966" on="1"/>
        <pt x="1690" y="2092" on="1"/>
        <pt x="1720" y="2219" on="0"/>
        <pt x="1717" y="2266" on="0"/>
        <pt x="1667" y="2338" on="0"/>
        <pt x="1565" y="2441" on="0"/>
        <pt x="1502" y="2488" on="1"/>
        <pt x="1349" y="2601" on="0"/>
        <pt x="931" y="2601" on="0"/>
        <pt x="664" y="2312" on="0"/>
        <pt x="664" y="2073" on="1"/>
        <pt x="664" y="1829" on="0"/>
        <pt x="898" y="1679" on="1"/>
        <pt x="1015" y="1605" on="0"/>
        <pt x="1283" y="1483" on="0"/>
        <pt x="1359" y="1447" on="0"/>
        <pt x="1497" y="1375" on="0"/>
        <pt x="1573" y="1323" on="0"/>
        <pt x="1687" y="1238" on="0"/>
        <pt x="1752" y="1161" on="0"/>
        <pt x="1829" y="1052" on="0"/>
        <pt x="1848" y="996" on="1"/>
        <pt x="1896" y="858" on="0"/>
        <pt x="1896" y="611" on="0"/>
        <pt x="1840" y="417" on="0"/>
        <pt x="1741" y="262" on="0"/>
        <pt x="1607" y="130" on="0"/>
        <pt x="1451" y="34" on="0"/>
        <pt x="1366" y="0" on="1"/>
        <pt x="1093" y="-106" on="0"/>
        <pt x="746" y="-40" on="1"/>
        <pt x="512" y="5" on="0"/>
        <pt x="374" y="84" on="1"/>
        <pt x="152" y="210" on="0"/>
        <pt x="152" y="274" on="1"/>
        <pt x="152" y="295" on="0"/>
        <pt x="244" y="816" on="0"/>
        <pt x="254" y="840" on="0"/>
        <pt x="313" y="840" on="0"/>
        <pt x="397" y="818" on="0"/>
        <pt x="397" y="799" on="1"/>
        <pt x="328" y="414" on="1"/>
        <pt x="328" y="357" on="0"/>
        <pt x="575" y="222" on="1"/>
        <pt x="837" y="78" on="0"/>
        <pt x="1312" y="78" on="0"/>
        <pt x="1606" y="356" on="0"/>
        <pt x="1606" y="569" on="1"/>
        <pt x="1606" y="758" on="0"/>
        <pt x="1448" y="888" on="1"/>
        <pt x="1328" y="986" on="0"/>
        <pt x="979" y="1156" on="0"/>
        <pt x="771" y="1263" on="0"/>
        <pt x="583" y="1402" on="0"/>
        <pt x="510" y="1484" on="1"/>
        <pt x="352" y="1663" on="0"/>
        <pt x="352" y="2173" on="0"/>
      </contour>
    </TTGlyph>
    <TTGlyph name="Sacute" xMin="152" yMin="-40" xMax="1937" yMax="3482">
      <component glyphName="acutecomb.cap" x="2109" y="1147" flags="0x1004"/>
      <component glyphName="S" x="0" y="0" flags="0x1004"/>
    </TTGlyph>
    <TTGlyph name="Scaron" xMin="152" yMin="-40" xMax="1937" yMax="3449">
      <component glyphName="uni030C.cap" x="2109" y="1147" flags="0x1004"/>
      <component glyphName="S" x="0" y="0" flags="0x1004"/>
    </TTGlyph>
    <TTGlyph name="Scedilla" xMin="152" yMin="-901" xMax="1937" yMax="2753">
      <contour>
        <pt x="725" y="-422" on="1"/>
        <pt x="918" y="-61" on="1"/>
        <pt x="468" y="-26" on="0"/>
        <pt x="212" y="192" on="1"/>
        <pt x="152" y="242" on="0"/>
        <pt x="152" y="295" on="0"/>
        <pt x="244" y="816" on="0"/>
        <pt x="254" y="840" on="0"/>
        <pt x="313" y="840" on="0"/>
        <pt x="397" y="818" on="0"/>
        <pt x="397" y="799" on="1"/>
        <pt x="328" y="414" on="1"/>
        <pt x="328" y="357" on="0"/>
        <pt x="575" y="222" on="1"/>
        <pt x="837" y="78" on="0"/>
        <pt x="1312" y="78" on="0"/>
        <pt x="1606" y="356" on="0"/>
        <pt x="1606" y="569" on="1"/>
        <pt x="1606" y="758" on="0"/>
        <pt x="1448" y="888" on="1"/>
        <pt x="1328" y="986" on="0"/>
        <pt x="979" y="1156" on="0"/>
        <pt x="771" y="1263" on="0"/>
        <pt x="583" y="1402" on="0"/>
        <pt x="510" y="1484" on="1"/>
        <pt x="352" y="1663" on="0"/>
        <pt x="352" y="2173" on="0"/>
        <pt x="570" y="2546" on="0"/>
        <pt x="959" y="2753" on="0"/>
        <pt x="1471" y="2753" on="0"/>
        <pt x="1765" y="2527" on="1"/>
        <pt x="1770" y="2544" on="0"/>
        <pt x="1788" y="2638" on="0"/>
        <pt x="1794" y="2661" on="0"/>
        <pt x="1797" y="2669" on="0"/>
        <pt x="1807" y="2683" on="0"/>
        <pt x="1812" y="2687" on="1"/>
        <pt x="1826" y="2697" on="0"/>
        <pt x="1854" y="2694" on="0"/>
        <pt x="1890" y="2691" on="0"/>
        <pt x="1902" y="2688" on="1"/>
        <pt x="1937" y="2681" on="0"/>
        <pt x="1937" y="2626" on="0"/>
        <pt x="1806" y="1958" on="1"/>
        <pt x="1797" y="1909" on="0"/>
        <pt x="1753" y="1909" on="1"/>
        <pt x="1659" y="1909" on="0"/>
        <pt x="1659" y="1966" on="1"/>
        <pt x="1690" y="2092" on="1"/>
        <pt x="1720" y="2219" on="0"/>
        <pt x="1717" y="2266" on="0"/>
        <pt x="1667" y="2338" on="0"/>
        <pt x="1565" y="2441" on="0"/>
        <pt x="1502" y="2488" on="1"/>
        <pt x="1349" y="2601" on="0"/>
        <pt x="931" y="2601" on="0"/>
        <pt x="664" y="2312" on="0"/>
        <pt x="664" y="2073" on="1"/>
        <pt x="664" y="1829" on="0"/>
        <pt x="898" y="1679" on="1"/>
        <pt x="1015" y="1605" on="0"/>
        <pt x="1283" y="1483" on="0"/>
        <pt x="1359" y="1447" on="0"/>
        <pt x="1497" y="1375" on="0"/>
        <pt x="1573" y="1323" on="0"/>
        <pt x="1687" y="1238" on="0"/>
        <pt x="1752" y="1161" on="0"/>
        <pt x="1829" y="1052" on="0"/>
        <pt x="1848" y="996" on="1"/>
        <pt x="1896" y="858" on="0"/>
        <pt x="1896" y="611" on="0"/>
        <pt x="1840" y="417" on="0"/>
        <pt x="1741" y="262" on="0"/>
        <pt x="1607" y="130" on="0"/>
        <pt x="1451" y="34" on="0"/>
        <pt x="1366" y="0" on="1"/>
        <pt x="1196" y="-66" on="0"/>
        <pt x="1024" y="-66" on="1"/>
        <pt x="1020" y="-66" on="1"/>
        <pt x="928" y="-232" on="0"/>
        <pt x="909" y="-270" on="1"/>
        <pt x="949" y="-262" on="0"/>
        <pt x="1012" y="-262" on="1"/>
        <pt x="1158" y="-262" on="0"/>
        <pt x="1339" y="-425" on="0"/>
        <pt x="1339" y="-695" on="0"/>
        <pt x="1067" y="-901" on="0"/>
        <pt x="868" y="-901" on="1"/>
        <pt x="675" y="-901" on="0"/>
        <pt x="572" y="-811" on="1"/>
        <pt x="549" y="-791" on="0"/>
        <pt x="549" y="-778" on="1"/>
        <pt x="549" y="-725" on="0"/>
        <pt x="594" y="-725" on="1"/>
        <pt x="602" y="-725" on="0"/>
        <pt x="634" y="-740" on="1"/>
        <pt x="726" y="-782" on="0"/>
        <pt x="823" y="-782" on="1"/>
        <pt x="1094" y="-782" on="0"/>
        <pt x="1094" y="-594" on="1"/>
        <pt x="1094" y="-525" on="0"/>
        <pt x="1008" y="-422" on="0"/>
        <pt x="869" y="-422" on="0"/>
        <pt x="769" y="-446" on="0"/>
        <pt x="759" y="-446" on="0"/>
        <pt x="725" y="-428" on="0"/>
      </contour>
    </TTGlyph>
    <TTGlyph name="Scircumflex" xMin="152" yMin="-40" xMax="1937" yMax="3449">
      <component glyphName="uni0302.cap" x="2109" y="1147" flags="0x1004"/>
      <component glyphName="S" x="0" y="0" flags="0x1004"/>
    </TTGlyph>
    <TTGlyph name="T" xMin="70" yMin="-25" xMax="2720" yMax="2822">
      <contour>
        <pt x="160" y="2179" on="1"/>
        <pt x="70" y="2179" on="0"/>
        <pt x="70" y="2236" on="1"/>
        <pt x="70" y="2242" on="0"/>
        <pt x="92" y="2306" on="1"/>
        <pt x="195" y="2597" on="0"/>
        <pt x="252" y="2777" on="0"/>
        <pt x="266" y="2801" on="0"/>
        <pt x="278" y="2815" on="0"/>
        <pt x="292" y="2818" on="1"/>
        <pt x="310" y="2822" on="0"/>
        <pt x="344" y="2822" on="1"/>
        <pt x="401" y="2822" on="0"/>
        <pt x="401" y="2761" on="1"/>
        <pt x="401" y="2744" on="1"/>
        <pt x="456" y="2720" on="0"/>
        <pt x="823" y="2720" on="1"/>
        <pt x="2159" y="2720" on="1"/>
        <pt x="2565" y="2720" on="0"/>
        <pt x="2572" y="2753" on="1"/>
        <pt x="2575" y="2790" on="0"/>
        <pt x="2602" y="2822" on="0"/>
        <pt x="2687" y="2822" on="0"/>
        <pt x="2720" y="2800" on="0"/>
        <pt x="2720" y="2765" on="1"/>
        <pt x="2683" y="2224" on="1"/>
        <pt x="2683" y="2196" on="0"/>
        <pt x="2641" y="2179" on="0"/>
        <pt x="2572" y="2179" on="0"/>
        <pt x="2548" y="2186" on="0"/>
        <pt x="2542" y="2196" on="1"/>
        <pt x="2535" y="2208" on="0"/>
        <pt x="2535" y="2241" on="1"/>
        <pt x="2560" y="2564" on="1"/>
        <pt x="2523" y="2580" on="0"/>
        <pt x="2134" y="2580" on="1"/>
        <pt x="1700" y="2580" on="1"/>
        <pt x="1670" y="2580" on="0"/>
        <pt x="1659" y="2511" on="1"/>
        <pt x="1617" y="2233" on="0"/>
        <pt x="1327" y="176" on="0"/>
        <pt x="1327" y="123" on="0"/>
        <pt x="1348" y="123" on="1"/>
        <pt x="1610" y="123" on="1"/>
        <pt x="1645" y="123" on="0"/>
        <pt x="1667" y="95" on="0"/>
        <pt x="1667" y="9" on="0"/>
        <pt x="1645" y="-25" on="0"/>
        <pt x="1610" y="-25" on="1"/>
        <pt x="1118" y="-12" on="1"/>
        <pt x="655" y="-25" on="1"/>
        <pt x="614" y="-25" on="0"/>
        <pt x="594" y="6" on="0"/>
        <pt x="594" y="103" on="0"/>
        <pt x="621" y="123" on="0"/>
        <pt x="672" y="123" on="1"/>
        <pt x="897" y="123" on="1"/>
        <pt x="950" y="226" on="0"/>
        <pt x="1286" y="2521" on="0"/>
        <pt x="1286" y="2540" on="1"/>
        <pt x="1286" y="2562" on="1"/>
        <pt x="1286" y="2580" on="0"/>
        <pt x="1274" y="2580" on="1"/>
        <pt x="713" y="2580" on="1"/>
        <pt x="348" y="2580" on="0"/>
        <pt x="336" y="2544" on="1"/>
        <pt x="238" y="2257" on="1"/>
        <pt x="221" y="2211" on="0"/>
        <pt x="194" y="2179" on="0"/>
      </contour>
    </TTGlyph>
    <TTGlyph name="Tbar" xMin="70" yMin="-25" xMax="2720" yMax="2822">
      <contour>
        <pt x="160" y="2179" on="1"/>
        <pt x="70" y="2179" on="0"/>
        <pt x="70" y="2236" on="1"/>
        <pt x="70" y="2242" on="0"/>
        <pt x="92" y="2306" on="1"/>
        <pt x="195" y="2597" on="0"/>
        <pt x="252" y="2777" on="0"/>
        <pt x="266" y="2801" on="0"/>
        <pt x="278" y="2815" on="0"/>
        <pt x="292" y="2818" on="1"/>
        <pt x="310" y="2822" on="0"/>
        <pt x="344" y="2822" on="1"/>
        <pt x="401" y="2822" on="0"/>
        <pt x="401" y="2761" on="1"/>
        <pt x="401" y="2744" on="1"/>
        <pt x="456" y="2720" on="0"/>
        <pt x="823" y="2720" on="1"/>
        <pt x="2159" y="2720" on="1"/>
        <pt x="2565" y="2720" on="0"/>
        <pt x="2572" y="2753" on="1"/>
        <pt x="2575" y="2790" on="0"/>
        <pt x="2602" y="2822" on="0"/>
        <pt x="2687" y="2822" on="0"/>
        <pt x="2720" y="2800" on="0"/>
        <pt x="2720" y="2765" on="1"/>
        <pt x="2683" y="2224" on="1"/>
        <pt x="2683" y="2196" on="0"/>
        <pt x="2641" y="2179" on="0"/>
        <pt x="2572" y="2179" on="0"/>
        <pt x="2548" y="2186" on="0"/>
        <pt x="2542" y="2196" on="1"/>
        <pt x="2535" y="2208" on="0"/>
        <pt x="2535" y="2241" on="1"/>
        <pt x="2560" y="2564" on="1"/>
        <pt x="2523" y="2580" on="0"/>
        <pt x="2134" y="2580" on="1"/>
        <pt x="1700" y="2580" on="1"/>
        <pt x="1670" y="2580" on="0"/>
        <pt x="1659" y="2511" on="1"/>
        <pt x="1520" y="1532" on="1"/>
        <pt x="1512" y="1489" on="0"/>
        <pt x="1526" y="1466" on="0"/>
        <pt x="1569" y="1466" on="1"/>
        <pt x="2195" y="1466" on="1"/>
        <pt x="2220" y="1466" on="0"/>
        <pt x="2220" y="1343" on="0"/>
        <pt x="2195" y="1343" on="1"/>
        <pt x="1536" y="1343" on="1"/>
        <pt x="1505" y="1343" on="0"/>
        <pt x="1492" y="1330" on="0"/>
        <pt x="1327" y="188" on="0"/>
        <pt x="1327" y="123" on="0"/>
        <pt x="1348" y="123" on="1"/>
        <pt x="1610" y="123" on="1"/>
        <pt x="1645" y="123" on="0"/>
        <pt x="1667" y="95" on="0"/>
        <pt x="1667" y="9" on="0"/>
        <pt x="1645" y="-25" on="0"/>
        <pt x="1610" y="-25" on="1"/>
        <pt x="1118" y="-12" on="1"/>
        <pt x="655" y="-25" on="1"/>
        <pt x="614" y="-25" on="0"/>
        <pt x="594" y="6" on="0"/>
        <pt x="594" y="103" on="0"/>
        <pt x="621" y="123" on="0"/>
        <pt x="672" y="123" on="1"/>
        <pt x="897" y="123" on="1"/>
        <pt x="936" y="194" on="0"/>
        <pt x="1106" y="1303" on="1"/>
        <pt x="1110" y="1333" on="0"/>
        <pt x="1095" y="1343" on="0"/>
        <pt x="1081" y="1343" on="1"/>
        <pt x="438" y="1343" on="1"/>
        <pt x="414" y="1343" on="0"/>
        <pt x="414" y="1466" on="0"/>
        <pt x="438" y="1466" on="1"/>
        <pt x="1069" y="1466" on="1"/>
        <pt x="1108" y="1468" on="1"/>
        <pt x="1116" y="1468" on="0"/>
        <pt x="1124" y="1476" on="0"/>
        <pt x="1130" y="1479" on="0"/>
        <pt x="1134" y="1496" on="0"/>
        <pt x="1135" y="1502" on="0"/>
        <pt x="1138" y="1529" on="0"/>
        <pt x="1286" y="2516" on="0"/>
        <pt x="1286" y="2537" on="1"/>
        <pt x="1286" y="2562" on="1"/>
        <pt x="1286" y="2580" on="0"/>
        <pt x="1274" y="2580" on="1"/>
        <pt x="713" y="2580" on="1"/>
        <pt x="348" y="2580" on="0"/>
        <pt x="336" y="2544" on="1"/>
        <pt x="238" y="2257" on="1"/>
        <pt x="221" y="2211" on="0"/>
        <pt x="194" y="2179" on="0"/>
      </contour>
    </TTGlyph>
    <TTGlyph name="Tcaron" xMin="70" yMin="-25" xMax="2720" yMax="3461">
      <component glyphName="uni030C.cap" x="2331" y="1159" flags="0x1004"/>
      <component glyphName="T" x="0" y="0" flags="0x1004"/>
    </TTGlyph>
    <TTGlyph name="Thorn" xMin="45" yMin="-25" xMax="2208" yMax="2753">
      <contour>
        <pt x="578" y="-12" on="1"/>
        <pt x="111" y="-25" on="1"/>
        <pt x="69" y="-25" on="0"/>
        <pt x="45" y="8" on="0"/>
        <pt x="45" y="102" on="0"/>
        <pt x="75" y="123" on="0"/>
        <pt x="127" y="123" on="1"/>
        <pt x="369" y="123" on="1"/>
        <pt x="406" y="235" on="0"/>
        <pt x="729" y="2406" on="0"/>
        <pt x="729" y="2605" on="0"/>
        <pt x="705" y="2605" on="1"/>
        <pt x="426" y="2605" on="1"/>
        <pt x="373" y="2605" on="0"/>
        <pt x="373" y="2728" on="0"/>
        <pt x="402" y="2753" on="0"/>
        <pt x="446" y="2753" on="1"/>
        <pt x="446" y="2753" on="0"/>
        <pt x="934" y="2740" on="1"/>
        <pt x="1389" y="2753" on="1"/>
        <pt x="1430" y="2753" on="0"/>
        <pt x="1450" y="2721" on="0"/>
        <pt x="1450" y="2624" on="0"/>
        <pt x="1423" y="2605" on="0"/>
        <pt x="1372" y="2605" on="1"/>
        <pt x="1135" y="2605" on="1"/>
        <pt x="1125" y="2587" on="0"/>
        <pt x="1088" y="2375" on="0"/>
        <pt x="1076" y="2305" on="1"/>
        <pt x="1053" y="2179" on="1"/>
        <pt x="1049" y="2163" on="0"/>
        <pt x="1049" y="2134" on="0"/>
        <pt x="1053" y="2130" on="0"/>
        <pt x="1071" y="2130" on="0"/>
        <pt x="1103" y="2134" on="1"/>
        <pt x="1199" y="2146" on="0"/>
        <pt x="1541" y="2146" on="0"/>
        <pt x="1874" y="2039" on="0"/>
        <pt x="1983" y="1944" on="1"/>
        <pt x="2208" y="1746" on="0"/>
        <pt x="2208" y="1434" on="1"/>
        <pt x="2208" y="1060" on="0"/>
        <pt x="1959" y="852" on="1"/>
        <pt x="1691" y="627" on="0"/>
        <pt x="1196" y="627" on="1"/>
        <pt x="885" y="635" on="1"/>
        <pt x="848" y="635" on="0"/>
        <pt x="825" y="618" on="0"/>
        <pt x="758" y="216" on="0"/>
        <pt x="758" y="131" on="1"/>
        <pt x="758" y="123" on="1"/>
        <pt x="1073" y="123" on="1"/>
        <pt x="1108" y="123" on="0"/>
        <pt x="1130" y="95" on="0"/>
        <pt x="1130" y="9" on="0"/>
        <pt x="1108" y="-25" on="0"/>
        <pt x="1073" y="-25" on="1"/>
      </contour>
      <contour>
        <pt x="848" y="771" on="1"/>
        <pt x="848" y="737" on="0"/>
        <pt x="1096" y="737" on="0"/>
        <pt x="1352" y="782" on="0"/>
        <pt x="1589" y="885" on="0"/>
        <pt x="1676" y="962" on="1"/>
        <pt x="1868" y="1129" on="0"/>
        <pt x="1868" y="1708" on="0"/>
        <pt x="1526" y="2023" on="0"/>
        <pt x="1196" y="2023" on="1"/>
        <pt x="1122" y="2023" on="0"/>
        <pt x="1035" y="2016" on="0"/>
        <pt x="1022" y="2005" on="0"/>
        <pt x="1016" y="1962" on="1"/>
        <pt x="967" y="1630" on="1"/>
        <pt x="848" y="872" on="0"/>
      </contour>
    </TTGlyph>
    <TTGlyph name="U" xMin="233" yMin="-41" xMax="3039" yMax="2732">
      <contour>
        <pt x="2634" y="2720" on="1"/>
        <pt x="2970" y="2732" on="1"/>
        <pt x="3013" y="2732" on="0"/>
        <pt x="3039" y="2699" on="0"/>
        <pt x="3039" y="2605" on="0"/>
        <pt x="3006" y="2585" on="0"/>
        <pt x="2953" y="2585" on="1"/>
        <pt x="2830" y="2585" on="1"/>
        <pt x="2811" y="2496" on="0"/>
        <pt x="2754" y="2163" on="0"/>
        <pt x="2678" y="1709" on="0"/>
        <pt x="2619" y="1357" on="0"/>
        <pt x="2561" y="1034" on="1"/>
        <pt x="2455" y="444" on="0"/>
        <pt x="2337" y="38" on="0"/>
        <pt x="2295" y="-8" on="0"/>
        <pt x="2260" y="-8" on="1"/>
        <pt x="2192" y="-8" on="0"/>
        <pt x="2187" y="49" on="1"/>
        <pt x="2182" y="93" on="0"/>
        <pt x="2174" y="172" on="1"/>
        <pt x="2161" y="311" on="0"/>
        <pt x="2143" y="311" on="0"/>
        <pt x="2122" y="302" on="0"/>
        <pt x="2085" y="281" on="0"/>
        <pt x="2049" y="261" on="0"/>
        <pt x="2019" y="244" on="1"/>
        <pt x="1531" y="-41" on="0"/>
        <pt x="1098" y="-41" on="1"/>
        <pt x="687" y="-41" on="0"/>
        <pt x="456" y="205" on="1"/>
        <pt x="299" y="371" on="0"/>
        <pt x="299" y="618" on="1"/>
        <pt x="299" y="814" on="0"/>
        <pt x="569" y="2478" on="0"/>
        <pt x="569" y="2576" on="1"/>
        <pt x="569" y="2585" on="1"/>
        <pt x="311" y="2585" on="1"/>
        <pt x="247" y="2585" on="0"/>
        <pt x="233" y="2632" on="0"/>
        <pt x="233" y="2707" on="0"/>
        <pt x="266" y="2732" on="0"/>
        <pt x="311" y="2732" on="1"/>
        <pt x="696" y="2720" on="1"/>
        <pt x="1114" y="2732" on="1"/>
        <pt x="1155" y="2732" on="0"/>
        <pt x="1176" y="2701" on="0"/>
        <pt x="1176" y="2604" on="0"/>
        <pt x="1149" y="2585" on="0"/>
        <pt x="1098" y="2585" on="1"/>
        <pt x="963" y="2585" on="1"/>
        <pt x="937" y="2533" on="0"/>
        <pt x="791" y="1732" on="0"/>
        <pt x="664" y="856" on="0"/>
        <pt x="664" y="613" on="0"/>
        <pt x="728" y="437" on="0"/>
        <pt x="823" y="326" on="0"/>
        <pt x="958" y="244" on="0"/>
        <pt x="1077" y="204" on="0"/>
        <pt x="1146" y="192" on="1"/>
        <pt x="1237" y="176" on="0"/>
        <pt x="1488" y="176" on="0"/>
        <pt x="1865" y="306" on="0"/>
        <pt x="1987" y="385" on="1"/>
        <pt x="2098" y="465" on="0"/>
        <pt x="2190" y="817" on="0"/>
        <pt x="2336" y="1658" on="0"/>
        <pt x="2360" y="1796" on="1"/>
        <pt x="2442" y="2282" on="0"/>
        <pt x="2470" y="2585" on="1"/>
        <pt x="2200" y="2585" on="1"/>
        <pt x="2133" y="2585" on="0"/>
        <pt x="2114" y="2633" on="0"/>
        <pt x="2114" y="2706" on="0"/>
        <pt x="2154" y="2732" on="0"/>
        <pt x="2200" y="2732" on="1"/>
      </contour>
    </TTGlyph>
    <TTGlyph name="Uacute" xMin="233" yMin="-41" xMax="3039" yMax="3482">
      <component glyphName="acutecomb.cap" x="2568" y="1147" flags="0x1004"/>
      <component glyphName="U" x="0" y="0" flags="0x1004"/>
    </TTGlyph>
    <TTGlyph name="Ubreve" xMin="233" yMin="-41" xMax="3039" yMax="3445">
      <component glyphName="uni0306.cap" x="2568" y="1147" flags="0x1004"/>
      <component glyphName="U" x="0" y="0" flags="0x1004"/>
    </TTGlyph>
    <TTGlyph name="Ucircumflex" xMin="233" yMin="-41" xMax="3039" yMax="3449">
      <component glyphName="uni0302.cap" x="2568" y="1147" flags="0x1004"/>
      <component glyphName="U" x="0" y="0" flags="0x1004"/>
    </TTGlyph>
    <TTGlyph name="Udieresis" xMin="233" yMin="-41" xMax="3039" yMax="3416">
      <component glyphName="uni0308.cap" x="2568" y="1147" flags="0x1004"/>
      <component glyphName="U" x="0" y="0" flags="0x1004"/>
    </TTGlyph>
    <TTGlyph name="Ugrave" xMin="233" yMin="-41" xMax="3039" yMax="3482">
      <component glyphName="gravecomb.cap" x="2568" y="1147" flags="0x1004"/>
      <component glyphName="U" x="0" y="0" flags="0x1004"/>
    </TTGlyph>
    <TTGlyph name="Uhungarumlaut" xMin="233" yMin="-41" xMax="3039" yMax="3482">
      <component glyphName="uni030B.cap" x="2568" y="1147" flags="0x1004"/>
      <component glyphName="U" x="0" y="0" flags="0x1004"/>
    </TTGlyph>
    <TTGlyph name="Umacron" xMin="233" yMin="-41" xMax="3039" yMax="3359">
      <component glyphName="uni0304.cap" x="2568" y="1147" flags="0x1004"/>
      <component glyphName="U" x="0" y="0" flags="0x1004"/>
    </TTGlyph>
    <TTGlyph name="Uogonek" xMin="233" yMin="-1167" xMax="3039" yMax="2732">
      <contour>
        <pt x="2634" y="2720" on="1"/>
        <pt x="2970" y="2732" on="1"/>
        <pt x="3013" y="2732" on="0"/>
        <pt x="3039" y="2699" on="0"/>
        <pt x="3039" y="2605" on="0"/>
        <pt x="3006" y="2585" on="0"/>
        <pt x="2953" y="2585" on="1"/>
        <pt x="2830" y="2585" on="1"/>
        <pt x="2811" y="2496" on="0"/>
        <pt x="2754" y="2163" on="0"/>
        <pt x="2678" y="1709" on="0"/>
        <pt x="2619" y="1357" on="0"/>
        <pt x="2561" y="1034" on="1"/>
        <pt x="2455" y="444" on="0"/>
        <pt x="2337" y="38" on="0"/>
        <pt x="2295" y="-8" on="0"/>
        <pt x="2260" y="-8" on="1"/>
        <pt x="2192" y="-8" on="0"/>
        <pt x="2187" y="49" on="1"/>
        <pt x="2182" y="93" on="0"/>
        <pt x="2174" y="172" on="1"/>
        <pt x="2161" y="311" on="0"/>
        <pt x="2142" y="311" on="0"/>
        <pt x="2017" y="186" on="0"/>
        <pt x="1926" y="93" on="0"/>
        <pt x="1776" y="-70" on="0"/>
        <pt x="1677" y="-192" on="0"/>
        <pt x="1559" y="-356" on="0"/>
        <pt x="1524" y="-424" on="1"/>
        <pt x="1442" y="-585" on="0"/>
        <pt x="1442" y="-773" on="0"/>
        <pt x="1483" y="-893" on="0"/>
        <pt x="1582" y="-979" on="0"/>
        <pt x="1714" y="-979" on="0"/>
        <pt x="1851" y="-923" on="0"/>
        <pt x="1896" y="-889" on="1"/>
        <pt x="2017" y="-799" on="0"/>
        <pt x="2044" y="-799" on="0"/>
        <pt x="2077" y="-854" on="0"/>
        <pt x="2077" y="-873" on="0"/>
        <pt x="2015" y="-937" on="0"/>
        <pt x="1898" y="-1026" on="0"/>
        <pt x="1826" y="-1068" on="1"/>
        <pt x="1652" y="-1167" on="0"/>
        <pt x="1332" y="-1167" on="0"/>
        <pt x="1143" y="-965" on="0"/>
        <pt x="1143" y="-811" on="1"/>
        <pt x="1143" y="-643" on="0"/>
        <pt x="1302" y="-402" on="0"/>
        <pt x="1398" y="-274" on="0"/>
        <pt x="1490" y="-184" on="1"/>
        <pt x="1654" y="-23" on="0"/>
        <pt x="1860" y="160" on="1"/>
        <pt x="1449" y="-41" on="0"/>
        <pt x="1098" y="-41" on="1"/>
        <pt x="687" y="-41" on="0"/>
        <pt x="456" y="205" on="1"/>
        <pt x="299" y="371" on="0"/>
        <pt x="299" y="618" on="1"/>
        <pt x="299" y="814" on="0"/>
        <pt x="569" y="2478" on="0"/>
        <pt x="569" y="2576" on="1"/>
        <pt x="569" y="2585" on="1"/>
        <pt x="311" y="2585" on="1"/>
        <pt x="247" y="2585" on="0"/>
        <pt x="233" y="2632" on="0"/>
        <pt x="233" y="2707" on="0"/>
        <pt x="266" y="2732" on="0"/>
        <pt x="311" y="2732" on="1"/>
        <pt x="696" y="2720" on="1"/>
        <pt x="1114" y="2732" on="1"/>
        <pt x="1155" y="2732" on="0"/>
        <pt x="1176" y="2701" on="0"/>
        <pt x="1176" y="2604" on="0"/>
        <pt x="1149" y="2585" on="0"/>
        <pt x="1098" y="2585" on="1"/>
        <pt x="963" y="2585" on="1"/>
        <pt x="937" y="2533" on="0"/>
        <pt x="791" y="1732" on="0"/>
        <pt x="664" y="856" on="0"/>
        <pt x="664" y="613" on="0"/>
        <pt x="728" y="437" on="0"/>
        <pt x="823" y="326" on="0"/>
        <pt x="958" y="244" on="0"/>
        <pt x="1077" y="204" on="0"/>
        <pt x="1146" y="192" on="1"/>
        <pt x="1237" y="176" on="0"/>
        <pt x="1488" y="176" on="0"/>
        <pt x="1870" y="306" on="0"/>
        <pt x="1991" y="385" on="1"/>
        <pt x="2097" y="461" on="0"/>
        <pt x="2190" y="817" on="0"/>
        <pt x="2336" y="1658" on="0"/>
        <pt x="2360" y="1796" on="1"/>
        <pt x="2442" y="2282" on="0"/>
        <pt x="2470" y="2585" on="1"/>
        <pt x="2200" y="2585" on="1"/>
        <pt x="2133" y="2585" on="0"/>
        <pt x="2114" y="2633" on="0"/>
        <pt x="2114" y="2706" on="0"/>
        <pt x="2154" y="2732" on="0"/>
        <pt x="2200" y="2732" on="1"/>
      </contour>
    </TTGlyph>
    <TTGlyph name="Uring" xMin="233" yMin="-41" xMax="3039" yMax="3490">
      <component glyphName="uni030A.cap" x="2568" y="1147" flags="0x1004"/>
      <component glyphName="U" x="0" y="0" flags="0x1004"/>
    </TTGlyph>
    <TTGlyph name="Utilde" xMin="233" yMin="-41" xMax="3039" yMax="3396">
      <component glyphName="tildecomb.cap" x="2568" y="1147" flags="0x1004"/>
      <component glyphName="U" x="0" y="0" flags="0x1004"/>
    </TTGlyph>
    <TTGlyph name="V" xMin="70" yMin="-82" xMax="2658" yMax="2732">
      <contour>
        <pt x="2347" y="2720" on="1"/>
        <pt x="2585" y="2732" on="1"/>
        <pt x="2629" y="2732" on="0"/>
        <pt x="2658" y="2700" on="0"/>
        <pt x="2658" y="2606" on="0"/>
        <pt x="2622" y="2585" on="0"/>
        <pt x="2511" y="2585" on="0"/>
        <pt x="2501" y="2583" on="1"/>
        <pt x="2489" y="2581" on="0"/>
        <pt x="2482" y="2560" on="1"/>
        <pt x="1196" y="356" on="1"/>
        <pt x="1181" y="329" on="0"/>
        <pt x="1033" y="151" on="0"/>
        <pt x="975" y="61" on="1"/>
        <pt x="878" y="-82" on="0"/>
        <pt x="771" y="-82" on="0"/>
        <pt x="741" y="12" on="0"/>
        <pt x="642" y="731" on="0"/>
        <pt x="351" y="2506" on="0"/>
        <pt x="315" y="2585" on="1"/>
        <pt x="156" y="2585" on="1"/>
        <pt x="89" y="2585" on="0"/>
        <pt x="70" y="2633" on="0"/>
        <pt x="70" y="2706" on="0"/>
        <pt x="110" y="2732" on="0"/>
        <pt x="156" y="2732" on="1"/>
        <pt x="532" y="2720" on="1"/>
        <pt x="963" y="2732" on="1"/>
        <pt x="1006" y="2732" on="0"/>
        <pt x="1032" y="2699" on="0"/>
        <pt x="1032" y="2605" on="0"/>
        <pt x="999" y="2585" on="0"/>
        <pt x="946" y="2585" on="1"/>
        <pt x="721" y="2585" on="1"/>
        <pt x="717" y="2585" on="0"/>
        <pt x="717" y="2490" on="0"/>
        <pt x="970" y="701" on="0"/>
        <pt x="1031" y="369" on="0"/>
        <pt x="1050" y="369" on="0"/>
        <pt x="1112" y="469" on="1"/>
        <pt x="1335" y="828" on="0"/>
        <pt x="1749" y="1614" on="1"/>
        <pt x="2232" y="2535" on="1"/>
        <pt x="2235" y="2543" on="0"/>
        <pt x="2240" y="2552" on="1"/>
        <pt x="2249" y="2571" on="0"/>
        <pt x="2249" y="2585" on="0"/>
        <pt x="2220" y="2585" on="1"/>
        <pt x="1946" y="2585" on="1"/>
        <pt x="1879" y="2585" on="0"/>
        <pt x="1860" y="2633" on="0"/>
        <pt x="1860" y="2706" on="0"/>
        <pt x="1896" y="2732" on="0"/>
        <pt x="1942" y="2732" on="1"/>
      </contour>
    </TTGlyph>
    <TTGlyph name="W" xMin="70" yMin="-83" xMax="4067" yMax="2732">
      <contour>
        <pt x="3932" y="2585" on="1"/>
        <pt x="3900" y="2584" on="1"/>
        <pt x="3893" y="2584" on="0"/>
        <pt x="3884" y="2580" on="0"/>
        <pt x="3876" y="2579" on="0"/>
        <pt x="3868" y="2568" on="0"/>
        <pt x="3863" y="2565" on="0"/>
        <pt x="3854" y="2548" on="0"/>
        <pt x="3850" y="2540" on="0"/>
        <pt x="3838" y="2514" on="0"/>
        <pt x="3778" y="2398" on="0"/>
        <pt x="3511" y="1876" on="0"/>
        <pt x="3437" y="1733" on="1"/>
        <pt x="3225" y="1324" on="0"/>
        <pt x="3039" y="995" on="1"/>
        <pt x="2679" y="356" on="1"/>
        <pt x="2664" y="326" on="0"/>
        <pt x="2515" y="144" on="0"/>
        <pt x="2364" y="-82" on="0"/>
        <pt x="2254" y="-82" on="0"/>
        <pt x="2224" y="12" on="0"/>
        <pt x="2044" y="1210" on="0"/>
        <pt x="1952" y="1741" on="0"/>
        <pt x="1946" y="1741" on="0"/>
        <pt x="1921" y="1700" on="1"/>
        <pt x="1171" y="356" on="1"/>
        <pt x="1155" y="328" on="0"/>
        <pt x="1008" y="147" on="0"/>
        <pt x="950" y="60" on="1"/>
        <pt x="857" y="-82" on="0"/>
        <pt x="755" y="-82" on="0"/>
        <pt x="724" y="13" on="0"/>
        <pt x="628" y="711" on="0"/>
        <pt x="342" y="2499" on="0"/>
        <pt x="311" y="2585" on="1"/>
        <pt x="156" y="2585" on="1"/>
        <pt x="89" y="2585" on="0"/>
        <pt x="70" y="2633" on="0"/>
        <pt x="70" y="2706" on="0"/>
        <pt x="110" y="2732" on="0"/>
        <pt x="156" y="2732" on="1"/>
        <pt x="532" y="2720" on="1"/>
        <pt x="938" y="2732" on="1"/>
        <pt x="981" y="2732" on="0"/>
        <pt x="1008" y="2699" on="0"/>
        <pt x="1008" y="2605" on="0"/>
        <pt x="975" y="2585" on="0"/>
        <pt x="922" y="2585" on="1"/>
        <pt x="705" y="2585" on="1"/>
        <pt x="700" y="2585" on="0"/>
        <pt x="700" y="2497" on="0"/>
        <pt x="810" y="1678" on="1"/>
        <pt x="983" y="385" on="0"/>
        <pt x="1008" y="385" on="1"/>
        <pt x="1014" y="385" on="0"/>
        <pt x="1305" y="864" on="0"/>
        <pt x="1908" y="1987" on="0"/>
        <pt x="1912" y="2023" on="0"/>
        <pt x="1853" y="2541" on="0"/>
        <pt x="1839" y="2585" on="1"/>
        <pt x="1667" y="2585" on="1"/>
        <pt x="1600" y="2585" on="0"/>
        <pt x="1581" y="2633" on="0"/>
        <pt x="1581" y="2706" on="0"/>
        <pt x="1621" y="2732" on="0"/>
        <pt x="1667" y="2732" on="1"/>
        <pt x="2015" y="2720" on="1"/>
        <pt x="2535" y="2732" on="1"/>
        <pt x="2579" y="2732" on="0"/>
        <pt x="2609" y="2700" on="0"/>
        <pt x="2609" y="2606" on="0"/>
        <pt x="2573" y="2585" on="0"/>
        <pt x="2519" y="2585" on="1"/>
        <pt x="2224" y="2585" on="1"/>
        <pt x="2220" y="2573" on="0"/>
        <pt x="2220" y="2499" on="0"/>
        <pt x="2269" y="2072" on="1"/>
        <pt x="2411" y="835" on="0"/>
        <pt x="2474" y="414" on="1"/>
        <pt x="2487" y="340" on="0"/>
        <pt x="2506" y="340" on="0"/>
        <pt x="2697" y="679" on="0"/>
        <pt x="3483" y="2227" on="0"/>
        <pt x="3636" y="2543" on="0"/>
        <pt x="3640" y="2552" on="1"/>
        <pt x="3650" y="2571" on="0"/>
        <pt x="3650" y="2585" on="0"/>
        <pt x="3621" y="2585" on="1"/>
        <pt x="3359" y="2585" on="1"/>
        <pt x="3292" y="2585" on="0"/>
        <pt x="3273" y="2633" on="0"/>
        <pt x="3273" y="2706" on="0"/>
        <pt x="3309" y="2732" on="0"/>
        <pt x="3355" y="2732" on="1"/>
        <pt x="3748" y="2720" on="1"/>
        <pt x="3994" y="2732" on="1"/>
        <pt x="4038" y="2732" on="0"/>
        <pt x="4067" y="2700" on="0"/>
        <pt x="4067" y="2606" on="0"/>
        <pt x="4031" y="2585" on="0"/>
        <pt x="3977" y="2585" on="1"/>
      </contour>
    </TTGlyph>
    <TTGlyph name="Wcircumflex" xMin="70" yMin="-82" xMax="4067" yMax="3449">
      <component glyphName="uni0302.cap" x="2998" y="1147" flags="0x1004"/>
      <component glyphName="W" x="0" y="0" flags="0x1004"/>
    </TTGlyph>
    <TTGlyph name="X" xMin="70" yMin="-25" xMax="2638" yMax="2732">
      <contour>
        <pt x="406" y="-12" on="1"/>
        <pt x="147" y="-25" on="1"/>
        <pt x="104" y="-25" on="0"/>
        <pt x="70" y="2" on="0"/>
        <pt x="70" y="97" on="0"/>
        <pt x="105" y="123" on="0"/>
        <pt x="147" y="123" on="1"/>
        <pt x="254" y="123" on="1"/>
        <pt x="285" y="137" on="0"/>
        <pt x="1051" y="1127" on="0"/>
        <pt x="1246" y="1363" on="0"/>
        <pt x="1249" y="1386" on="0"/>
        <pt x="1237" y="1413" on="1"/>
        <pt x="725" y="2454" on="1"/>
        <pt x="667" y="2575" on="0"/>
        <pt x="647" y="2585" on="1"/>
        <pt x="471" y="2585" on="1"/>
        <pt x="404" y="2585" on="0"/>
        <pt x="385" y="2633" on="0"/>
        <pt x="385" y="2706" on="0"/>
        <pt x="425" y="2732" on="0"/>
        <pt x="471" y="2732" on="1"/>
        <pt x="860" y="2720" on="1"/>
        <pt x="1278" y="2732" on="1"/>
        <pt x="1321" y="2732" on="0"/>
        <pt x="1348" y="2699" on="0"/>
        <pt x="1348" y="2605" on="0"/>
        <pt x="1315" y="2585" on="0"/>
        <pt x="1262" y="2585" on="1"/>
        <pt x="1057" y="2585" on="1"/>
        <pt x="1057" y="2580" on="0"/>
        <pt x="1070" y="2550" on="0"/>
        <pt x="1087" y="2490" on="0"/>
        <pt x="1220" y="2188" on="1"/>
        <pt x="1473" y="1610" on="0"/>
        <pt x="1495" y="1610" on="1"/>
        <pt x="1509" y="1610" on="0"/>
        <pt x="1800" y="2025" on="1"/>
        <pt x="2175" y="2558" on="0"/>
        <pt x="2175" y="2580" on="1"/>
        <pt x="2175" y="2585" on="1"/>
        <pt x="1987" y="2585" on="1"/>
        <pt x="1934" y="2585" on="0"/>
        <pt x="1901" y="2605" on="0"/>
        <pt x="1901" y="2699" on="0"/>
        <pt x="1927" y="2732" on="0"/>
        <pt x="1970" y="2732" on="1"/>
        <pt x="2249" y="2720" on="1"/>
        <pt x="2560" y="2732" on="1"/>
        <pt x="2603" y="2732" on="0"/>
        <pt x="2638" y="2705" on="0"/>
        <pt x="2638" y="2610" on="0"/>
        <pt x="2603" y="2585" on="0"/>
        <pt x="2560" y="2585" on="1"/>
        <pt x="2445" y="2585" on="1"/>
        <pt x="2381" y="2537" on="0"/>
        <pt x="1774" y="1755" on="1"/>
        <pt x="1573" y="1495" on="1"/>
        <pt x="1561" y="1480" on="0"/>
        <pt x="1561" y="1464" on="0"/>
        <pt x="1625" y="1348" on="0"/>
        <pt x="1808" y="1002" on="1"/>
        <pt x="2255" y="158" on="0"/>
        <pt x="2298" y="123" on="1"/>
        <pt x="2490" y="123" on="1"/>
        <pt x="2534" y="123" on="0"/>
        <pt x="2576" y="97" on="0"/>
        <pt x="2576" y="1" on="0"/>
        <pt x="2536" y="-25" on="0"/>
        <pt x="2490" y="-25" on="1"/>
        <pt x="2081" y="-12" on="1"/>
        <pt x="1606" y="-25" on="1"/>
        <pt x="1563" y="-25" on="0"/>
        <pt x="1536" y="8" on="0"/>
        <pt x="1536" y="102" on="0"/>
        <pt x="1569" y="123" on="0"/>
        <pt x="1622" y="123" on="1"/>
        <pt x="1815" y="123" on="1"/>
        <pt x="1855" y="127" on="1"/>
        <pt x="1855" y="130" on="0"/>
        <pt x="1842" y="157" on="0"/>
        <pt x="1797" y="270" on="0"/>
        <pt x="1617" y="648" on="0"/>
        <pt x="1377" y="1138" on="0"/>
        <pt x="1323" y="1249" on="0"/>
        <pt x="1312" y="1249" on="0"/>
        <pt x="1136" y="1026" on="0"/>
        <pt x="531" y="176" on="0"/>
        <pt x="528" y="127" on="1"/>
        <pt x="536" y="123" on="0"/>
        <pt x="569" y="123" on="1"/>
        <pt x="737" y="123" on="1"/>
        <pt x="790" y="123" on="0"/>
        <pt x="823" y="102" on="0"/>
        <pt x="823" y="8" on="0"/>
        <pt x="797" y="-25" on="0"/>
        <pt x="754" y="-25" on="1"/>
      </contour>
    </TTGlyph>
    <TTGlyph name="Y" xMin="70" yMin="-25" xMax="2441" yMax="2753">
      <contour>
        <pt x="938" y="-12" on="1"/>
        <pt x="545" y="-25" on="1"/>
        <pt x="505" y="-25" on="0"/>
        <pt x="483" y="9" on="0"/>
        <pt x="483" y="95" on="0"/>
        <pt x="511" y="123" on="0"/>
        <pt x="561" y="123" on="1"/>
        <pt x="741" y="123" on="1"/>
        <pt x="762" y="150" on="0"/>
        <pt x="882" y="887" on="0"/>
        <pt x="904" y="1013" on="0"/>
        <pt x="934" y="1186" on="0"/>
        <pt x="934" y="1233" on="1"/>
        <pt x="934" y="1244" on="0"/>
        <pt x="384" y="2508" on="0"/>
        <pt x="340" y="2605" on="1"/>
        <pt x="156" y="2605" on="1"/>
        <pt x="112" y="2605" on="0"/>
        <pt x="70" y="2631" on="0"/>
        <pt x="70" y="2727" on="0"/>
        <pt x="110" y="2753" on="0"/>
        <pt x="156" y="2753" on="1"/>
        <pt x="569" y="2740" on="1"/>
        <pt x="934" y="2753" on="1"/>
        <pt x="976" y="2753" on="0"/>
        <pt x="999" y="2720" on="0"/>
        <pt x="999" y="2625" on="0"/>
        <pt x="970" y="2605" on="0"/>
        <pt x="918" y="2605" on="1"/>
        <pt x="754" y="2605" on="1"/>
        <pt x="754" y="2601" on="0"/>
        <pt x="764" y="2570" on="0"/>
        <pt x="822" y="2375" on="0"/>
        <pt x="1197" y="1455" on="0"/>
        <pt x="1210" y="1438" on="0"/>
        <pt x="1220" y="1444" on="1"/>
        <pt x="1233" y="1453" on="0"/>
        <pt x="1260" y="1496" on="0"/>
        <pt x="1300" y="1557" on="0"/>
        <pt x="1512" y="1869" on="0"/>
        <pt x="1678" y="2118" on="0"/>
        <pt x="1768" y="2258" on="1"/>
        <pt x="1962" y="2557" on="0"/>
        <pt x="1962" y="2605" on="1"/>
        <pt x="1757" y="2605" on="1"/>
        <pt x="1704" y="2605" on="0"/>
        <pt x="1671" y="2625" on="0"/>
        <pt x="1671" y="2719" on="0"/>
        <pt x="1698" y="2753" on="0"/>
        <pt x="1741" y="2753" on="1"/>
        <pt x="2060" y="2740" on="1"/>
        <pt x="2376" y="2753" on="1"/>
        <pt x="2417" y="2753" on="0"/>
        <pt x="2441" y="2727" on="0"/>
        <pt x="2441" y="2629" on="0"/>
        <pt x="2416" y="2605" on="0"/>
        <pt x="2376" y="2605" on="1"/>
        <pt x="2220" y="2605" on="1"/>
        <pt x="2170" y="2555" on="0"/>
        <pt x="1474" y="1599" on="0"/>
        <pt x="1315" y="1356" on="1"/>
        <pt x="1293" y="1316" on="0"/>
        <pt x="1282" y="1266" on="1"/>
        <pt x="1143" y="426" on="1"/>
        <pt x="1102" y="177" on="0"/>
        <pt x="1102" y="123" on="0"/>
        <pt x="1106" y="123" on="1"/>
        <pt x="1368" y="123" on="1"/>
        <pt x="1403" y="123" on="0"/>
        <pt x="1425" y="95" on="0"/>
        <pt x="1425" y="9" on="0"/>
        <pt x="1403" y="-25" on="0"/>
        <pt x="1368" y="-25" on="1"/>
      </contour>
    </TTGlyph>
    <TTGlyph name="Yacute" xMin="70" yMin="-25" xMax="2441" yMax="3482">
      <component glyphName="acutecomb.cap" x="2216" y="1147" flags="0x1004"/>
      <component glyphName="Y" x="0" y="0" flags="0x1004"/>
    </TTGlyph>
    <TTGlyph name="Ycircumflex" xMin="70" yMin="-25" xMax="2441" yMax="3449">
      <component glyphName="uni0302.cap" x="2216" y="1147" flags="0x1004"/>
      <component glyphName="Y" x="0" y="0" flags="0x1004"/>
    </TTGlyph>
    <TTGlyph name="Ydieresis" xMin="70" yMin="-25" xMax="2441" yMax="3416">
      <component glyphName="uni0308.cap" x="2216" y="1147" flags="0x1004"/>
      <component glyphName="Y" x="0" y="0" flags="0x1004"/>
    </TTGlyph>
    <TTGlyph name="Z" xMin="131" yMin="-25" xMax="2343" yMax="2822">
      <contour>
        <pt x="2032" y="-25" on="1"/>
        <pt x="176" y="-12" on="1"/>
        <pt x="149" y="-12" on="0"/>
        <pt x="131" y="18" on="0"/>
        <pt x="131" y="86" on="0"/>
        <pt x="887" y="1153" on="0"/>
        <pt x="1780" y="2398" on="0"/>
        <pt x="1865" y="2524" on="0"/>
        <pt x="1875" y="2539" on="0"/>
        <pt x="1876" y="2541" on="0"/>
        <pt x="1881" y="2552" on="0"/>
        <pt x="1878" y="2554" on="0"/>
        <pt x="1876" y="2561" on="0"/>
        <pt x="1866" y="2562" on="0"/>
        <pt x="1853" y="2564" on="0"/>
        <pt x="1843" y="2564" on="1"/>
        <pt x="758" y="2564" on="1"/>
        <pt x="595" y="2564" on="0"/>
        <pt x="581" y="2490" on="0"/>
        <pt x="554" y="2343" on="0"/>
        <pt x="533" y="2230" on="0"/>
        <pt x="527" y="2204" on="0"/>
        <pt x="524" y="2196" on="1"/>
        <pt x="517" y="2175" on="0"/>
        <pt x="487" y="2171" on="1"/>
        <pt x="467" y="2171" on="1"/>
        <pt x="369" y="2171" on="0"/>
        <pt x="369" y="2212" on="1"/>
        <pt x="369" y="2223" on="0"/>
        <pt x="388" y="2314" on="1"/>
        <pt x="448" y="2603" on="0"/>
        <pt x="467" y="2798" on="0"/>
        <pt x="476" y="2814" on="0"/>
        <pt x="488" y="2818" on="1"/>
        <pt x="502" y="2822" on="0"/>
        <pt x="614" y="2822" on="0"/>
        <pt x="614" y="2789" on="1"/>
        <pt x="614" y="2753" on="1"/>
        <pt x="614" y="2720" on="0"/>
        <pt x="836" y="2720" on="1"/>
        <pt x="2261" y="2720" on="1"/>
        <pt x="2304" y="2720" on="0"/>
        <pt x="2343" y="2689" on="0"/>
        <pt x="2343" y="2646" on="1"/>
        <pt x="2343" y="2618" on="0"/>
        <pt x="1673" y="1655" on="0"/>
        <pt x="1642" y="1610" on="0"/>
        <pt x="1593" y="1540" on="0"/>
        <pt x="1469" y="1360" on="0"/>
        <pt x="1166" y="924" on="0"/>
        <pt x="965" y="635" on="0"/>
        <pt x="866" y="490" on="1"/>
        <pt x="664" y="197" on="0"/>
        <pt x="659" y="143" on="0"/>
        <pt x="692" y="143" on="1"/>
        <pt x="1950" y="156" on="1"/>
        <pt x="1998" y="156" on="0"/>
        <pt x="2035" y="265" on="0"/>
        <pt x="2109" y="582" on="1"/>
        <pt x="2117" y="614" on="0"/>
        <pt x="2269" y="614" on="0"/>
        <pt x="2269" y="561" on="1"/>
        <pt x="2269" y="544" on="0"/>
        <pt x="2145" y="76" on="0"/>
        <pt x="2120" y="-25" on="0"/>
      </contour>
    </TTGlyph>
    <TTGlyph name="Zacute" xMin="131" yMin="-25" xMax="2343" yMax="3482">
      <component glyphName="acutecomb.cap" x="2269" y="1147" flags="0x1004"/>
      <component glyphName="Z" x="0" y="0" flags="0x1004"/>
    </TTGlyph>
    <TTGlyph name="Zcaron" xMin="131" yMin="-25" xMax="2343" yMax="3449">
      <component glyphName="uni030C.cap" x="2269" y="1147" flags="0x1004"/>
      <component glyphName="Z" x="0" y="0" flags="0x1004"/>
    </TTGlyph>
    <TTGlyph name="Zdotaccent" xMin="131" yMin="-25" xMax="2343" yMax="3436">
      <component glyphName="uni0307.cap" x="2269" y="1147" flags="0x1004"/>
      <component glyphName="Z" x="0" y="0" flags="0x1004"/>
    </TTGlyph>
    <TTGlyph name="a" xMin="90" yMin="-57" xMax="1683" yMax="1597">
      <contour>
        <pt x="1151" y="-57" on="1"/>
        <pt x="1028" y="-57" on="0"/>
        <pt x="1028" y="53" on="1"/>
        <pt x="1028" y="183" on="0"/>
        <pt x="1225" y="819" on="1"/>
        <pt x="999" y="443" on="0"/>
        <pt x="650" y="82" on="0"/>
        <pt x="608" y="46" on="1"/>
        <pt x="496" y="-48" on="0"/>
        <pt x="383" y="-53" on="1"/>
        <pt x="376" y="-53" on="0"/>
        <pt x="369" y="-53" on="1"/>
        <pt x="237" y="-53" on="0"/>
        <pt x="90" y="116" on="0"/>
        <pt x="90" y="346" on="0"/>
        <pt x="128" y="588" on="0"/>
        <pt x="207" y="849" on="0"/>
        <pt x="319" y="1100" on="0"/>
        <pt x="478" y="1326" on="0"/>
        <pt x="570" y="1412" on="1"/>
        <pt x="771" y="1597" on="0"/>
        <pt x="1032" y="1597" on="1"/>
        <pt x="1072" y="1597" on="0"/>
        <pt x="1224" y="1525" on="0"/>
        <pt x="1274" y="1454" on="0"/>
        <pt x="1292" y="1424" on="1"/>
        <pt x="1330" y="1364" on="0"/>
        <pt x="1336" y="1364" on="1"/>
        <pt x="1352" y="1364" on="0"/>
        <pt x="1393" y="1532" on="1"/>
        <pt x="1405" y="1585" on="0"/>
        <pt x="1585" y="1585" on="1"/>
        <pt x="1651" y="1585" on="0"/>
        <pt x="1651" y="1528" on="0"/>
        <pt x="1568" y="1240" on="1"/>
        <pt x="1319" y="376" on="0"/>
        <pt x="1319" y="188" on="0"/>
        <pt x="1364" y="188" on="1"/>
        <pt x="1394" y="188" on="0"/>
        <pt x="1614" y="418" on="0"/>
        <pt x="1646" y="418" on="0"/>
        <pt x="1683" y="375" on="0"/>
        <pt x="1683" y="336" on="0"/>
        <pt x="1567" y="209" on="0"/>
        <pt x="1407" y="61" on="0"/>
        <pt x="1215" y="-57" on="0"/>
      </contour>
      <contour>
        <pt x="480" y="865" on="0"/>
        <pt x="389" y="519" on="0"/>
        <pt x="389" y="349" on="0"/>
        <pt x="394" y="291" on="0"/>
        <pt x="404" y="257" on="1"/>
        <pt x="423" y="188" on="0"/>
        <pt x="552" y="188" on="0"/>
        <pt x="739" y="336" on="0"/>
        <pt x="840" y="454" on="1"/>
        <pt x="1048" y="700" on="0"/>
        <pt x="1212" y="971" on="1"/>
        <pt x="1241" y="1019" on="0"/>
        <pt x="1274" y="1159" on="0"/>
        <pt x="1274" y="1235" on="0"/>
        <pt x="1202" y="1323" on="0"/>
        <pt x="1148" y="1350" on="1"/>
        <pt x="1033" y="1409" on="0"/>
        <pt x="830" y="1409" on="0"/>
        <pt x="625" y="1185" on="0"/>
      </contour>
    </TTGlyph>
    <TTGlyph name="a.denom" xMin="111" yMin="-53" xMax="1442" yMax="1327">
      <contour>
        <pt x="1276" y="785" on="0"/>
        <pt x="1139" y="275" on="0"/>
        <pt x="1139" y="160" on="0"/>
        <pt x="1171" y="160" on="1"/>
        <pt x="1189" y="160" on="0"/>
        <pt x="1377" y="352" on="0"/>
        <pt x="1408" y="352" on="0"/>
        <pt x="1442" y="311" on="0"/>
        <pt x="1442" y="275" on="0"/>
        <pt x="1345" y="168" on="0"/>
        <pt x="1278" y="106" on="1"/>
        <pt x="1104" y="-53" on="0"/>
        <pt x="995" y="-53" on="1"/>
        <pt x="951" y="-53" on="0"/>
        <pt x="889" y="1" on="0"/>
        <pt x="889" y="45" on="1"/>
        <pt x="889" y="167" on="0"/>
        <pt x="1036" y="631" on="1"/>
        <pt x="866" y="354" on="0"/>
        <pt x="680" y="168" on="1"/>
        <pt x="646" y="134" on="0"/>
        <pt x="604" y="92" on="0"/>
        <pt x="556" y="46" on="0"/>
        <pt x="538" y="33" on="0"/>
        <pt x="495" y="-2" on="0"/>
        <pt x="471" y="-13" on="0"/>
        <pt x="431" y="-35" on="0"/>
        <pt x="415" y="-38" on="1"/>
        <pt x="367" y="-49" on="0"/>
        <pt x="340" y="-49" on="1"/>
        <pt x="229" y="-49" on="0"/>
        <pt x="111" y="93" on="0"/>
        <pt x="111" y="287" on="0"/>
        <pt x="142" y="487" on="0"/>
        <pt x="209" y="705" on="0"/>
        <pt x="303" y="914" on="0"/>
        <pt x="436" y="1102" on="0"/>
        <pt x="514" y="1172" on="1"/>
        <pt x="687" y="1327" on="0"/>
        <pt x="905" y="1327" on="1"/>
        <pt x="948" y="1327" on="0"/>
        <pt x="1063" y="1269" on="0"/>
        <pt x="1086" y="1236" on="1"/>
        <pt x="1147" y="1144" on="0"/>
        <pt x="1151" y="1139" on="1"/>
        <pt x="1192" y="1239" on="0"/>
        <pt x="1192" y="1266" on="1"/>
        <pt x="1205" y="1319" on="0"/>
        <pt x="1413" y="1319" on="0"/>
        <pt x="1413" y="1282" on="1"/>
        <pt x="1413" y="1261" on="0"/>
      </contour>
      <contour>
        <pt x="442" y="160" on="1"/>
        <pt x="587" y="160" on="0"/>
        <pt x="894" y="587" on="1"/>
        <pt x="971" y="695" on="0"/>
        <pt x="1018" y="770" on="1"/>
        <pt x="1090" y="886" on="0"/>
        <pt x="1090" y="1033" on="0"/>
        <pt x="1044" y="1076" on="1"/>
        <pt x="954" y="1159" on="0"/>
        <pt x="732" y="1159" on="0"/>
        <pt x="554" y="977" on="0"/>
        <pt x="494" y="846" on="1"/>
        <pt x="360" y="553" on="0"/>
        <pt x="360" y="160" on="0"/>
      </contour>
    </TTGlyph>
    <TTGlyph name="a.numer" xMin="111" yMin="971" xMax="1442" yMax="2351">
      <component glyphName="a.denom" x="0" y="1024" flags="0x1004"/>
    </TTGlyph>
    <TTGlyph name="a.sub" xMin="111" yMin="-667" xMax="1442" yMax="713">
      <component glyphName="a.denom" x="0" y="-614" flags="0x1004"/>
    </TTGlyph>
    <TTGlyph name="a.sup" xMin="111" yMin="1381" xMax="1442" yMax="2761">
      <component glyphName="a.denom" x="0" y="1434" flags="0x1004"/>
    </TTGlyph>
    <TTGlyph name="aacute" xMin="90" yMin="-57" xMax="1683" yMax="2486">
      <component glyphName="acutecomb" x="1982" y="0" flags="0x1004"/>
      <component glyphName="a" x="0" y="0" flags="0x1004"/>
    </TTGlyph>
    <TTGlyph name="abreve" xMin="90" yMin="-57" xMax="1683" yMax="2404">
      <component glyphName="uni0306" x="1982" y="0" flags="0x1004"/>
      <component glyphName="a" x="0" y="0" flags="0x1004"/>
    </TTGlyph>
    <TTGlyph name="acircumflex" xMin="90" yMin="-57" xMax="1683" yMax="2404">
      <component glyphName="uni0302" x="1982" y="0" flags="0x1004"/>
      <component glyphName="a" x="0" y="0" flags="0x1004"/>
    </TTGlyph>
    <TTGlyph name="acute" xMin="692" yMin="1827" xMax="1237" yMax="2486">
      <component glyphName="acutecomb" x="1638" y="0" flags="0x1004"/>
    </TTGlyph>
    <TTGlyph name="acutecomb" xMin="-946" yMin="1827" xMax="-401" yMax="2486">
      <contour>
        <pt x="-918" y="1827" on="1"/>
        <pt x="-946" y="1827" on="0"/>
        <pt x="-946" y="1852" on="0"/>
        <pt x="-934" y="1876" on="1"/>
        <pt x="-684" y="2380" on="1"/>
        <pt x="-631" y="2486" on="0"/>
        <pt x="-480" y="2486" on="0"/>
        <pt x="-401" y="2431" on="0"/>
        <pt x="-401" y="2323" on="0"/>
        <pt x="-442" y="2277" on="1"/>
        <pt x="-815" y="1855" on="1"/>
        <pt x="-836" y="1827" on="0"/>
        <pt x="-856" y="1827" on="1"/>
      </contour>
    </TTGlyph>
    <TTGlyph name="acutecomb.cap" xMin="-909" yMin="1827" xMax="-340" yMax="2335">
      <contour>
        <pt x="-881" y="1827" on="1"/>
        <pt x="-909" y="1827" on="0"/>
        <pt x="-909" y="1864" on="0"/>
        <pt x="-897" y="1876" on="1"/>
        <pt x="-623" y="2228" on="1"/>
        <pt x="-539" y="2335" on="0"/>
        <pt x="-470" y="2335" on="1"/>
        <pt x="-340" y="2335" on="0"/>
        <pt x="-340" y="2236" on="1"/>
        <pt x="-340" y="2156" on="0"/>
        <pt x="-418" y="2101" on="1"/>
        <pt x="-758" y="1855" on="1"/>
        <pt x="-761" y="1853" on="0"/>
        <pt x="-770" y="1845" on="1"/>
        <pt x="-789" y="1827" on="0"/>
        <pt x="-803" y="1827" on="1"/>
      </contour>
    </TTGlyph>
    <TTGlyph name="adieresis" xMin="90" yMin="-57" xMax="1683" yMax="2392">
      <component glyphName="uni0308" x="1982" y="0" flags="0x1004"/>
      <component glyphName="a" x="0" y="0" flags="0x1004"/>
    </TTGlyph>
    <TTGlyph name="ae" xMin="90" yMin="-53" xMax="2535" yMax="1614">
      <contour>
        <pt x="1413" y="684" on="1"/>
        <pt x="1393" y="684" on="0"/>
        <pt x="1393" y="508" on="1"/>
        <pt x="1393" y="156" on="0"/>
        <pt x="1774" y="156" on="1"/>
        <pt x="1998" y="156" on="0"/>
        <pt x="2246" y="334" on="1"/>
        <pt x="2310" y="380" on="0"/>
        <pt x="2353" y="420" on="1"/>
        <pt x="2454" y="512" on="0"/>
        <pt x="2496" y="512" on="0"/>
        <pt x="2535" y="463" on="0"/>
        <pt x="2535" y="430" on="0"/>
        <pt x="2443" y="330" on="0"/>
        <pt x="2268" y="191" on="0"/>
        <pt x="2160" y="125" on="1"/>
        <pt x="1901" y="-33" on="0"/>
        <pt x="1626" y="-33" on="1"/>
        <pt x="1347" y="-33" on="0"/>
        <pt x="1202" y="126" on="1"/>
        <pt x="1098" y="242" on="0"/>
        <pt x="1098" y="566" on="0"/>
        <pt x="1114" y="647" on="1"/>
        <pt x="929" y="373" on="0"/>
        <pt x="650" y="82" on="0"/>
        <pt x="608" y="46" on="1"/>
        <pt x="496" y="-48" on="0"/>
        <pt x="383" y="-53" on="1"/>
        <pt x="376" y="-53" on="0"/>
        <pt x="369" y="-53" on="1"/>
        <pt x="237" y="-53" on="0"/>
        <pt x="90" y="116" on="0"/>
        <pt x="90" y="346" on="0"/>
        <pt x="128" y="588" on="0"/>
        <pt x="207" y="849" on="0"/>
        <pt x="319" y="1100" on="0"/>
        <pt x="478" y="1326" on="0"/>
        <pt x="570" y="1412" on="1"/>
        <pt x="771" y="1597" on="0"/>
        <pt x="1032" y="1597" on="1"/>
        <pt x="1202" y="1597" on="0"/>
        <pt x="1298" y="1425" on="1"/>
        <pt x="1331" y="1366" on="0"/>
        <pt x="1339" y="1364" on="1"/>
        <pt x="1350" y="1384" on="0"/>
        <pt x="1398" y="1545" on="0"/>
        <pt x="1421" y="1563" on="0"/>
        <pt x="1460" y="1573" on="0"/>
        <pt x="1475" y="1576" on="1"/>
        <pt x="1492" y="1578" on="0"/>
        <pt x="1651" y="1596" on="0"/>
        <pt x="1651" y="1552" on="1"/>
        <pt x="1651" y="1546" on="0"/>
        <pt x="1633" y="1476" on="0"/>
        <pt x="1630" y="1462" on="1"/>
        <pt x="1858" y="1614" on="0"/>
        <pt x="2114" y="1614" on="1"/>
        <pt x="2401" y="1614" on="0"/>
        <pt x="2482" y="1448" on="1"/>
        <pt x="2507" y="1397" on="0"/>
        <pt x="2507" y="1238" on="0"/>
        <pt x="2422" y="1064" on="0"/>
        <pt x="2348" y="996" on="1"/>
        <pt x="2202" y="859" on="0"/>
        <pt x="1729" y="684" on="0"/>
      </contour>
      <contour>
        <pt x="492" y="188" on="1"/>
        <pt x="556" y="188" on="0"/>
        <pt x="690" y="314" on="1"/>
        <pt x="973" y="580" on="0"/>
        <pt x="1212" y="971" on="1"/>
        <pt x="1241" y="1019" on="0"/>
        <pt x="1274" y="1159" on="0"/>
        <pt x="1274" y="1251" on="0"/>
        <pt x="1218" y="1304" on="1"/>
        <pt x="1107" y="1409" on="0"/>
        <pt x="950" y="1409" on="1"/>
        <pt x="875" y="1409" on="0"/>
        <pt x="710" y="1263" on="0"/>
        <pt x="573" y="1030" on="0"/>
        <pt x="517" y="895" on="1"/>
        <pt x="397" y="606" on="0"/>
        <pt x="397" y="188" on="0"/>
      </contour>
      <contour>
        <pt x="1511" y="999" on="1"/>
        <pt x="1454" y="862" on="0"/>
        <pt x="1454" y="815" on="1"/>
        <pt x="1454" y="803" on="0"/>
        <pt x="1626" y="803" on="0"/>
        <pt x="1890" y="877" on="0"/>
        <pt x="1992" y="944" on="1"/>
        <pt x="2216" y="1091" on="0"/>
        <pt x="2216" y="1335" on="1"/>
        <pt x="2216" y="1405" on="0"/>
        <pt x="2109" y="1491" on="0"/>
        <pt x="2023" y="1491" on="1"/>
        <pt x="1697" y="1491" on="0"/>
      </contour>
    </TTGlyph>
    <TTGlyph name="afii00208" xMin="29" yMin="705" xMax="3043" yMax="881">
      <component glyphName="emdash" x="0" y="0" flags="0x1004"/>
    </TTGlyph>
    <TTGlyph name="afii00208.u" xMin="29" yMin="1115" xMax="3043" yMax="1291">
      <component glyphName="emdash" x="0" y="410" flags="0x1004"/>
    </TTGlyph>
    <TTGlyph name="afii57929" xMin="1572" yMin="2007" xMax="1982" yMax="2720">
      <component glyphName="uni0315" x="1638" y="0" flags="0x1004"/>
    </TTGlyph>
    <TTGlyph name="agrave" xMin="90" yMin="-57" xMax="1683" yMax="2494">
      <component glyphName="gravecomb" x="1982" y="0" flags="0x1004"/>
      <component glyphName="a" x="0" y="0" flags="0x1004"/>
    </TTGlyph>
    <TTGlyph name="amacron" xMin="90" yMin="-57" xMax="1683" yMax="2253">
      <component glyphName="uni0304" x="1982" y="0" flags="0x1004"/>
      <component glyphName="a" x="0" y="0" flags="0x1004"/>
    </TTGlyph>
    <TTGlyph name="ampersand" xMin="131" yMin="-45" xMax="2851" yMax="2646">
      <contour>
        <pt x="2183" y="1262" on="1"/>
        <pt x="2187" y="1135" on="1"/>
        <pt x="2187" y="814" on="0"/>
        <pt x="2004" y="495" on="1"/>
        <pt x="1786" y="115" on="0"/>
        <pt x="1376" y="-2" on="1"/>
        <pt x="1223" y="-45" on="0"/>
        <pt x="834" y="-45" on="0"/>
        <pt x="484" y="89" on="0"/>
        <pt x="370" y="206" on="1"/>
        <pt x="131" y="451" on="0"/>
        <pt x="131" y="823" on="1"/>
        <pt x="131" y="1099" on="0"/>
        <pt x="312" y="1320" on="1"/>
        <pt x="366" y="1385" on="0"/>
        <pt x="508" y="1501" on="0"/>
        <pt x="511" y="1509" on="0"/>
        <pt x="444" y="1585" on="0"/>
        <pt x="414" y="1629" on="1"/>
        <pt x="328" y="1752" on="0"/>
        <pt x="328" y="2086" on="0"/>
        <pt x="419" y="2335" on="0"/>
        <pt x="503" y="2432" on="1"/>
        <pt x="687" y="2646" on="0"/>
        <pt x="1008" y="2646" on="1"/>
        <pt x="1176" y="2646" on="0"/>
        <pt x="1403" y="2549" on="0"/>
        <pt x="1491" y="2466" on="0"/>
        <pt x="1491" y="2400" on="1"/>
        <pt x="1491" y="2269" on="0"/>
        <pt x="1401" y="2179" on="1"/>
        <pt x="1359" y="2137" on="0"/>
        <pt x="1309" y="2202" on="1"/>
        <pt x="1166" y="2388" on="0"/>
        <pt x="909" y="2388" on="1"/>
        <pt x="797" y="2388" on="0"/>
        <pt x="597" y="2263" on="0"/>
        <pt x="479" y="2057" on="0"/>
        <pt x="479" y="1799" on="0"/>
        <pt x="619" y="1585" on="0"/>
        <pt x="709" y="1585" on="1"/>
        <pt x="934" y="1606" on="1"/>
        <pt x="1024" y="1606" on="0"/>
        <pt x="1024" y="1544" on="1"/>
        <pt x="1024" y="1495" on="0"/>
        <pt x="973" y="1450" on="1"/>
        <pt x="868" y="1356" on="0"/>
        <pt x="712" y="1356" on="0"/>
        <pt x="598" y="1413" on="1"/>
        <pt x="524" y="1399" on="0"/>
        <pt x="448" y="1280" on="1"/>
        <pt x="377" y="1170" on="0"/>
        <pt x="377" y="762" on="0"/>
        <pt x="600" y="411" on="0"/>
        <pt x="974" y="229" on="0"/>
        <pt x="1204" y="229" on="1"/>
        <pt x="1580" y="229" on="0"/>
        <pt x="1818" y="472" on="1"/>
        <pt x="2040" y="699" on="0"/>
        <pt x="2040" y="1085" on="1"/>
        <pt x="2040" y="1156" on="0"/>
        <pt x="2013" y="1329" on="0"/>
        <pt x="1999" y="1335" on="1"/>
        <pt x="1688" y="1450" on="0"/>
        <pt x="1420" y="1450" on="0"/>
        <pt x="1282" y="1334" on="0"/>
        <pt x="1282" y="1229" on="1"/>
        <pt x="1282" y="1062" on="0"/>
        <pt x="1492" y="1019" on="1"/>
        <pt x="1529" y="1011" on="0"/>
        <pt x="1544" y="1009" on="1"/>
        <pt x="1647" y="994" on="0"/>
        <pt x="1647" y="915" on="0"/>
        <pt x="1554" y="848" on="0"/>
        <pt x="1459" y="848" on="0"/>
        <pt x="1338" y="884" on="0"/>
        <pt x="1241" y="962" on="0"/>
        <pt x="1216" y="1006" on="1"/>
        <pt x="1167" y="1092" on="0"/>
        <pt x="1167" y="1282" on="0"/>
        <pt x="1261" y="1482" on="0"/>
        <pt x="1340" y="1545" on="1"/>
        <pt x="1505" y="1675" on="0"/>
        <pt x="1729" y="1675" on="1"/>
        <pt x="1848" y="1675" on="0"/>
        <pt x="2016" y="1609" on="1"/>
        <pt x="2336" y="1483" on="0"/>
        <pt x="2527" y="1483" on="1"/>
        <pt x="2625" y="1483" on="0"/>
        <pt x="2744" y="1604" on="0"/>
        <pt x="2744" y="1700" on="1"/>
        <pt x="2744" y="1946" on="0"/>
        <pt x="2413" y="1946" on="1"/>
        <pt x="2355" y="1946" on="0"/>
        <pt x="2355" y="1987" on="1"/>
        <pt x="2355" y="2055" on="0"/>
        <pt x="2460" y="2142" on="0"/>
        <pt x="2590" y="2142" on="0"/>
        <pt x="2706" y="2091" on="0"/>
        <pt x="2779" y="2012" on="0"/>
        <pt x="2804" y="1961" on="1"/>
        <pt x="2851" y="1868" on="0"/>
        <pt x="2851" y="1611" on="0"/>
        <pt x="2718" y="1389" on="0"/>
        <pt x="2473" y="1266" on="0"/>
        <pt x="2276" y="1266" on="0"/>
        <pt x="2201" y="1283" on="0"/>
        <pt x="2183" y="1279" on="0"/>
      </contour>
    </TTGlyph>
    <TTGlyph name="aogonek" xMin="90" yMin="-1167" xMax="1683" yMax="1597">
      <contour>
        <pt x="1485" y="952" on="0"/>
        <pt x="1319" y="334" on="0"/>
        <pt x="1319" y="188" on="0"/>
        <pt x="1364" y="188" on="1"/>
        <pt x="1394" y="188" on="0"/>
        <pt x="1614" y="418" on="0"/>
        <pt x="1646" y="418" on="0"/>
        <pt x="1683" y="375" on="0"/>
        <pt x="1683" y="344" on="0"/>
        <pt x="1671" y="327" on="1"/>
        <pt x="1594" y="217" on="0"/>
        <pt x="1239" y="-57" on="0"/>
        <pt x="1188" y="-111" on="1"/>
        <pt x="860" y="-447" on="0"/>
        <pt x="860" y="-725" on="1"/>
        <pt x="860" y="-819" on="0"/>
        <pt x="977" y="-979" on="0"/>
        <pt x="1112" y="-979" on="0"/>
        <pt x="1249" y="-923" on="0"/>
        <pt x="1294" y="-889" on="1"/>
        <pt x="1415" y="-799" on="0"/>
        <pt x="1441" y="-799" on="0"/>
        <pt x="1475" y="-854" on="0"/>
        <pt x="1475" y="-873" on="0"/>
        <pt x="1413" y="-937" on="0"/>
        <pt x="1296" y="-1026" on="0"/>
        <pt x="1224" y="-1068" on="1"/>
        <pt x="1050" y="-1167" on="0"/>
        <pt x="864" y="-1167" on="1"/>
        <pt x="778" y="-1167" on="0"/>
        <pt x="707" y="-1112" on="1"/>
        <pt x="561" y="-1000" on="0"/>
        <pt x="561" y="-811" on="1"/>
        <pt x="561" y="-713" on="0"/>
        <pt x="632" y="-574" on="0"/>
        <pt x="677" y="-494" on="0"/>
        <pt x="768" y="-384" on="0"/>
        <pt x="824" y="-316" on="0"/>
        <pt x="883" y="-256" on="1"/>
        <pt x="1024" y="-113" on="0"/>
        <pt x="1094" y="-49" on="1"/>
        <pt x="1028" y="-26" on="0"/>
        <pt x="1028" y="183" on="0"/>
        <pt x="1225" y="819" on="1"/>
        <pt x="999" y="443" on="0"/>
        <pt x="650" y="82" on="0"/>
        <pt x="608" y="46" on="1"/>
        <pt x="496" y="-48" on="0"/>
        <pt x="383" y="-53" on="1"/>
        <pt x="376" y="-53" on="0"/>
        <pt x="369" y="-53" on="1"/>
        <pt x="237" y="-53" on="0"/>
        <pt x="90" y="116" on="0"/>
        <pt x="90" y="346" on="0"/>
        <pt x="128" y="588" on="0"/>
        <pt x="207" y="849" on="0"/>
        <pt x="319" y="1100" on="0"/>
        <pt x="478" y="1326" on="0"/>
        <pt x="570" y="1412" on="1"/>
        <pt x="771" y="1597" on="0"/>
        <pt x="1032" y="1597" on="1"/>
        <pt x="1203" y="1597" on="0"/>
        <pt x="1298" y="1424" on="1"/>
        <pt x="1332" y="1364" on="0"/>
        <pt x="1337" y="1364" on="1"/>
        <pt x="1352" y="1364" on="0"/>
        <pt x="1393" y="1532" on="1"/>
        <pt x="1405" y="1585" on="0"/>
        <pt x="1585" y="1585" on="1"/>
        <pt x="1651" y="1585" on="0"/>
        <pt x="1651" y="1528" on="0"/>
      </contour>
      <contour>
        <pt x="492" y="188" on="1"/>
        <pt x="556" y="188" on="0"/>
        <pt x="690" y="314" on="1"/>
        <pt x="973" y="580" on="0"/>
        <pt x="1212" y="971" on="1"/>
        <pt x="1241" y="1019" on="0"/>
        <pt x="1274" y="1159" on="0"/>
        <pt x="1274" y="1251" on="0"/>
        <pt x="1218" y="1304" on="1"/>
        <pt x="1107" y="1409" on="0"/>
        <pt x="950" y="1409" on="1"/>
        <pt x="875" y="1409" on="0"/>
        <pt x="710" y="1263" on="0"/>
        <pt x="573" y="1030" on="0"/>
        <pt x="517" y="895" on="1"/>
        <pt x="397" y="606" on="0"/>
        <pt x="397" y="188" on="0"/>
      </contour>
    </TTGlyph>
    <TTGlyph name="aring" xMin="90" yMin="-57" xMax="1683" yMax="2466">
      <component glyphName="uni030A" x="1982" y="0" flags="0x1004"/>
      <component glyphName="a" x="0" y="0" flags="0x1004"/>
    </TTGlyph>
    <TTGlyph name="asciicircum" xMin="193" yMin="1249" xMax="1470" yMax="2601">
      <contour>
        <pt x="422" y="1262" on="1"/>
        <pt x="344" y="1249" on="0"/>
        <pt x="243" y="1249" on="0"/>
        <pt x="193" y="1266" on="1"/>
        <pt x="799" y="2593" on="1"/>
        <pt x="803" y="2597" on="1"/>
        <pt x="815" y="2601" on="0"/>
        <pt x="848" y="2601" on="0"/>
        <pt x="860" y="2597" on="1"/>
        <pt x="864" y="2593" on="1"/>
        <pt x="1470" y="1266" on="1"/>
        <pt x="1418" y="1249" on="0"/>
        <pt x="1310" y="1249" on="0"/>
        <pt x="1237" y="1262" on="1"/>
        <pt x="1233" y="1262" on="1"/>
        <pt x="823" y="2191" on="1"/>
        <pt x="430" y="1262" on="1"/>
      </contour>
    </TTGlyph>
    <TTGlyph name="asciitilde" xMin="172" yMin="430" xMax="3056" yMax="1225">
      <component glyphName="uni2053" x="0" y="0" flags="0x1004"/>
    </TTGlyph>
    <TTGlyph name="asterisk" xMin="111" yMin="1413" xMax="1491" yMax="2777">
      <contour>
        <pt x="188" y="1708" on="0"/>
        <pt x="111" y="1774" on="0"/>
        <pt x="111" y="1826" on="1"/>
        <pt x="111" y="1928" on="0"/>
        <pt x="213" y="1970" on="1"/>
        <pt x="259" y="1991" on="0"/>
        <pt x="581" y="2104" on="0"/>
        <pt x="675" y="2142" on="0"/>
        <pt x="700" y="2163" on="0"/>
        <pt x="688" y="2181" on="0"/>
        <pt x="644" y="2212" on="0"/>
        <pt x="613" y="2235" on="0"/>
        <pt x="317" y="2421" on="0"/>
        <pt x="221" y="2528" on="0"/>
        <pt x="221" y="2639" on="0"/>
        <pt x="287" y="2712" on="0"/>
        <pt x="336" y="2712" on="1"/>
        <pt x="424" y="2712" on="0"/>
        <pt x="514" y="2613" on="0"/>
        <pt x="605" y="2473" on="0"/>
        <pt x="713" y="2291" on="0"/>
        <pt x="738" y="2253" on="0"/>
        <pt x="751" y="2233" on="0"/>
        <pt x="755" y="2223" on="0"/>
        <pt x="764" y="2217" on="0"/>
        <pt x="764" y="2214" on="0"/>
        <pt x="772" y="2223" on="0"/>
        <pt x="773" y="2227" on="0"/>
        <pt x="784" y="2251" on="0"/>
        <pt x="801" y="2294" on="0"/>
        <pt x="836" y="2396" on="1"/>
        <pt x="919" y="2639" on="0"/>
        <pt x="949" y="2684" on="1"/>
        <pt x="1012" y="2777" on="0"/>
        <pt x="1150" y="2777" on="0"/>
        <pt x="1221" y="2696" on="0"/>
        <pt x="1221" y="2594" on="0"/>
        <pt x="1143" y="2482" on="0"/>
        <pt x="891" y="2262" on="0"/>
        <pt x="855" y="2223" on="0"/>
        <pt x="840" y="2206" on="0"/>
        <pt x="833" y="2199" on="0"/>
        <pt x="823" y="2187" on="0"/>
        <pt x="822" y="2182" on="0"/>
        <pt x="819" y="2174" on="0"/>
        <pt x="826" y="2171" on="0"/>
        <pt x="834" y="2166" on="0"/>
        <pt x="842" y="2164" on="1"/>
        <pt x="883" y="2157" on="0"/>
        <pt x="1312" y="2147" on="0"/>
        <pt x="1364" y="2130" on="1"/>
        <pt x="1491" y="2089" on="0"/>
        <pt x="1491" y="1991" on="1"/>
        <pt x="1491" y="1930" on="0"/>
        <pt x="1407" y="1860" on="0"/>
        <pt x="1306" y="1860" on="0"/>
        <pt x="1151" y="1928" on="0"/>
        <pt x="927" y="2047" on="0"/>
        <pt x="871" y="2072" on="0"/>
        <pt x="842" y="2086" on="0"/>
        <pt x="833" y="2091" on="0"/>
        <pt x="819" y="2093" on="0"/>
        <pt x="817" y="2088" on="0"/>
        <pt x="816" y="2081" on="1"/>
        <pt x="813" y="2057" on="0"/>
        <pt x="856" y="1924" on="1"/>
        <pt x="942" y="1659" on="0"/>
        <pt x="942" y="1543" on="0"/>
        <pt x="930" y="1506" on="1"/>
        <pt x="899" y="1413" on="0"/>
        <pt x="737" y="1413" on="0"/>
        <pt x="659" y="1520" on="0"/>
        <pt x="659" y="1617" on="0"/>
        <pt x="684" y="1760" on="0"/>
        <pt x="722" y="1942" on="0"/>
        <pt x="737" y="2031" on="0"/>
        <pt x="737" y="2089" on="0"/>
        <pt x="712" y="2088" on="0"/>
        <pt x="648" y="2026" on="0"/>
        <pt x="400" y="1766" on="0"/>
        <pt x="299" y="1708" on="0"/>
      </contour>
    </TTGlyph>
    <TTGlyph name="at" xMin="193" yMin="-475" xMax="3064" yMax="2421">
      <contour>
        <pt x="1536" y="467" on="1"/>
        <pt x="1286" y="217" on="0"/>
        <pt x="1073" y="217" on="1"/>
        <pt x="991" y="217" on="0"/>
        <pt x="932" y="270" on="1"/>
        <pt x="823" y="368" on="0"/>
        <pt x="823" y="569" on="1"/>
        <pt x="823" y="821" on="0"/>
        <pt x="1118" y="1202" on="1"/>
        <pt x="1350" y="1500" on="0"/>
        <pt x="1645" y="1596" on="1"/>
        <pt x="1752" y="1630" on="0"/>
        <pt x="1885" y="1630" on="0"/>
        <pt x="1945" y="1618" on="0"/>
        <pt x="1985" y="1606" on="0"/>
        <pt x="1994" y="1610" on="0"/>
        <pt x="2070" y="1704" on="0"/>
        <pt x="2116" y="1733" on="0"/>
        <pt x="2159" y="1733" on="1"/>
        <pt x="2273" y="1733" on="0"/>
        <pt x="2273" y="1667" on="1"/>
        <pt x="2273" y="1636" on="0"/>
        <pt x="2261" y="1606" on="1"/>
        <pt x="2126" y="1315" on="0"/>
        <pt x="1810" y="556" on="0"/>
        <pt x="1810" y="471" on="1"/>
        <pt x="1810" y="392" on="0"/>
        <pt x="1821" y="380" on="1"/>
        <pt x="1843" y="356" on="0"/>
        <pt x="1880" y="356" on="1"/>
        <pt x="2050" y="356" on="0"/>
        <pt x="2462" y="557" on="0"/>
        <pt x="2616" y="711" on="1"/>
        <pt x="2916" y="1011" on="0"/>
        <pt x="2916" y="1380" on="1"/>
        <pt x="2916" y="1918" on="0"/>
        <pt x="2522" y="2144" on="1"/>
        <pt x="2283" y="2281" on="0"/>
        <pt x="1929" y="2281" on="1"/>
        <pt x="1516" y="2281" on="0"/>
        <pt x="1152" y="2080" on="1"/>
        <pt x="796" y="1885" on="0"/>
        <pt x="579" y="1538" on="1"/>
        <pt x="356" y="1181" on="0"/>
        <pt x="356" y="741" on="1"/>
        <pt x="356" y="499" on="0"/>
        <pt x="538" y="90" on="0"/>
        <pt x="690" y="-46" on="1"/>
        <pt x="1013" y="-332" on="0"/>
        <pt x="1458" y="-332" on="1"/>
        <pt x="2021" y="-332" on="0"/>
        <pt x="2454" y="-29" on="1"/>
        <pt x="2584" y="62" on="0"/>
        <pt x="2761" y="229" on="0"/>
        <pt x="2811" y="229" on="0"/>
        <pt x="2855" y="165" on="0"/>
        <pt x="2855" y="127" on="0"/>
        <pt x="2830" y="102" on="1"/>
        <pt x="2574" y="-176" on="0"/>
        <pt x="1851" y="-475" on="0"/>
        <pt x="1446" y="-475" on="1"/>
        <pt x="1121" y="-475" on="0"/>
        <pt x="834" y="-333" on="1"/>
        <pt x="551" y="-193" on="0"/>
        <pt x="374" y="85" on="1"/>
        <pt x="193" y="372" on="0"/>
        <pt x="193" y="766" on="1"/>
        <pt x="193" y="1448" on="0"/>
        <pt x="734" y="1946" on="1"/>
        <pt x="1061" y="2247" on="0"/>
        <pt x="1492" y="2364" on="1"/>
        <pt x="1705" y="2421" on="0"/>
        <pt x="2099" y="2421" on="0"/>
        <pt x="2425" y="2355" on="0"/>
        <pt x="2722" y="2202" on="0"/>
        <pt x="2830" y="2088" on="1"/>
        <pt x="3064" y="1838" on="0"/>
        <pt x="3064" y="1409" on="1"/>
        <pt x="3064" y="937" on="0"/>
        <pt x="2708" y="603" on="1"/>
        <pt x="2513" y="419" on="0"/>
        <pt x="2215" y="308" on="1"/>
        <pt x="1947" y="209" on="0"/>
        <pt x="1675" y="209" on="1"/>
        <pt x="1520" y="209" on="0"/>
        <pt x="1520" y="311" on="1"/>
        <pt x="1520" y="377" on="0"/>
      </contour>
      <contour>
        <pt x="1189" y="938" on="0"/>
        <pt x="1122" y="708" on="0"/>
        <pt x="1122" y="531" on="0"/>
        <pt x="1211" y="426" on="0"/>
        <pt x="1357" y="426" on="0"/>
        <pt x="1532" y="613" on="0"/>
        <pt x="1678" y="886" on="0"/>
        <pt x="1802" y="1176" on="0"/>
        <pt x="1872" y="1399" on="0"/>
        <pt x="1872" y="1469" on="0"/>
        <pt x="1798" y="1520" on="0"/>
        <pt x="1705" y="1520" on="0"/>
        <pt x="1573" y="1445" on="0"/>
        <pt x="1434" y="1317" on="0"/>
        <pt x="1297" y="1136" on="0"/>
      </contour>
    </TTGlyph>
    <TTGlyph name="atilde" xMin="90" yMin="-57" xMax="1683" yMax="2372">
      <component glyphName="tildecomb" x="1982" y="0" flags="0x1004"/>
      <component glyphName="a" x="0" y="0" flags="0x1004"/>
    </TTGlyph>
    <TTGlyph name="b" xMin="90" yMin="-45" xMax="1765" yMax="2806">
      <contour>
        <pt x="143" y="4" on="1"/>
        <pt x="90" y="4" on="0"/>
        <pt x="90" y="49" on="1"/>
        <pt x="90" y="95" on="0"/>
        <pt x="147" y="152" on="1"/>
        <pt x="168" y="182" on="0"/>
        <pt x="169" y="189" on="1"/>
        <pt x="172" y="212" on="0"/>
        <pt x="297" y="869" on="0"/>
        <pt x="532" y="2437" on="0"/>
        <pt x="532" y="2576" on="0"/>
        <pt x="516" y="2576" on="1"/>
        <pt x="164" y="2482" on="1"/>
        <pt x="131" y="2482" on="0"/>
        <pt x="131" y="2605" on="1"/>
        <pt x="131" y="2641" on="0"/>
        <pt x="160" y="2650" on="1"/>
        <pt x="799" y="2806" on="0"/>
        <pt x="897" y="2806" on="0"/>
        <pt x="897" y="2753" on="1"/>
        <pt x="897" y="2726" on="0"/>
        <pt x="755" y="1813" on="0"/>
        <pt x="726" y="1650" on="0"/>
        <pt x="545" y="733" on="1"/>
        <pt x="808" y="1150" on="0"/>
        <pt x="988" y="1376" on="0"/>
        <pt x="1080" y="1476" on="0"/>
        <pt x="1157" y="1531" on="0"/>
        <pt x="1206" y="1556" on="1"/>
        <pt x="1298" y="1602" on="0"/>
        <pt x="1605" y="1602" on="0"/>
        <pt x="1704" y="1503" on="1"/>
        <pt x="1765" y="1442" on="0"/>
        <pt x="1765" y="1169" on="0"/>
        <pt x="1702" y="873" on="0"/>
        <pt x="1593" y="629" on="0"/>
        <pt x="1446" y="407" on="0"/>
        <pt x="1279" y="235" on="0"/>
        <pt x="1099" y="95" on="0"/>
        <pt x="1012" y="50" on="1"/>
        <pt x="830" y="-45" on="0"/>
        <pt x="611" y="-45" on="0"/>
        <pt x="444" y="13" on="0"/>
        <pt x="342" y="70" on="0"/>
        <pt x="326" y="70" on="0"/>
        <pt x="176" y="4" on="0"/>
      </contour>
      <contour>
        <pt x="714" y="796" on="0"/>
        <pt x="471" y="411" on="0"/>
        <pt x="471" y="230" on="0"/>
        <pt x="605" y="94" on="0"/>
        <pt x="821" y="94" on="0"/>
        <pt x="1003" y="211" on="0"/>
        <pt x="1158" y="399" on="0"/>
        <pt x="1300" y="635" on="0"/>
        <pt x="1350" y="752" on="1"/>
        <pt x="1458" y="1010" on="0"/>
        <pt x="1458" y="1155" on="1"/>
        <pt x="1458" y="1309" on="0"/>
        <pt x="1374" y="1363" on="1"/>
        <pt x="1342" y="1384" on="0"/>
        <pt x="1245" y="1384" on="0"/>
        <pt x="1149" y="1345" on="0"/>
        <pt x="1107" y="1308" on="1"/>
        <pt x="1035" y="1243" on="0"/>
      </contour>
    </TTGlyph>
    <TTGlyph name="b.denom" xMin="172" yMin="-45" xMax="1561" yMax="2327">
      <contour>
        <pt x="229" y="2200" on="1"/>
        <pt x="720" y="2327" on="0"/>
        <pt x="831" y="2327" on="0"/>
        <pt x="831" y="2277" on="1"/>
        <pt x="831" y="2253" on="0"/>
        <pt x="712" y="1504" on="0"/>
        <pt x="692" y="1401" on="1"/>
        <pt x="553" y="643" on="1"/>
        <pt x="769" y="989" on="0"/>
        <pt x="922" y="1168" on="0"/>
        <pt x="1014" y="1254" on="0"/>
        <pt x="1058" y="1276" on="1"/>
        <pt x="1155" y="1327" on="0"/>
        <pt x="1414" y="1327" on="0"/>
        <pt x="1561" y="1204" on="0"/>
        <pt x="1561" y="954" on="0"/>
        <pt x="1493" y="683" on="0"/>
        <pt x="1377" y="461" on="0"/>
        <pt x="1226" y="263" on="0"/>
        <pt x="1056" y="117" on="0"/>
        <pt x="970" y="63" on="1"/>
        <pt x="798" y="-45" on="0"/>
        <pt x="535" y="-45" on="0"/>
        <pt x="414" y="33" on="1"/>
        <pt x="381" y="53" on="0"/>
        <pt x="341" y="37" on="0"/>
        <pt x="314" y="24" on="1"/>
        <pt x="214" y="-25" on="0"/>
        <pt x="184" y="10" on="1"/>
        <pt x="172" y="25" on="0"/>
        <pt x="172" y="56" on="0"/>
        <pt x="184" y="83" on="0"/>
        <pt x="192" y="94" on="1"/>
        <pt x="227" y="139" on="0"/>
        <pt x="238" y="188" on="1"/>
        <pt x="337" y="727" on="0"/>
        <pt x="532" y="2019" on="0"/>
        <pt x="532" y="2118" on="0"/>
        <pt x="524" y="2118" on="1"/>
        <pt x="250" y="2044" on="1"/>
        <pt x="205" y="2044" on="0"/>
        <pt x="205" y="2146" on="1"/>
        <pt x="205" y="2163" on="1"/>
        <pt x="205" y="2195" on="0"/>
      </contour>
      <contour>
        <pt x="1167" y="1139" on="1"/>
        <pt x="1032" y="1139" on="0"/>
        <pt x="893" y="946" on="1"/>
        <pt x="483" y="383" on="0"/>
        <pt x="483" y="270" on="1"/>
        <pt x="483" y="194" on="0"/>
        <pt x="590" y="86" on="0"/>
        <pt x="779" y="86" on="0"/>
        <pt x="959" y="220" on="0"/>
        <pt x="1106" y="427" on="0"/>
        <pt x="1166" y="545" on="1"/>
        <pt x="1294" y="794" on="0"/>
        <pt x="1294" y="1139" on="0"/>
      </contour>
    </TTGlyph>
    <TTGlyph name="b.numer" xMin="172" yMin="979" xMax="1561" yMax="3351">
      <component glyphName="b.denom" x="0" y="1024" flags="0x1004"/>
    </TTGlyph>
    <TTGlyph name="b.sub" xMin="172" yMin="-659" xMax="1561" yMax="1713">
      <component glyphName="b.denom" x="0" y="-614" flags="0x1004"/>
    </TTGlyph>
    <TTGlyph name="b.sup" xMin="172" yMin="1389" xMax="1561" yMax="3761">
      <component glyphName="b.denom" x="0" y="1434" flags="0x1004"/>
    </TTGlyph>
    <TTGlyph name="backslash" xMin="25" yMin="-967" xMax="1642" yMax="2896">
      <contour>
        <pt x="1642" y="-918" on="1"/>
        <pt x="1642" y="-967" on="0"/>
        <pt x="1447" y="-967" on="0"/>
        <pt x="1409" y="-935" on="0"/>
        <pt x="1378" y="-848" on="0"/>
        <pt x="1377" y="-846" on="1"/>
        <pt x="1373" y="-836" on="0"/>
        <pt x="1372" y="-831" on="1"/>
        <pt x="86" y="2654" on="1"/>
        <pt x="25" y="2802" on="0"/>
        <pt x="25" y="2896" on="0"/>
        <pt x="170" y="2896" on="0"/>
        <pt x="213" y="2892" on="0"/>
        <pt x="227" y="2880" on="1"/>
        <pt x="244" y="2867" on="0"/>
        <pt x="258" y="2818" on="1"/>
        <pt x="1556" y="-664" on="1"/>
        <pt x="1642" y="-882" on="0"/>
      </contour>
    </TTGlyph>
    <TTGlyph name="bar" xMin="397" yMin="-868" xMax="614" yMax="3133">
      <contour>
        <pt x="397" y="-766" on="1"/>
        <pt x="397" y="3056" on="1"/>
        <pt x="397" y="3104" on="0"/>
        <pt x="440" y="3133" on="0"/>
        <pt x="483" y="3133" on="1"/>
        <pt x="512" y="3133" on="1"/>
        <pt x="575" y="3133" on="0"/>
        <pt x="614" y="3107" on="0"/>
        <pt x="614" y="3052" on="1"/>
        <pt x="614" y="-766" on="1"/>
        <pt x="614" y="-847" on="0"/>
        <pt x="575" y="-868" on="0"/>
        <pt x="553" y="-868" on="1"/>
        <pt x="467" y="-868" on="1"/>
        <pt x="419" y="-868" on="0"/>
        <pt x="397" y="-833" on="0"/>
      </contour>
    </TTGlyph>
    <TTGlyph name="braceleft" xMin="152" yMin="-590" xMax="1106" yMax="2834">
      <contour>
        <pt x="187" y="1066" on="0"/>
        <pt x="152" y="1093" on="0"/>
        <pt x="152" y="1148" on="0"/>
        <pt x="179" y="1176" on="0"/>
        <pt x="223" y="1183" on="0"/>
        <pt x="280" y="1202" on="0"/>
        <pt x="339" y="1227" on="0"/>
        <pt x="396" y="1297" on="0"/>
        <pt x="418" y="1348" on="1"/>
        <pt x="467" y="1463" on="0"/>
        <pt x="467" y="1704" on="1"/>
        <pt x="467" y="2032" on="1"/>
        <pt x="467" y="2390" on="0"/>
        <pt x="501" y="2528" on="0"/>
        <pt x="540" y="2650" on="0"/>
        <pt x="599" y="2710" on="0"/>
        <pt x="684" y="2782" on="0"/>
        <pt x="742" y="2797" on="1"/>
        <pt x="883" y="2834" on="0"/>
        <pt x="1079" y="2834" on="0"/>
        <pt x="1106" y="2808" on="0"/>
        <pt x="1106" y="2727" on="0"/>
        <pt x="1072" y="2703" on="0"/>
        <pt x="968" y="2703" on="0"/>
        <pt x="873" y="2687" on="0"/>
        <pt x="787" y="2642" on="0"/>
        <pt x="761" y="2602" on="1"/>
        <pt x="705" y="2516" on="0"/>
        <pt x="705" y="2339" on="1"/>
        <pt x="705" y="1729" on="1"/>
        <pt x="705" y="1487" on="0"/>
        <pt x="682" y="1370" on="0"/>
        <pt x="657" y="1291" on="0"/>
        <pt x="621" y="1240" on="0"/>
        <pt x="596" y="1214" on="1"/>
        <pt x="552" y="1171" on="0"/>
        <pt x="426" y="1127" on="0"/>
        <pt x="427" y="1115" on="0"/>
        <pt x="503" y="1091" on="0"/>
        <pt x="570" y="1056" on="0"/>
        <pt x="621" y="1005" on="0"/>
        <pt x="657" y="954" on="0"/>
        <pt x="682" y="875" on="0"/>
        <pt x="696" y="804" on="0"/>
        <pt x="700" y="747" on="1"/>
        <pt x="705" y="657" on="0"/>
        <pt x="705" y="516" on="1"/>
        <pt x="705" y="-94" on="1"/>
        <pt x="705" y="-271" on="0"/>
        <pt x="787" y="-397" on="0"/>
        <pt x="830" y="-420" on="1"/>
        <pt x="903" y="-459" on="0"/>
        <pt x="1073" y="-459" on="0"/>
        <pt x="1106" y="-482" on="0"/>
        <pt x="1106" y="-563" on="0"/>
        <pt x="1079" y="-590" on="0"/>
        <pt x="923" y="-590" on="0"/>
        <pt x="743" y="-554" on="0"/>
        <pt x="619" y="-503" on="0"/>
        <pt x="537" y="-383" on="0"/>
        <pt x="492" y="-285" on="0"/>
        <pt x="482" y="-182" on="1"/>
        <pt x="467" y="-40" on="0"/>
        <pt x="467" y="213" on="1"/>
        <pt x="467" y="541" on="1"/>
        <pt x="467" y="994" on="0"/>
        <pt x="276" y="1045" on="1"/>
        <pt x="242" y="1054" on="0"/>
      </contour>
    </TTGlyph>
    <TTGlyph name="braceleft.u" xMin="152" yMin="-467" xMax="1106" yMax="2957">
      <component glyphName="braceleft" x="0" y="123" flags="0x1004"/>
    </TTGlyph>
    <TTGlyph name="braceright" xMin="152" yMin="-590" xMax="1106" yMax="2834">
      <contour>
        <pt x="178" y="-590" on="0"/>
        <pt x="152" y="-563" on="0"/>
        <pt x="152" y="-482" on="0"/>
        <pt x="185" y="-459" on="0"/>
        <pt x="306" y="-459" on="0"/>
        <pt x="418" y="-432" on="0"/>
        <pt x="464" y="-394" on="1"/>
        <pt x="553" y="-320" on="0"/>
        <pt x="553" y="-94" on="1"/>
        <pt x="553" y="516" on="1"/>
        <pt x="553" y="758" on="0"/>
        <pt x="576" y="875" on="0"/>
        <pt x="601" y="954" on="0"/>
        <pt x="637" y="1005" on="0"/>
        <pt x="662" y="1030" on="1"/>
        <pt x="706" y="1074" on="0"/>
        <pt x="837" y="1120" on="0"/>
        <pt x="837" y="1122" on="1"/>
        <pt x="837" y="1126" on="0"/>
        <pt x="755" y="1154" on="0"/>
        <pt x="688" y="1189" on="0"/>
        <pt x="637" y="1240" on="0"/>
        <pt x="601" y="1291" on="0"/>
        <pt x="576" y="1370" on="0"/>
        <pt x="562" y="1441" on="0"/>
        <pt x="558" y="1498" on="1"/>
        <pt x="553" y="1588" on="0"/>
        <pt x="553" y="1729" on="1"/>
        <pt x="553" y="2339" on="1"/>
        <pt x="553" y="2496" on="0"/>
        <pt x="492" y="2611" on="0"/>
        <pt x="439" y="2664" on="0"/>
        <pt x="400" y="2678" on="1"/>
        <pt x="329" y="2703" on="0"/>
        <pt x="185" y="2703" on="0"/>
        <pt x="152" y="2727" on="0"/>
        <pt x="152" y="2808" on="0"/>
        <pt x="178" y="2834" on="0"/>
        <pt x="298" y="2834" on="0"/>
        <pt x="437" y="2821" on="0"/>
        <pt x="547" y="2783" on="0"/>
        <pt x="631" y="2746" on="0"/>
        <pt x="694" y="2669" on="0"/>
        <pt x="737" y="2608" on="0"/>
        <pt x="766" y="2490" on="0"/>
        <pt x="782" y="2404" on="0"/>
        <pt x="786" y="2324" on="1"/>
        <pt x="791" y="2198" on="0"/>
        <pt x="791" y="2032" on="1"/>
        <pt x="791" y="1704" on="1"/>
        <pt x="791" y="1463" on="0"/>
        <pt x="862" y="1297" on="0"/>
        <pt x="919" y="1227" on="0"/>
        <pt x="978" y="1202" on="0"/>
        <pt x="1035" y="1183" on="0"/>
        <pt x="1057" y="1180" on="1"/>
        <pt x="1106" y="1172" on="0"/>
        <pt x="1106" y="1122" on="1"/>
        <pt x="1106" y="1074" on="0"/>
        <pt x="1044" y="1060" on="1"/>
        <pt x="953" y="1040" on="0"/>
        <pt x="881" y="977" on="0"/>
        <pt x="854" y="927" on="1"/>
        <pt x="791" y="813" on="0"/>
        <pt x="791" y="541" on="1"/>
        <pt x="791" y="213" on="1"/>
        <pt x="791" y="-137" on="0"/>
        <pt x="757" y="-284" on="0"/>
        <pt x="718" y="-406" on="0"/>
        <pt x="658" y="-466" on="0"/>
        <pt x="573" y="-537" on="0"/>
        <pt x="516" y="-552" on="1"/>
        <pt x="376" y="-590" on="0"/>
      </contour>
    </TTGlyph>
    <TTGlyph name="braceright.u" xMin="152" yMin="-467" xMax="1106" yMax="2957">
      <component glyphName="braceright" x="0" y="123" flags="0x1004"/>
    </TTGlyph>
    <TTGlyph name="bracketleft" xMin="315" yMin="-590" xMax="1061" yMax="2839">
      <contour>
        <pt x="315" y="-528" on="1"/>
        <pt x="315" y="2777" on="1"/>
        <pt x="315" y="2812" on="0"/>
        <pt x="339" y="2839" on="0"/>
        <pt x="377" y="2839" on="1"/>
        <pt x="1004" y="2839" on="1"/>
        <pt x="1039" y="2839" on="0"/>
        <pt x="1061" y="2818" on="0"/>
        <pt x="1061" y="2789" on="1"/>
        <pt x="1061" y="2732" on="1"/>
        <pt x="1061" y="2689" on="0"/>
        <pt x="1041" y="2666" on="0"/>
        <pt x="1004" y="2666" on="1"/>
        <pt x="565" y="2666" on="1"/>
        <pt x="534" y="2666" on="0"/>
        <pt x="524" y="2658" on="0"/>
        <pt x="524" y="2630" on="1"/>
        <pt x="524" y="-381" on="1"/>
        <pt x="524" y="-409" on="0"/>
        <pt x="534" y="-418" on="0"/>
        <pt x="565" y="-418" on="1"/>
        <pt x="1004" y="-418" on="1"/>
        <pt x="1041" y="-418" on="0"/>
        <pt x="1061" y="-440" on="0"/>
        <pt x="1061" y="-483" on="1"/>
        <pt x="1061" y="-532" on="1"/>
        <pt x="1061" y="-564" on="0"/>
        <pt x="1041" y="-590" on="0"/>
        <pt x="1004" y="-590" on="1"/>
        <pt x="381" y="-590" on="1"/>
        <pt x="338" y="-590" on="0"/>
        <pt x="315" y="-571" on="0"/>
      </contour>
    </TTGlyph>
    <TTGlyph name="bracketleft.denom" xMin="356" yMin="-446" xMax="979" yMax="2056">
      <contour>
        <pt x="979" y="-397" on="1"/>
        <pt x="979" y="-446" on="0"/>
        <pt x="922" y="-446" on="1"/>
        <pt x="414" y="-446" on="1"/>
        <pt x="378" y="-446" on="0"/>
        <pt x="356" y="-423" on="0"/>
        <pt x="356" y="-389" on="1"/>
        <pt x="356" y="1999" on="1"/>
        <pt x="356" y="2056" on="0"/>
        <pt x="414" y="2056" on="1"/>
        <pt x="922" y="2056" on="1"/>
        <pt x="979" y="2056" on="0"/>
        <pt x="979" y="2011" on="1"/>
        <pt x="979" y="1962" on="1"/>
        <pt x="979" y="1927" on="0"/>
        <pt x="952" y="1905" on="0"/>
        <pt x="922" y="1905" on="1"/>
        <pt x="578" y="1905" on="1"/>
        <pt x="549" y="1905" on="0"/>
        <pt x="549" y="1880" on="1"/>
        <pt x="549" y="-274" on="1"/>
        <pt x="549" y="-293" on="0"/>
        <pt x="556" y="-299" on="0"/>
        <pt x="578" y="-299" on="1"/>
        <pt x="922" y="-299" on="1"/>
        <pt x="952" y="-299" on="0"/>
        <pt x="979" y="-320" on="0"/>
        <pt x="979" y="-352" on="1"/>
      </contour>
    </TTGlyph>
    <TTGlyph name="bracketleft.numer" xMin="356" yMin="578" xMax="979" yMax="3080">
      <component glyphName="bracketleft.denom" x="0" y="1024" flags="0x1004"/>
    </TTGlyph>
    <TTGlyph name="bracketleft.sub" xMin="356" yMin="-1060" xMax="979" yMax="1442">
      <component glyphName="bracketleft.denom" x="0" y="-614" flags="0x1004"/>
    </TTGlyph>
    <TTGlyph name="bracketleft.sup" xMin="356" yMin="988" xMax="979" yMax="3490">
      <component glyphName="bracketleft.denom" x="0" y="1434" flags="0x1004"/>
    </TTGlyph>
    <TTGlyph name="bracketleft.u" xMin="315" yMin="-467" xMax="1061" yMax="2962">
      <component glyphName="bracketleft" x="0" y="123" flags="0x1004"/>
    </TTGlyph>
</ttFont>
